<svg width="368" height="276" viewBox="0 0 368 276" fill="none" xmlns="http://www.w3.org/2000/svg">
<path d="M166.19 88.1033C152.909 92.8044 142.041 102.588 135.974 115.303C129.908 128.018 129.141 142.622 133.842 155.902C138.543 169.182 148.327 180.051 161.042 186.117C173.757 192.184 188.36 192.951 201.641 188.249C214.921 183.548 225.79 173.764 231.856 161.05C237.922 148.335 238.689 133.731 233.988 120.451C229.287 107.171 219.503 96.3018 206.788 90.2355C194.074 84.1691 179.47 83.4022 166.19 88.1033ZM213.458 221.631C191.324 229.467 166.984 228.188 145.793 218.078C124.602 207.967 108.295 189.853 100.46 167.719C92.6248 145.585 93.9031 121.246 104.014 100.054C114.124 78.8632 132.239 62.5564 154.373 54.7212C176.506 46.886 200.846 48.1643 222.037 58.2749C243.228 68.3855 259.535 86.5001 267.37 108.634C275.205 130.767 273.927 155.107 263.817 176.298C253.706 197.489 235.591 213.796 213.458 221.631ZM139.601 12.9937C56.1462 42.5362 3.25095 119.675 0.313845 203.17C55.1277 266.222 144.774 292.902 228.229 263.359C311.684 233.816 364.579 156.678 367.516 73.1827C312.703 10.1308 223.056 -16.5489 139.601 12.9937Z" fill="#5CEAC2" fill-opacity="0.2"/>
</svg>
