<svg width="1923" height="2059" viewBox="0 0 1923 2059" fill="none" xmlns="http://www.w3.org/2000/svg">
<path d="M627.274 1947.49C716.293 1807.72 847.342 1581.16 642.117 1575.57C380.953 1568.46 153.604 1909.42 155.043 1671.17" stroke="#449CC6" stroke-width="1.78556"/>
<path d="M629.776 1888.98C718.795 1749.21 849.844 1522.65 644.618 1517.06C383.454 1509.95 156.106 1850.91 157.545 1612.66" stroke="#449CC6" stroke-width="1.78556"/>
<path d="M635.888 1830.74C724.907 1690.97 855.956 1464.41 650.731 1458.82C389.567 1451.71 162.219 1792.67 163.657 1554.42" stroke="#449CC6" stroke-width="1.78556"/>
<path d="M646.381 1773.12C735.399 1633.36 866.449 1406.8 661.223 1401.21C400.059 1394.09 172.711 1735.06 174.149 1496.81" stroke="#449CC6" stroke-width="1.78556"/>
<path d="M662.059 1716.7C751.078 1576.93 882.127 1350.37 676.902 1344.78C415.738 1337.67 188.389 1678.63 189.828 1440.38" stroke="#449CC6" stroke-width="1.78556"/>
<path d="M683.555 1662.22C772.574 1522.46 903.623 1295.9 698.398 1290.31C437.234 1283.19 209.886 1624.16 211.324 1385.91" stroke="#449CC6" stroke-width="1.78556"/>
<path d="M711.068 1610.53C800.087 1470.76 931.136 1244.2 725.91 1238.61C464.746 1231.49 237.398 1572.46 238.837 1334.21" stroke="#449CC6" stroke-width="1.78556"/>
<path d="M744.156 1562.21C833.175 1422.44 964.224 1195.88 758.998 1190.29C497.834 1183.18 270.486 1524.14 271.924 1285.89" stroke="#449CC6" stroke-width="1.78556"/>
<path d="M781.828 1517.37C870.847 1377.61 1001.9 1151.05 796.67 1145.46C535.506 1138.34 308.158 1479.3 309.596 1241.06" stroke="#449CC6" stroke-width="1.78556"/>
<path d="M822.87 1475.6C911.889 1335.83 1042.94 1109.27 837.712 1103.68C576.548 1096.57 349.2 1437.53 350.638 1199.28" stroke="#449CC6" stroke-width="1.78556"/>
<path d="M866.146 1436.14C955.165 1296.37 1086.21 1069.81 880.989 1064.22C619.825 1057.11 392.476 1398.07 393.915 1159.82" stroke="#449CC6" stroke-width="1.78556"/>
<path d="M910.733 1398.18C999.752 1258.41 1130.8 1031.85 925.575 1026.26C664.412 1019.14 437.063 1360.11 438.502 1121.86" stroke="#449CC6" stroke-width="1.78556"/>
<path d="M955.941 1360.95C1044.96 1221.18 1176.01 994.626 970.784 989.035C709.62 981.92 482.271 1322.88 483.71 1084.63" stroke="#449CC6" stroke-width="1.78556"/>
<path d="M1001.26 1323.85C1090.28 1184.08 1221.32 957.527 1016.1 951.936C754.935 944.82 527.587 1285.78 529.025 1047.54" stroke="#449CC6" stroke-width="1.78556"/>
<path d="M1046.29 1286.41C1135.31 1146.65 1266.35 920.087 1061.13 914.496C799.965 907.381 572.617 1248.34 574.055 1010.1" stroke="#449CC6" stroke-width="1.78556"/>
<path d="M1090.75 1248.3C1179.77 1108.53 1310.81 881.973 1105.59 876.382C844.425 869.266 617.077 1210.23 618.515 971.982" stroke="#449CC6" stroke-width="1.78556"/>
<path d="M1134.42 1209.28C1223.44 1069.51 1354.49 842.956 1149.26 837.365C888.098 830.25 660.75 1171.21 662.188 932.965" stroke="#449CC6" stroke-width="1.78556"/>
<path d="M1177.14 1169.23C1266.16 1029.46 1397.21 802.903 1191.98 797.312C930.821 790.196 703.473 1131.16 704.911 892.911" stroke="#449CC6" stroke-width="1.78556"/>
<path d="M1219.08 1127.83C1308.1 988.063 1439.14 761.506 1233.92 755.915C972.755 748.799 745.407 1089.76 746.845 851.514" stroke="#449CC6" stroke-width="1.78556"/>
<path d="M1260.06 1085.99C1349.08 946.227 1480.12 719.669 1274.9 714.078C1013.73 706.963 786.387 1047.93 787.825 809.678" stroke="#449CC6" stroke-width="1.78556"/>
<path d="M1300.42 1043.57C1389.44 903.802 1520.49 677.244 1315.27 671.653C1054.1 664.538 826.755 1005.5 828.193 767.253" stroke="#449CC6" stroke-width="1.78556"/>
<path d="M1340.09 1000.49C1429.11 860.72 1560.16 634.163 1354.93 628.571C1093.77 621.456 866.42 962.42 867.858 724.171" stroke="#449CC6" stroke-width="1.78556"/>
<path d="M1378.94 956.664C1467.96 816.897 1599.01 590.339 1393.78 584.748C1132.62 577.633 905.267 918.596 906.706 680.348" stroke="#449CC6" stroke-width="1.78556"/>
<path d="M1416.81 911.995C1505.83 772.228 1636.88 545.67 1431.65 540.079C1170.49 532.963 943.139 873.927 944.577 635.679" stroke="#449CC6" stroke-width="1.78556"/>
<path d="M1453.5 866.348C1542.51 726.581 1673.56 500.023 1468.34 494.432C1207.17 487.317 979.826 828.28 981.264 590.032" stroke="#449CC6" stroke-width="1.78556"/>
<path d="M1488.7 819.554C1577.72 679.787 1708.77 453.229 1503.55 447.638C1242.38 440.523 1015.04 781.486 1016.47 543.238" stroke="#449CC6" stroke-width="1.78556"/>
<path d="M1522.02 771.391C1611.04 631.624 1742.09 405.066 1536.86 399.475C1275.7 392.36 1048.35 733.323 1049.79 495.075" stroke="#449CC6" stroke-width="1.78556"/>
<path d="M1552.81 721.569C1641.83 581.802 1772.88 355.244 1567.65 349.653C1306.49 342.538 1079.14 683.501 1080.58 445.253" stroke="#449CC6" stroke-width="1.78556"/>
<path d="M1580.08 669.764C1669.1 529.996 1800.15 303.439 1594.92 297.848C1333.76 290.732 1106.41 631.696 1107.85 393.447" stroke="#449CC6" stroke-width="1.78556"/>
<path d="M1602.86 616.253C1691.88 476.486 1822.93 249.928 1617.71 244.337C1356.54 237.222 1129.19 578.185 1130.63 339.937" stroke="#449CC6" stroke-width="1.78556"/>
</svg>
