<svg width="276" height="74" viewBox="0 0 276 74" fill="none" xmlns="http://www.w3.org/2000/svg">
<path d="M190.062 55.6352C187.88 55.6352 185.572 55.4069 183.136 54.9502C180.701 54.4936 178.519 53.7071 176.591 52.5909C175.779 52.0835 175.195 51.5 174.84 50.8404C174.536 50.13 174.409 49.4451 174.46 48.7855C174.561 48.0751 174.815 47.4662 175.221 46.9589C175.677 46.4515 176.236 46.1217 176.895 45.9694C177.606 45.8172 178.367 45.9441 179.178 46.35C181.208 47.314 183.111 47.999 184.887 48.4049C186.662 48.7601 188.413 48.9377 190.138 48.9377C192.574 48.9377 194.375 48.5318 195.542 47.7199C196.76 46.8574 197.368 45.7411 197.368 44.3712C197.368 43.2042 196.962 42.3162 196.151 41.7074C195.39 41.0478 194.223 40.5658 192.65 40.2613L185.039 38.8153C181.893 38.2064 179.483 37.0648 177.809 35.3904C176.185 33.6653 175.373 31.4581 175.373 28.769C175.373 26.3335 176.033 24.2278 177.352 22.452C178.722 20.6761 180.599 19.3062 182.984 18.3421C185.369 17.3781 188.109 16.8961 191.204 16.8961C193.436 16.8961 195.516 17.1498 197.444 17.6571C199.423 18.1138 201.326 18.8495 203.153 19.8643C203.914 20.2702 204.421 20.8029 204.675 21.4626C204.979 22.1222 205.055 22.8071 204.903 23.5175C204.751 24.1771 204.446 24.786 203.99 25.3441C203.533 25.8515 202.95 26.1813 202.239 26.3335C201.58 26.435 200.819 26.2828 199.956 25.8768C198.383 25.065 196.861 24.4815 195.39 24.1263C193.969 23.7712 192.599 23.5936 191.28 23.5936C188.794 23.5936 186.942 24.0249 185.724 24.8874C184.557 25.75 183.973 26.8916 183.973 28.3123C183.973 29.3778 184.328 30.2658 185.039 30.9761C185.749 31.6864 186.84 32.1685 188.311 32.4222L195.922 33.8682C199.22 34.4771 201.707 35.5933 203.381 37.217C205.106 38.8406 205.969 41.0224 205.969 43.7623C205.969 47.4662 204.523 50.3837 201.63 52.5148C198.738 54.5951 194.882 55.6352 190.062 55.6352Z" fill="white"/>
<path d="M151.877 55.483C150.304 55.483 149.086 55.0771 148.224 54.2653C147.412 53.4027 147.006 52.185 147.006 50.6121V21.8431C147.006 20.2702 147.412 19.0778 148.224 18.266C149.036 17.4542 150.177 17.0483 151.649 17.0483C153.12 17.0483 154.262 17.4542 155.074 18.266C155.885 19.0778 156.291 20.2702 156.291 21.8431V26.6379H155.53C156.241 23.5936 157.636 21.285 159.716 19.7121C161.796 18.1392 164.562 17.2005 168.012 16.8961C169.077 16.7946 169.915 17.0736 170.524 17.7332C171.183 18.3421 171.564 19.3062 171.665 20.6254C171.767 21.8938 171.462 22.934 170.752 23.7458C170.092 24.5069 169.077 24.9635 167.708 25.1158L166.033 25.268C162.938 25.5724 160.604 26.5364 159.031 28.1601C157.458 29.733 156.672 31.9655 156.672 34.8576V50.6121C156.672 52.185 156.266 53.4027 155.454 54.2653C154.642 55.0771 153.45 55.483 151.877 55.483Z" fill="white"/>
<path d="M124.098 55.6352C119.887 55.6352 116.259 54.8488 113.215 53.2759C110.17 51.7029 107.811 49.4704 106.136 46.5783C104.513 43.6862 103.701 40.2613 103.701 36.3037C103.701 32.4475 104.487 29.0734 106.06 26.1813C107.684 23.2892 109.891 21.0313 112.682 19.4076C115.523 17.7332 118.745 16.8961 122.348 16.8961C124.986 16.8961 127.345 17.3273 129.426 18.1899C131.557 19.0525 133.358 20.2956 134.829 21.9192C136.351 23.5429 137.493 25.5217 138.254 27.8557C139.066 30.1389 139.472 32.7266 139.472 35.6187C139.472 36.532 139.142 37.2424 138.483 37.7497C137.874 38.2064 136.986 38.4347 135.819 38.4347H111.388V32.9549H132.774L131.557 34.0965C131.557 31.7626 131.201 29.8091 130.491 28.2362C129.832 26.6633 128.842 25.4709 127.523 24.6591C126.254 23.7965 124.656 23.3653 122.728 23.3653C120.597 23.3653 118.77 23.8727 117.248 24.8874C115.777 25.8515 114.635 27.2468 113.823 29.0734C113.062 30.8493 112.682 32.9803 112.682 35.4665V35.9993C112.682 40.1598 113.646 43.2803 115.574 45.3606C117.553 47.3901 120.445 48.4049 124.25 48.4049C125.569 48.4049 127.041 48.2527 128.665 47.9483C130.339 47.5931 131.912 47.0096 133.383 46.1978C134.449 45.5889 135.387 45.3352 136.199 45.4367C137.011 45.4874 137.645 45.7665 138.102 46.2739C138.609 46.7813 138.914 47.4155 139.015 48.1766C139.117 48.8869 138.965 49.6227 138.559 50.3837C138.203 51.1448 137.569 51.8044 136.656 52.3626C134.88 53.4788 132.825 54.316 130.491 54.8741C128.208 55.3815 126.077 55.6352 124.098 55.6352Z" fill="white"/>
<path d="M81.4333 55.483C80.1649 55.483 79.0486 55.1532 78.0846 54.4936C77.1713 53.834 76.4102 52.8192 75.8013 51.4492L63.7001 23.3653C63.2434 22.249 63.0659 21.2089 63.1673 20.2448C63.3196 19.2808 63.7762 18.5197 64.5373 17.9616C65.3491 17.3527 66.44 17.0483 67.8099 17.0483C68.9769 17.0483 69.9156 17.3273 70.626 17.8855C71.3363 18.3929 71.9705 19.3823 72.5287 20.8537L82.8033 46.5022H80.52L91.0991 20.7776C91.6572 19.3569 92.2915 18.3929 93.0018 17.8855C93.7629 17.3273 94.7777 17.0483 96.0461 17.0483C97.1624 17.0483 98.0503 17.3527 98.7099 17.9616C99.3695 18.5197 99.7755 19.2808 99.9277 20.2448C100.08 21.1581 99.9023 22.1729 99.3949 23.2892L87.0654 51.4492C86.5072 52.8192 85.7462 53.834 84.7821 54.4936C83.8688 55.1532 82.7526 55.483 81.4333 55.483Z" fill="white"/>
<path d="M51.6839 55.4069C50.1617 55.4069 48.9947 54.9502 48.1829 54.0369C47.3711 53.1236 46.9652 51.8552 46.9652 50.2315V22.2997C46.9652 20.6254 47.3711 19.3569 48.1829 18.4943C48.9947 17.581 50.1617 17.1244 51.6839 17.1244C53.2061 17.1244 54.3731 17.581 55.1849 18.4943C56.0474 19.3569 56.4787 20.6254 56.4787 22.2997V50.2315C56.4787 51.8552 56.0728 53.1236 55.261 54.0369C54.4492 54.9502 53.2568 55.4069 51.6839 55.4069ZM51.6839 10.0463C49.908 10.0463 48.5127 9.61502 47.4979 8.75246C46.5339 7.83916 46.0519 6.59606 46.0519 5.02315C46.0519 3.3995 46.5339 2.1564 47.4979 1.29384C48.5127 0.43128 49.908 0 51.6839 0C53.5105 0 54.9058 0.43128 55.8699 1.29384C56.8339 2.1564 57.3159 3.3995 57.3159 5.02315C57.3159 6.59606 56.8339 7.83916 55.8699 8.75246C54.9058 9.61502 53.5105 10.0463 51.6839 10.0463Z" fill="white"/>
<path d="M262.295 55.483C263.868 55.483 265.085 55.0517 265.948 54.1892C266.76 53.2759 267.166 52.0327 267.166 50.4598V5.63202C267.166 4.00837 266.76 2.76527 265.948 1.90271C265.085 1.04014 263.868 0.608864 262.295 0.608864C260.722 0.608864 259.53 1.04014 258.718 1.90271C257.855 2.76527 257.424 4.00837 257.424 5.63202V50.4598C257.424 52.0327 257.83 53.2759 258.642 54.1892C259.453 55.0517 260.671 55.483 262.295 55.483Z" fill="white"/>
<path d="M11.1816 33.2086C9.4057 33.2086 8.01038 32.7773 6.9956 31.9148C6.03156 31.0015 5.54954 29.7584 5.54954 28.1855C5.54954 26.5618 6.03156 25.3187 6.9956 24.4562C8.01038 23.5936 9.4057 23.1623 11.1816 23.1623C13.0082 23.1623 14.4035 23.5936 15.3675 24.4562C16.3316 25.3187 16.8136 26.5618 16.8136 28.1855C16.8136 29.7584 16.3316 31.0015 15.3675 31.9148C14.4035 32.7773 13.0082 33.2086 11.1816 33.2086Z" fill="white"/>
<path fill-rule="evenodd" clip-rule="evenodd" d="M2.37838 54.6204C1.06484 54.6204 0 53.5556 0 52.2421V48.9313C0 47.6178 1.06484 46.553 2.37839 46.553H9.58965C12.7355 46.553 15.45 46.1724 17.7332 45.4113C20.0672 44.5995 21.9953 43.4325 23.5175 41.9103C25.0904 40.3374 26.2574 38.384 27.0185 36.05C27.7796 33.6653 28.1601 30.9 28.1601 27.7542C28.1601 21.4626 26.6126 16.7692 23.5175 13.6741C20.4224 10.5791 15.7798 9.03153 9.58965 9.03153H2.37839C1.06484 9.03153 0 7.96669 0 6.65314V3.34243C0 2.02888 1.06484 0.96404 2.37839 0.96404H10.1985C19.1793 0.96404 26.1052 3.27266 30.9761 7.8899C35.8978 12.5071 38.3586 19.1286 38.3586 27.7542C38.3586 32.067 37.7244 35.8978 36.4559 39.2465C35.2382 42.5446 33.4116 45.3352 30.9761 47.6185C28.5914 49.9017 25.6485 51.6522 22.1475 52.8699C18.6973 54.0369 14.7143 54.6204 10.1985 54.6204H2.37838Z" fill="white"/>
<path fill-rule="evenodd" clip-rule="evenodd" d="M249.242 54.6204C250.556 54.6204 251.621 53.5556 251.621 52.2421V48.9313C251.621 47.6178 250.556 46.553 249.242 46.553H242.031C238.885 46.553 236.171 46.1724 233.887 45.4113C231.553 44.5995 229.625 43.4325 228.103 41.9103C226.53 40.3374 225.363 38.384 224.602 36.05C223.841 33.6653 223.46 30.9 223.46 27.7542C223.46 21.4626 225.008 16.7692 228.103 13.6741C231.198 10.5791 235.841 9.03153 242.031 9.03153H249.242C250.556 9.03153 251.621 7.96669 251.621 6.65314V3.34243C251.621 2.02888 250.556 0.96404 249.242 0.96404H241.422C232.441 0.96404 225.515 3.27266 220.644 7.8899C215.723 12.5071 213.262 19.1286 213.262 27.7542C213.262 32.067 213.896 35.8978 215.165 39.2465C216.382 42.5446 218.209 45.3352 220.644 47.6185C223.029 49.9017 225.972 51.6522 229.473 52.8699C232.923 54.0369 236.906 54.6204 241.422 54.6204H249.242Z" fill="white"/>
<path d="M241.232 33.2086C243.008 33.2086 244.403 32.7773 245.418 31.9148C246.382 31.0015 246.864 29.7584 246.864 28.1855C246.864 26.5618 246.382 25.3187 245.418 24.4562C244.403 23.5936 243.008 23.1623 241.232 23.1623C239.405 23.1623 238.01 23.5936 237.046 24.4562C236.082 25.3187 235.6 26.5618 235.6 28.1855C235.6 29.7584 236.082 31.0015 237.046 31.9148C238.01 32.7773 239.405 33.2086 241.232 33.2086Z" fill="white"/>
<path d="M0.850705 69.4957V60.7456H6.44105V61.9427H2.12069V64.3976H5.71187V65.5946H2.12069V68.2987H6.44105V69.4957H0.850705ZM16.1886 69.4957L16.1947 65.4063C16.1947 64.9323 16.0732 64.5637 15.8301 64.3004C15.5871 64.033 15.267 63.8993 14.8701 63.8993C14.627 63.8993 14.4042 63.956 14.2016 64.0694C14.0031 64.1788 13.8411 64.3449 13.7155 64.5677C13.594 64.7865 13.5332 65.0619 13.5332 65.3941L12.9195 65.0842C12.9114 64.6224 13.0086 64.2173 13.2112 63.8689C13.4178 63.5205 13.6973 63.2511 14.0497 63.0608C14.4022 62.8663 14.7971 62.7691 15.2346 62.7691C15.9436 62.7691 16.4925 62.9818 16.8814 63.4071C17.2703 63.8325 17.4647 64.3976 17.4647 65.1024L17.4586 69.4957H16.1886ZM8.31963 69.4957V62.9331H9.44985V64.829H9.59568V69.4957H8.31963ZM12.2572 69.4957L12.2633 65.4306C12.2633 64.9526 12.1417 64.5778 11.8987 64.3064C11.6597 64.035 11.3376 63.8993 10.9325 63.8993C10.5315 63.8993 10.2074 64.037 9.96027 64.3125C9.71721 64.588 9.59568 64.9485 9.59568 65.3941L8.98804 65.0052C8.98804 64.5758 9.09134 64.193 9.29794 63.8568C9.50454 63.5205 9.78405 63.2552 10.1365 63.0608C10.4889 62.8663 10.8879 62.7691 11.3336 62.7691C11.7994 62.7691 12.1964 62.8683 12.5245 63.0668C12.8527 63.2613 13.1018 63.5347 13.2719 63.8872C13.4461 64.2396 13.5332 64.6487 13.5332 65.1146L13.5272 69.4957H12.2572ZM22.5487 69.678C21.9208 69.678 21.3942 69.5261 20.9688 69.2223C20.5435 68.9144 20.2214 68.4992 20.0027 67.9766C19.7839 67.454 19.6745 66.8646 19.6745 66.2084C19.6745 65.5521 19.7819 64.9627 19.9966 64.4401C20.2153 63.9175 20.5354 63.5064 20.9567 63.2066C21.382 62.9028 21.9046 62.7509 22.5244 62.7509C23.1402 62.7509 23.6708 62.9028 24.1164 63.2066C24.5661 63.5064 24.9125 63.9175 25.1555 64.4401C25.3986 64.9586 25.5201 65.5481 25.5201 66.2084C25.5201 66.8646 25.3986 67.4561 25.1555 67.9827C24.9165 68.5053 24.5742 68.9185 24.1286 69.2223C23.687 69.5261 23.1604 69.678 22.5487 69.678ZM19.4619 72.4124V62.9331H20.5921V67.6546H20.7379V72.4124H19.4619ZM22.3725 68.5296C22.7776 68.5296 23.1118 68.4263 23.3751 68.2197C23.6425 68.0131 23.841 67.7356 23.9706 67.3872C24.1043 67.0348 24.1711 66.6418 24.1711 66.2084C24.1711 65.779 24.1043 65.3901 23.9706 65.0417C23.841 64.6933 23.6404 64.4158 23.369 64.2092C23.0976 64.0026 22.7513 63.8993 22.33 63.8993C21.933 63.8993 21.6048 63.9965 21.3456 64.191C21.0904 64.3854 20.9 64.6568 20.7744 65.0052C20.6529 65.3536 20.5921 65.7547 20.5921 66.2084C20.5921 66.6621 20.6529 67.0631 20.7744 67.4115C20.8959 67.7599 21.0883 68.0333 21.3516 68.2318C21.615 68.4303 21.9552 68.5296 22.3725 68.5296ZM30.137 69.678C29.4807 69.678 28.9116 69.5302 28.4295 69.2344C27.9474 68.9387 27.5747 68.5316 27.3114 68.0131C27.0522 67.4905 26.9225 66.8889 26.9225 66.2084C26.9225 65.5237 27.0562 64.9222 27.3236 64.4037C27.5909 63.8811 27.9657 63.476 28.4477 63.1884C28.9298 62.8967 29.4929 62.7509 30.137 62.7509C30.7932 62.7509 31.3624 62.8987 31.8445 63.1944C32.3265 63.4902 32.6992 63.8973 32.9625 64.4158C33.2258 64.9343 33.3575 65.5318 33.3575 66.2084C33.3575 66.893 33.2238 67.4966 32.9565 68.0191C32.6931 68.5377 32.3205 68.9448 31.8384 69.2405C31.3563 69.5322 30.7892 69.678 30.137 69.678ZM30.137 68.481C30.7649 68.481 31.2328 68.2703 31.5406 67.849C31.8526 67.4237 32.0085 66.8768 32.0085 66.2084C32.0085 65.5237 31.8505 64.9769 31.5346 64.5677C31.2226 64.1545 30.7568 63.9479 30.137 63.9479C29.7116 63.9479 29.3612 64.0451 29.0857 64.2396C28.8103 64.43 28.6057 64.6953 28.472 65.0356C28.3383 65.3718 28.2715 65.7628 28.2715 66.2084C28.2715 66.897 28.4295 67.448 28.7455 67.8612C29.0614 68.2744 29.5253 68.481 30.137 68.481ZM36.2784 69.4957L34.2731 62.9271L35.531 62.9331L36.9043 67.4358L38.2897 62.9331H39.3835L40.7689 67.4358L42.1422 62.9331H43.3939L41.3887 69.4957H40.3678L38.8366 64.7439L37.2992 69.4957H36.2784ZM47.5807 69.678C46.9285 69.678 46.3553 69.5362 45.8611 69.2527C45.3709 68.965 44.9881 68.566 44.7126 68.0556C44.4412 67.5411 44.3055 66.9456 44.3055 66.2691C44.3055 65.5521 44.4392 64.9303 44.7065 64.4037C44.9779 63.877 45.3547 63.4699 45.8367 63.1823C46.3188 62.8947 46.8799 62.7509 47.5199 62.7509C48.1883 62.7509 48.7575 62.9068 49.2274 63.2187C49.6973 63.5266 50.0477 63.9661 50.2786 64.5373C50.5136 65.1085 50.6068 65.7871 50.5582 66.5729H49.2882V66.1111C49.2801 65.3496 49.1342 64.7865 48.8507 64.4219C48.5712 64.0573 48.1438 63.875 47.5685 63.875C46.9325 63.875 46.4545 64.0755 46.1345 64.4766C45.8145 64.8776 45.6545 65.4569 45.6545 66.2144C45.6545 66.9355 45.8145 67.4945 46.1345 67.8915C46.4545 68.2845 46.9163 68.481 47.5199 68.481C47.9169 68.481 48.2592 68.3918 48.5469 68.2136C48.8385 68.0313 49.0654 67.772 49.2274 67.4358L50.4731 67.8308C50.2179 68.4182 49.831 68.8739 49.3125 69.198C48.794 69.518 48.2167 69.678 47.5807 69.678ZM45.2413 66.5729V65.5825H49.9262V66.5729H45.2413ZM52.3468 69.4957V62.9331H53.477V64.5252L53.3191 64.3186C53.4001 64.1079 53.5054 63.9155 53.635 63.7413C53.7647 63.5631 53.9146 63.4172 54.0847 63.3038C54.2508 63.1823 54.4351 63.0891 54.6377 63.0243C54.8443 62.9554 55.0549 62.9149 55.2696 62.9028C55.4843 62.8866 55.6909 62.8967 55.8894 62.9331V64.1241C55.6747 64.0674 55.4357 64.0512 55.1724 64.0755C54.9131 64.0998 54.6741 64.1829 54.4554 64.3247C54.2488 64.4583 54.0847 64.6204 53.9632 64.8108C53.8457 65.0012 53.7606 65.2138 53.708 65.4488C53.6553 65.6797 53.629 65.9248 53.629 66.1841V69.4957H52.3468ZM57.5935 61.8576V60.6241H58.8634V61.8576H57.5935ZM57.5935 69.4957V62.9331H58.8634V69.4957H57.5935ZM65.7195 69.4957V66.2691C65.7195 66.0139 65.6972 65.7526 65.6527 65.4853C65.6122 65.2138 65.5311 64.9627 65.4096 64.7318C65.2921 64.5009 65.124 64.3145 64.9053 64.1727C64.6906 64.031 64.409 63.9601 64.0606 63.9601C63.8338 63.9601 63.6191 63.9986 63.4165 64.0755C63.214 64.1484 63.0357 64.2679 62.8818 64.434C62.7319 64.6001 62.6124 64.8189 62.5233 65.0903C62.4382 65.3617 62.3957 65.6919 62.3957 66.0808L61.6057 65.783C61.6057 65.1875 61.7171 64.6629 61.9399 64.2092C62.1627 63.7514 62.4828 63.395 62.9 63.1397C63.3173 62.8845 63.8216 62.7569 64.4131 62.7569C64.8668 62.7569 65.2476 62.8298 65.5554 62.9757C65.8633 63.1215 66.1124 63.3139 66.3028 63.5529C66.4973 63.7879 66.6452 64.0451 66.7464 64.3247C66.8477 64.6042 66.9166 64.8776 66.953 65.145C66.9895 65.4123 67.0077 65.6473 67.0077 65.8499V69.4957H65.7195ZM61.1075 69.4957V62.9331H62.2438V64.829H62.3957V69.4957H61.1075ZM71.7198 72.5947C71.3674 72.5947 71.0251 72.54 70.6929 72.4307C70.3648 72.3213 70.065 72.1592 69.7936 71.9445C69.5222 71.7339 69.2973 71.4726 69.1191 71.1607L70.2919 70.5652C70.4336 70.8447 70.6362 71.0493 70.8995 71.1789C71.1628 71.3085 71.4403 71.3734 71.732 71.3734C72.0925 71.3734 72.4004 71.3085 72.6556 71.1789C72.9108 71.0533 73.1032 70.8629 73.2329 70.6077C73.3665 70.3525 73.4314 70.0365 73.4273 69.6598V67.8247H73.5792V62.9331H74.7034V69.6719C74.7034 69.8461 74.6973 70.0122 74.6851 70.1702C74.673 70.3282 74.6507 70.4862 74.6183 70.6442C74.5251 71.0857 74.3469 71.4503 74.0836 71.7379C73.8243 72.0256 73.4921 72.2403 73.087 72.382C72.686 72.5238 72.2302 72.5947 71.7198 72.5947ZM71.6226 69.678C71.0109 69.678 70.4823 69.5261 70.0366 69.2223C69.5951 68.9185 69.2528 68.5053 69.0097 67.9827C68.7707 67.4561 68.6512 66.8646 68.6512 66.2084C68.6512 65.5481 68.7727 64.9586 69.0158 64.4401C69.2589 63.9175 69.6032 63.5064 70.0488 63.2066C70.4985 62.9028 71.0312 62.7509 71.6469 62.7509C72.2667 62.7509 72.7873 62.9028 73.2086 63.2066C73.6339 63.5064 73.9539 63.9175 74.1686 64.4401C74.3874 64.9627 74.4968 65.5521 74.4968 66.2084C74.4968 66.8646 74.3874 67.454 74.1686 67.9766C73.9499 68.4992 73.6278 68.9144 73.2025 69.2223C72.7771 69.5261 72.2505 69.678 71.6226 69.678ZM71.7988 68.5296C72.2161 68.5296 72.5563 68.4303 72.8197 68.2318C73.083 68.0333 73.2754 67.7599 73.3969 67.4115C73.5185 67.0631 73.5792 66.6621 73.5792 66.2084C73.5792 65.7547 73.5164 65.3536 73.3909 65.0052C73.2693 64.6568 73.0789 64.3854 72.8197 64.191C72.5645 63.9965 72.2383 63.8993 71.8414 63.8993C71.4201 63.8993 71.0737 64.0026 70.8023 64.2092C70.5309 64.4158 70.3283 64.6933 70.1946 65.0417C70.065 65.3901 70.0002 65.779 70.0002 66.2084C70.0002 66.6418 70.065 67.0348 70.1946 67.3872C70.3283 67.7356 70.5268 68.0131 70.7901 68.2197C71.0575 68.4263 71.3937 68.5296 71.7988 68.5296ZM79.8148 69.4957V60.7456H81.0848V69.4957H79.8148ZM85.9417 69.678C85.33 69.678 84.8013 69.5261 84.3557 69.2223C83.9142 68.9185 83.5719 68.5053 83.3288 67.9827C83.0898 67.4561 82.9703 66.8646 82.9703 66.2084C82.9703 65.5481 83.0918 64.9586 83.3349 64.4401C83.5779 63.9175 83.9223 63.5064 84.3679 63.2066C84.8175 62.9028 85.3502 62.7509 85.966 62.7509C86.5858 62.7509 87.1063 62.9028 87.5276 63.2066C87.953 63.5064 88.273 63.9175 88.4877 64.4401C88.7065 64.9627 88.8159 65.5521 88.8159 66.2084C88.8159 66.8646 88.7065 67.454 88.4877 67.9766C88.269 68.4992 87.9469 68.9144 87.5216 69.2223C87.0962 69.5261 86.5696 69.678 85.9417 69.678ZM86.1179 68.5296C86.5352 68.5296 86.8754 68.4303 87.1387 68.2318C87.4021 68.0333 87.5945 67.7599 87.716 67.4115C87.8375 67.0631 87.8983 66.6621 87.8983 66.2084C87.8983 65.7547 87.8355 65.3536 87.7099 65.0052C87.5884 64.6568 87.398 64.3854 87.1387 64.191C86.8835 63.9965 86.5574 63.8993 86.1604 63.8993C85.7391 63.8993 85.3928 64.0026 85.1214 64.2092C84.8499 64.4158 84.6474 64.6933 84.5137 65.0417C84.3841 65.3901 84.3193 65.779 84.3193 66.2084C84.3193 66.6418 84.3841 67.0348 84.5137 67.3872C84.6474 67.7356 84.8459 68.0131 85.1092 68.2197C85.3766 68.4263 85.7128 68.5296 86.1179 68.5296ZM87.8983 69.4957V64.7743H87.7525V60.7456H89.0285V69.4957H87.8983ZM94.0647 69.678C93.4125 69.678 92.8393 69.5362 92.345 69.2527C91.8549 68.965 91.4721 68.566 91.1966 68.0556C90.9252 67.5411 90.7895 66.9456 90.7895 66.2691C90.7895 65.5521 90.9232 64.9303 91.1905 64.4037C91.4619 63.877 91.8387 63.4699 92.3207 63.1823C92.8028 62.8947 93.3639 62.7509 94.0039 62.7509C94.6723 62.7509 95.2415 62.9068 95.7114 63.2187C96.1813 63.5266 96.5317 63.9661 96.7626 64.5373C96.9976 65.1085 97.0908 65.7871 97.0421 66.5729H95.7722V66.1111C95.7641 65.3496 95.6182 64.7865 95.3347 64.4219C95.0551 64.0573 94.6278 63.875 94.0525 63.875C93.4165 63.875 92.9385 64.0755 92.6185 64.4766C92.2985 64.8776 92.1384 65.4569 92.1384 66.2144C92.1384 66.9355 92.2985 67.4945 92.6185 67.8915C92.9385 68.2845 93.4003 68.481 94.0039 68.481C94.4009 68.481 94.7432 68.3918 95.0308 68.2136C95.3225 68.0313 95.5494 67.772 95.7114 67.4358L96.9571 67.8308C96.7019 68.4182 96.315 68.8739 95.7965 69.198C95.2779 69.518 94.7007 69.678 94.0647 69.678ZM91.7252 66.5729V65.5825H96.4102V66.5729H91.7252ZM103.259 69.4957V66.2691C103.259 66.0139 103.236 65.7526 103.192 65.4853C103.151 65.2138 103.07 64.9627 102.949 64.7318C102.831 64.5009 102.663 64.3145 102.445 64.1727C102.23 64.031 101.948 63.9601 101.6 63.9601C101.373 63.9601 101.158 63.9986 100.956 64.0755C100.753 64.1484 100.575 64.2679 100.421 64.434C100.271 64.6001 100.152 64.8189 100.063 65.0903C99.9775 65.3617 99.9349 65.6919 99.9349 66.0808L99.145 65.783C99.145 65.1875 99.2564 64.6629 99.4792 64.2092C99.702 63.7514 100.022 63.395 100.439 63.1397C100.857 62.8845 101.361 62.7569 101.952 62.7569C102.406 62.7569 102.787 62.8298 103.095 62.9757C103.403 63.1215 103.652 63.3139 103.842 63.5529C104.037 63.7879 104.184 64.0451 104.286 64.3247C104.387 64.6042 104.456 64.8776 104.492 65.145C104.529 65.4123 104.547 65.6473 104.547 65.8499V69.4957H103.259ZM98.6467 69.4957V62.9331H99.783V64.829H99.9349V69.4957H98.6467ZM110.31 69.4957C109.897 69.5767 109.492 69.6112 109.095 69.599C108.698 69.5869 108.344 69.5099 108.032 69.3681C107.72 69.2263 107.485 69.0035 107.327 68.6997C107.185 68.4283 107.108 68.1528 107.096 67.8733C107.088 67.5897 107.084 67.2697 107.084 66.9132V61.1102H108.36V66.8525C108.36 67.1158 108.362 67.3447 108.366 67.5391C108.374 67.7336 108.416 67.8976 108.493 68.0313C108.639 68.2825 108.87 68.4263 109.186 68.4627C109.506 68.4951 109.881 68.481 110.31 68.4202V69.4957ZM105.826 63.954V62.9331H110.31V63.954H105.826ZM112.241 61.8576V60.6241H113.511V61.8576H112.241ZM112.241 69.4957V62.9331H113.511V69.4957H112.241ZM119.516 69.4957C119.103 69.5767 118.698 69.6112 118.301 69.599C117.904 69.5869 117.549 69.5099 117.237 69.3681C116.926 69.2263 116.691 69.0035 116.533 68.6997C116.391 68.4283 116.314 68.1528 116.302 67.8733C116.294 67.5897 116.29 67.2697 116.29 66.9132V61.1102H117.566V66.8525C117.566 67.1158 117.568 67.3447 117.572 67.5391C117.58 67.7336 117.622 67.8976 117.699 68.0313C117.845 68.2825 118.076 68.4263 118.392 68.4627C118.712 68.4951 119.087 68.481 119.516 68.4202V69.4957ZM115.032 63.954V62.9331H119.516V63.954H115.032ZM121.447 61.8576V60.6241H122.717V61.8576H121.447ZM121.447 69.4957V62.9331H122.717V69.4957H121.447ZM127.877 69.678C127.225 69.678 126.652 69.5362 126.158 69.2527C125.668 68.965 125.285 68.566 125.009 68.0556C124.738 67.5411 124.602 66.9456 124.602 66.2691C124.602 65.5521 124.736 64.9303 125.003 64.4037C125.275 63.877 125.651 63.4699 126.133 63.1823C126.615 62.8947 127.177 62.7509 127.817 62.7509C128.485 62.7509 129.054 62.9068 129.524 63.2187C129.994 63.5266 130.344 63.9661 130.575 64.5373C130.81 65.1085 130.903 65.7871 130.855 66.5729H129.585V66.1111C129.577 65.3496 129.431 64.7865 129.147 64.4219C128.868 64.0573 128.44 63.875 127.865 63.875C127.229 63.875 126.751 64.0755 126.431 64.4766C126.111 64.8776 125.951 65.4569 125.951 66.2144C125.951 66.9355 126.111 67.4945 126.431 67.8915C126.751 68.2845 127.213 68.481 127.817 68.481C128.214 68.481 128.556 68.3918 128.844 68.2136C129.135 68.0313 129.362 67.772 129.524 67.4358L130.77 67.8308C130.515 68.4182 130.128 68.8739 129.609 69.198C129.091 69.518 128.513 69.678 127.877 69.678ZM125.538 66.5729V65.5825H130.223V66.5729H125.538ZM135.153 69.6719C134.355 69.6719 133.705 69.4957 133.203 69.1433C132.7 68.7909 132.392 68.2946 132.279 67.6546L133.579 67.454C133.66 67.7943 133.847 68.0637 134.138 68.2622C134.434 68.4567 134.801 68.5539 135.238 68.5539C135.635 68.5539 135.945 68.4729 136.168 68.3108C136.395 68.1488 136.508 67.926 136.508 67.6424C136.508 67.4763 136.468 67.3426 136.387 67.2414C136.31 67.136 136.146 67.0368 135.894 66.9436C135.643 66.8504 135.26 66.735 134.746 66.5973C134.183 66.4514 133.735 66.2955 133.403 66.1294C133.075 65.9592 132.84 65.7628 132.698 65.54C132.56 65.3131 132.492 65.0397 132.492 64.7196C132.492 64.3226 132.597 63.9763 132.808 63.6806C133.018 63.3848 133.314 63.156 133.695 62.9939C134.08 62.8319 134.529 62.7509 135.044 62.7509C135.546 62.7509 135.994 62.8298 136.387 62.9878C136.78 63.1458 137.098 63.3707 137.341 63.6623C137.584 63.9499 137.729 64.2882 137.778 64.6771L136.478 64.9141C136.433 64.5981 136.285 64.349 136.034 64.1667C135.783 63.9844 135.457 63.8851 135.056 63.8689C134.671 63.8527 134.359 63.9175 134.12 64.0634C133.881 64.2052 133.762 64.4016 133.762 64.6528C133.762 64.7986 133.806 64.9222 133.895 65.0235C133.988 65.1247 134.167 65.2219 134.43 65.3151C134.693 65.4083 135.082 65.5197 135.597 65.6493C136.148 65.7911 136.585 65.9491 136.909 66.1233C137.233 66.2934 137.464 66.498 137.602 66.737C137.744 66.972 137.815 67.2576 137.815 67.5938C137.815 68.242 137.578 68.7503 137.104 69.119C136.634 69.4876 135.984 69.6719 135.153 69.6719ZM139.463 70.948L139.542 70.3829C139.716 70.395 139.852 70.3626 139.949 70.2857C140.046 70.2087 140.111 70.1013 140.143 69.9636C140.176 69.8259 140.182 69.6699 140.162 69.4957H139.463V68.0313H140.806V69.6173C140.806 70.0953 140.69 70.4558 140.459 70.6989C140.233 70.9419 139.9 71.025 139.463 70.948ZM146.393 69.4957V60.7456H151.983V61.9427H147.663V64.3976H151.254V65.5946H147.663V68.2987H151.983V69.4957H146.393ZM161.731 69.4957L161.737 65.4063C161.737 64.9323 161.615 64.5637 161.372 64.3004C161.129 64.033 160.809 63.8993 160.412 63.8993C160.169 63.8993 159.946 63.956 159.744 64.0694C159.545 64.1788 159.383 64.3449 159.258 64.5677C159.136 64.7865 159.075 65.0619 159.075 65.3941L158.462 65.0842C158.454 64.6224 158.551 64.2173 158.753 63.8689C158.96 63.5205 159.239 63.2511 159.592 63.0608C159.944 62.8663 160.339 62.7691 160.777 62.7691C161.486 62.7691 162.035 62.9818 162.424 63.4071C162.812 63.8325 163.007 64.3976 163.007 65.1024L163.001 69.4957H161.731ZM153.862 69.4957V62.9331H154.992V64.829H155.138V69.4957H153.862ZM157.799 69.4957L157.805 65.4306C157.805 64.9526 157.684 64.5778 157.441 64.3064C157.202 64.035 156.88 63.8993 156.475 63.8993C156.074 63.8993 155.75 64.037 155.502 64.3125C155.259 64.588 155.138 64.9485 155.138 65.3941L154.53 65.0052C154.53 64.5758 154.634 64.193 154.84 63.8568C155.047 63.5205 155.326 63.2552 155.679 63.0608C156.031 62.8663 156.43 62.7691 156.876 62.7691C157.342 62.7691 157.739 62.8683 158.067 63.0668C158.395 63.2613 158.644 63.5347 158.814 63.8872C158.988 64.2396 159.075 64.6487 159.075 65.1146L159.069 69.4957H157.799ZM168.091 69.678C167.463 69.678 166.936 69.5261 166.511 69.2223C166.086 68.9144 165.764 68.4992 165.545 67.9766C165.326 67.454 165.217 66.8646 165.217 66.2084C165.217 65.5521 165.324 64.9627 165.539 64.4401C165.758 63.9175 166.078 63.5064 166.499 63.2066C166.924 62.9028 167.447 62.7509 168.067 62.7509C168.682 62.7509 169.213 62.9028 169.659 63.2066C170.108 63.5064 170.455 63.9175 170.698 64.4401C170.941 64.9586 171.062 65.5481 171.062 66.2084C171.062 66.8646 170.941 67.4561 170.698 67.9827C170.459 68.5053 170.116 68.9185 169.671 69.2223C169.229 69.5261 168.703 69.678 168.091 69.678ZM165.004 69.4957V60.7456H166.28V64.7743H166.134V69.4957H165.004ZM167.915 68.5296C168.32 68.5296 168.654 68.4263 168.917 68.2197C169.185 68.0131 169.383 67.7356 169.513 67.3872C169.646 67.0348 169.713 66.6418 169.713 66.2084C169.713 65.779 169.646 65.3901 169.513 65.0417C169.383 64.6933 169.183 64.4158 168.911 64.2092C168.64 64.0026 168.293 63.8993 167.872 63.8993C167.475 63.8993 167.147 63.9965 166.888 64.191C166.633 64.3854 166.442 64.6568 166.317 65.0052C166.195 65.3536 166.134 65.7547 166.134 66.2084C166.134 66.6621 166.195 67.0631 166.317 67.4115C166.438 67.7599 166.631 68.0333 166.894 68.2318C167.157 68.4303 167.497 68.5296 167.915 68.5296ZM172.829 69.4957V62.9331H173.96V64.5252L173.802 64.3186C173.883 64.1079 173.988 63.9155 174.118 63.7413C174.247 63.5631 174.397 63.4172 174.567 63.3038C174.733 63.1823 174.918 63.0891 175.12 63.0243C175.327 62.9554 175.537 62.9149 175.752 62.9028C175.967 62.8866 176.173 62.8967 176.372 62.9331V64.1241C176.157 64.0674 175.918 64.0512 175.655 64.0755C175.396 64.0998 175.157 64.1829 174.938 64.3247C174.731 64.4583 174.567 64.6204 174.446 64.8108C174.328 65.0012 174.243 65.2138 174.19 65.4488C174.138 65.6797 174.111 65.9248 174.111 66.1841V69.4957H172.829ZM179.618 69.678C179.132 69.678 178.725 69.5889 178.396 69.4107C178.068 69.2284 177.819 68.9894 177.649 68.6936C177.483 68.3939 177.4 68.0657 177.4 67.7092C177.4 67.3771 177.459 67.0854 177.576 66.8342C177.694 66.5831 177.868 66.3704 178.099 66.1962C178.33 66.018 178.613 65.8742 178.949 65.7648C179.241 65.6797 179.571 65.6048 179.94 65.54C180.309 65.4751 180.695 65.4144 181.101 65.3577C181.51 65.3009 181.915 65.2442 182.316 65.1875L181.854 65.4427C181.862 64.9283 181.753 64.5475 181.526 64.3004C181.303 64.0492 180.918 63.9236 180.371 63.9236C180.027 63.9236 179.711 64.0046 179.423 64.1667C179.136 64.3247 178.935 64.588 178.822 64.9566L177.637 64.592C177.799 64.0289 178.107 63.5813 178.561 63.2491C179.018 62.9169 179.626 62.7509 180.383 62.7509C180.971 62.7509 181.481 62.8521 181.915 63.0547C182.352 63.2532 182.672 63.5692 182.875 64.0026C182.98 64.2173 183.045 64.4442 183.069 64.6832C183.094 64.9222 183.106 65.1794 183.106 65.4549V69.4957H181.982V67.9948L182.2 68.1893C181.929 68.6916 181.583 69.0663 181.161 69.3134C180.744 69.5565 180.23 69.678 179.618 69.678ZM179.843 68.6389C180.203 68.6389 180.513 68.5762 180.772 68.4506C181.032 68.3209 181.24 68.1569 181.398 67.9584C181.556 67.7599 181.66 67.5533 181.708 67.3386C181.777 67.1441 181.815 66.9254 181.824 66.6823C181.836 66.4393 181.842 66.2448 181.842 66.099L182.255 66.2509C181.854 66.3117 181.489 66.3663 181.161 66.415C180.833 66.4636 180.535 66.5122 180.268 66.5608C180.005 66.6054 179.77 66.66 179.563 66.7249C179.389 66.7856 179.233 66.8585 179.095 66.9436C178.962 67.0287 178.854 67.132 178.773 67.2535C178.696 67.375 178.658 67.5229 178.658 67.6971C178.658 67.8672 178.7 68.0252 178.785 68.1711C178.87 68.3128 179 68.4263 179.174 68.5113C179.348 68.5964 179.571 68.6389 179.843 68.6389ZM187.916 69.678C187.244 69.678 186.673 69.5281 186.203 69.2284C185.733 68.9286 185.372 68.5174 185.121 67.9948C184.874 67.4723 184.748 66.8788 184.744 66.2144C184.748 65.5379 184.878 64.9404 185.133 64.4219C185.388 63.8993 185.753 63.4902 186.227 63.1944C186.701 62.8987 187.27 62.7509 187.935 62.7509C188.652 62.7509 189.263 62.9291 189.77 63.2856C190.28 63.6421 190.616 64.1302 190.778 64.75L189.514 65.1146C189.389 64.746 189.182 64.4604 188.895 64.2578C188.611 64.0512 188.285 63.9479 187.916 63.9479C187.499 63.9479 187.157 64.0472 186.889 64.2457C186.622 64.4401 186.424 64.7075 186.294 65.0478C186.164 65.388 186.097 65.7769 186.093 66.2144C186.097 66.891 186.251 67.4378 186.555 67.8551C186.863 68.2723 187.317 68.481 187.916 68.481C188.325 68.481 188.656 68.3878 188.907 68.2014C189.162 68.011 189.356 67.7396 189.49 67.3872L190.778 67.691C190.564 68.3311 190.209 68.8233 189.715 69.1676C189.221 69.5079 188.621 69.678 187.916 69.678ZM192.385 61.8576V60.6241H193.655V61.8576H192.385ZM192.385 69.4957V62.9331H193.655V69.4957H192.385ZM200.511 69.4957V66.2691C200.511 66.0139 200.489 65.7526 200.444 65.4853C200.404 65.2138 200.323 64.9627 200.201 64.7318C200.084 64.5009 199.916 64.3145 199.697 64.1727C199.482 64.031 199.201 63.9601 198.852 63.9601C198.625 63.9601 198.411 63.9986 198.208 64.0755C198.006 64.1484 197.827 64.2679 197.673 64.434C197.524 64.6001 197.404 64.8189 197.315 65.0903C197.23 65.3617 197.187 65.6919 197.187 66.0808L196.397 65.783C196.397 65.1875 196.509 64.6629 196.732 64.2092C196.954 63.7514 197.274 63.395 197.692 63.1397C198.109 62.8845 198.613 62.7569 199.205 62.7569C199.658 62.7569 200.039 62.8298 200.347 62.9757C200.655 63.1215 200.904 63.3139 201.094 63.5529C201.289 63.7879 201.437 64.0451 201.538 64.3247C201.639 64.6042 201.708 64.8776 201.745 65.145C201.781 65.4123 201.799 65.6473 201.799 65.8499V69.4957H200.511ZM195.899 69.4957V62.9331H197.035V64.829H197.187V69.4957H195.899ZM206.511 72.5947C206.159 72.5947 205.817 72.54 205.485 72.4307C205.156 72.3213 204.857 72.1592 204.585 71.9445C204.314 71.7339 204.089 71.4726 203.911 71.1607L205.083 70.5652C205.225 70.8447 205.428 71.0493 205.691 71.1789C205.954 71.3085 206.232 71.3734 206.524 71.3734C206.884 71.3734 207.192 71.3085 207.447 71.1789C207.702 71.0533 207.895 70.8629 208.024 70.6077C208.158 70.3525 208.223 70.0365 208.219 69.6598V67.8247H208.371V62.9331H209.495V69.6719C209.495 69.8461 209.489 70.0122 209.477 70.1702C209.465 70.3282 209.442 70.4862 209.41 70.6442C209.317 71.0857 209.138 71.4503 208.875 71.7379C208.616 72.0256 208.284 72.2403 207.879 72.382C207.478 72.5238 207.022 72.5947 206.511 72.5947ZM206.414 69.678C205.803 69.678 205.274 69.5261 204.828 69.2223C204.387 68.9185 204.044 68.5053 203.801 67.9827C203.562 67.4561 203.443 66.8646 203.443 66.2084C203.443 65.5481 203.564 64.9586 203.807 64.4401C204.05 63.9175 204.395 63.5064 204.84 63.2066C205.29 62.9028 205.823 62.7509 206.439 62.7509C207.058 62.7509 207.579 62.9028 208 63.2066C208.426 63.5064 208.746 63.9175 208.96 64.4401C209.179 64.9627 209.288 65.5521 209.288 66.2084C209.288 66.8646 209.179 67.454 208.96 67.9766C208.741 68.4992 208.419 68.9144 207.994 69.2223C207.569 69.5261 207.042 69.678 206.414 69.678ZM206.59 68.5296C207.008 68.5296 207.348 68.4303 207.611 68.2318C207.875 68.0333 208.067 67.7599 208.189 67.4115C208.31 67.0631 208.371 66.6621 208.371 66.2084C208.371 65.7547 208.308 65.3536 208.182 65.0052C208.061 64.6568 207.871 64.3854 207.611 64.191C207.356 63.9965 207.03 63.8993 206.633 63.8993C206.212 63.8993 205.865 64.0026 205.594 64.2092C205.322 64.4158 205.12 64.6933 204.986 65.0417C204.857 65.3901 204.792 65.779 204.792 66.2084C204.792 66.6418 204.857 67.0348 204.986 67.3872C205.12 67.7356 205.318 68.0131 205.582 68.2197C205.849 68.4263 206.185 68.5296 206.59 68.5296ZM214.485 69.4957V60.7456H217.225C217.306 60.7456 217.456 60.7476 217.675 60.7517C217.898 60.7557 218.11 60.772 218.313 60.8003C218.998 60.8854 219.573 61.1305 220.039 61.5356C220.509 61.9407 220.863 62.4551 221.102 63.079C221.341 63.6988 221.461 64.3793 221.461 65.1207C221.461 65.8661 221.341 66.5507 221.102 67.1745C220.863 67.7943 220.509 68.3068 220.039 68.7119C219.573 69.1129 218.998 69.356 218.313 69.441C218.11 69.4694 217.898 69.4856 217.675 69.4897C217.456 69.4937 217.306 69.4957 217.225 69.4957H214.485ZM215.785 68.2865H217.225C217.363 68.2865 217.527 68.2825 217.718 68.2744C217.908 68.2663 218.076 68.2501 218.222 68.2257C218.668 68.1407 219.028 67.9483 219.304 67.6485C219.583 67.3447 219.788 66.972 219.917 66.5304C220.047 66.0889 220.112 65.6189 220.112 65.1207C220.112 64.6062 220.045 64.1302 219.911 63.6927C219.777 63.2511 219.571 62.8825 219.291 62.5868C219.016 62.287 218.659 62.0966 218.222 62.0156C218.076 61.9872 217.906 61.971 217.711 61.967C217.521 61.9589 217.359 61.9548 217.225 61.9548H215.785V68.2865ZM223.422 61.8576V60.6241H224.692V61.8576H223.422ZM223.422 69.4957V62.9331H224.692V69.4957H223.422ZM228.717 69.4957L226.335 62.9331H227.617L229.361 67.9037L231.105 62.9331H232.387L230.005 69.4957H228.717ZM236.581 69.678C235.928 69.678 235.355 69.5362 234.861 69.2527C234.371 68.965 233.988 68.566 233.712 68.0556C233.441 67.5411 233.305 66.9456 233.305 66.2691C233.305 65.5521 233.439 64.9303 233.706 64.4037C233.978 63.877 234.355 63.4699 234.837 63.1823C235.319 62.8947 235.88 62.7509 236.52 62.7509C237.188 62.7509 237.757 62.9068 238.227 63.2187C238.697 63.5266 239.048 63.9661 239.278 64.5373C239.513 65.1085 239.607 65.7871 239.558 66.5729H238.288V66.1111C238.28 65.3496 238.134 64.7865 237.85 64.4219C237.571 64.0573 237.144 63.875 236.568 63.875C235.932 63.875 235.454 64.0755 235.134 64.4766C234.814 64.8776 234.654 65.4569 234.654 66.2144C234.654 66.9355 234.814 67.4945 235.134 67.8915C235.454 68.2845 235.916 68.481 236.52 68.481C236.917 68.481 237.259 68.3918 237.547 68.2136C237.838 68.0313 238.065 67.772 238.227 67.4358L239.473 67.8308C239.218 68.4182 238.831 68.8739 238.312 69.198C237.794 69.518 237.217 69.678 236.581 69.678ZM234.241 66.5729V65.5825H238.926V66.5729H234.241ZM241.347 69.4957V62.9331H242.477V64.5252L242.319 64.3186C242.4 64.1079 242.505 63.9155 242.635 63.7413C242.764 63.5631 242.914 63.4172 243.084 63.3038C243.251 63.1823 243.435 63.0891 243.637 63.0243C243.844 62.9554 244.055 62.9149 244.269 62.9028C244.484 62.8866 244.691 62.8967 244.889 62.9331V64.1241C244.675 64.0674 244.435 64.0512 244.172 64.0755C243.913 64.0998 243.674 64.1829 243.455 64.3247C243.249 64.4583 243.084 64.6204 242.963 64.8108C242.845 65.0012 242.76 65.2138 242.708 65.4488C242.655 65.6797 242.629 65.9248 242.629 66.1841V69.4957H241.347ZM248.744 69.6719C247.946 69.6719 247.296 69.4957 246.793 69.1433C246.291 68.7909 245.983 68.2946 245.87 67.6546L247.17 67.454C247.251 67.7943 247.438 68.0637 247.729 68.2622C248.025 68.4567 248.392 68.5539 248.829 68.5539C249.226 68.5539 249.536 68.4729 249.759 68.3108C249.986 68.1488 250.099 67.926 250.099 67.6424C250.099 67.4763 250.059 67.3426 249.977 67.2414C249.901 67.136 249.736 67.0368 249.485 66.9436C249.234 66.8504 248.851 66.735 248.337 66.5973C247.774 66.4514 247.326 66.2955 246.994 66.1294C246.666 65.9592 246.431 65.7628 246.289 65.54C246.151 65.3131 246.082 65.0397 246.082 64.7196C246.082 64.3226 246.188 63.9763 246.398 63.6806C246.609 63.3848 246.905 63.156 247.286 62.9939C247.67 62.8319 248.12 62.7509 248.635 62.7509C249.137 62.7509 249.585 62.8298 249.977 62.9878C250.37 63.1458 250.688 63.3707 250.931 63.6623C251.175 63.9499 251.32 64.2882 251.369 64.6771L250.069 64.9141C250.024 64.5981 249.876 64.349 249.625 64.1667C249.374 63.9844 249.048 63.8851 248.647 63.8689C248.262 63.8527 247.95 63.9175 247.711 64.0634C247.472 64.2052 247.352 64.4016 247.352 64.6528C247.352 64.7986 247.397 64.9222 247.486 65.0235C247.579 65.1247 247.758 65.2219 248.021 65.3151C248.284 65.4083 248.673 65.5197 249.188 65.6493C249.738 65.7911 250.176 65.9491 250.5 66.1233C250.824 66.2934 251.055 66.498 251.193 66.737C251.335 66.972 251.405 67.2576 251.405 67.5938C251.405 68.242 251.168 68.7503 250.695 69.119C250.225 69.4876 249.574 69.6719 248.744 69.6719ZM253.297 61.8576V60.6241H254.567V61.8576H253.297ZM253.297 69.4957V62.9331H254.567V69.4957H253.297ZM260.572 69.4957C260.159 69.5767 259.754 69.6112 259.357 69.599C258.96 69.5869 258.605 69.5099 258.294 69.3681C257.982 69.2263 257.747 69.0035 257.589 68.6997C257.447 68.4283 257.37 68.1528 257.358 67.8733C257.35 67.5897 257.346 67.2697 257.346 66.9132V61.1102H258.622V66.8525C258.622 67.1158 258.624 67.3447 258.628 67.5391C258.636 67.7336 258.678 67.8976 258.755 68.0313C258.901 68.2825 259.132 68.4263 259.448 68.4627C259.768 68.4951 260.143 68.481 260.572 68.4202V69.4957ZM256.088 63.954V62.9331H260.572V63.954H256.088ZM263.09 72.4124L264.36 68.9549L264.379 69.9758L261.517 62.9331H262.841L264.98 68.3716H264.591L266.633 62.9331H267.921L264.3 72.4124H263.09Z" fill="#DEE1FE"/>
</svg>
