<svg width="253" height="68" viewBox="0 0 253 68" fill="none" xmlns="http://www.w3.org/2000/svg">
<path d="M174.477 51.0731C172.474 51.0731 170.355 50.8635 168.119 50.4443C165.883 50.0251 163.88 49.3031 162.11 48.2784C161.365 47.8126 160.829 47.277 160.503 46.6715C160.224 46.0194 160.107 45.3906 160.154 44.785C160.247 44.1329 160.48 43.574 160.853 43.1082C161.272 42.6424 161.784 42.3397 162.39 42.1999C163.042 42.0602 163.741 42.1767 164.486 42.5493C166.349 43.4343 168.096 44.0631 169.726 44.4357C171.356 44.7618 172.963 44.9248 174.547 44.9248C176.782 44.9248 178.436 44.5521 179.507 43.8069C180.625 43.0151 181.184 41.9903 181.184 40.7327C181.184 39.6614 180.812 38.8463 180.066 38.2874C179.368 37.6819 178.296 37.2394 176.852 36.9599L169.866 35.6324C166.978 35.0735 164.765 34.0254 163.228 32.4884C161.738 30.9047 160.992 28.8786 160.992 26.4099C160.992 24.1741 161.598 22.2411 162.809 20.6109C164.067 18.9807 165.79 17.723 167.979 16.8381C170.168 15.9531 172.684 15.5106 175.525 15.5106C177.574 15.5106 179.484 15.7435 181.254 16.2093C183.071 16.6285 184.817 17.3038 186.494 18.2354C187.193 18.608 187.658 19.0971 187.891 19.7026C188.171 20.3081 188.241 20.9369 188.101 21.589C187.961 22.1946 187.682 22.7535 187.263 23.2659C186.843 23.7316 186.308 24.0344 185.656 24.1741C185.05 24.2673 184.351 24.1276 183.56 23.7549C182.116 23.0097 180.718 22.474 179.368 22.148C178.063 21.8219 176.806 21.6589 175.595 21.6589C173.312 21.6589 171.612 22.0548 170.494 22.8467C169.423 23.6385 168.887 24.6865 168.887 25.9907C168.887 26.9688 169.214 27.784 169.866 28.4361C170.518 29.0882 171.519 29.5306 172.87 29.7635L179.857 31.091C182.884 31.65 185.167 32.6747 186.704 34.1652C188.287 35.6557 189.079 37.6586 189.079 40.1738C189.079 43.574 187.752 46.2523 185.097 48.2085C182.442 50.1183 178.902 51.0731 174.477 51.0731Z" fill="url(#paint0_linear_47_906)"/>
<path d="M139.423 50.9334C137.979 50.9334 136.861 50.5608 136.069 49.8155C135.324 49.0237 134.952 47.9058 134.952 46.4619V20.052C134.952 18.608 135.324 17.5134 136.069 16.7682C136.815 16.0229 137.863 15.6503 139.213 15.6503C140.564 15.6503 141.612 16.0229 142.357 16.7682C143.103 17.5134 143.475 18.608 143.475 20.052V24.4536H142.777C143.429 21.6589 144.71 19.5396 146.619 18.0957C148.529 16.6517 151.068 15.79 154.235 15.5106C155.213 15.4174 155.982 15.6736 156.541 16.2791C157.146 16.8381 157.495 17.723 157.589 18.9341C157.682 20.0985 157.402 21.0534 156.75 21.7986C156.145 22.4973 155.213 22.9165 153.955 23.0563L152.418 23.196C149.577 23.4755 147.435 24.3605 145.991 25.851C144.547 27.2949 143.825 29.3443 143.825 31.9993V46.4619C143.825 47.9058 143.452 49.0237 142.707 49.8155C141.962 50.5608 140.867 50.9334 139.423 50.9334Z" fill="url(#paint1_linear_47_906)"/>
<path d="M113.922 51.0731C110.056 51.0731 106.726 50.3512 103.931 48.9072C101.136 47.4633 98.9703 45.4139 97.4333 42.7589C95.9427 40.1039 95.1975 36.9599 95.1975 33.3268C95.1975 29.7868 95.9195 26.6894 97.3634 24.0344C98.8539 21.3794 100.88 19.3067 103.442 17.8162C106.05 16.2791 109.008 15.5106 112.315 15.5106C114.737 15.5106 116.903 15.9065 118.813 16.6983C120.769 17.4902 122.423 18.6313 123.773 20.1218C125.171 21.6123 126.219 23.4289 126.917 25.5715C127.663 27.6675 128.035 30.043 128.035 32.698C128.035 33.5364 127.732 34.1885 127.127 34.6543C126.568 35.0735 125.753 35.2831 124.682 35.2831H102.254V30.2526H121.887L120.769 31.3006C120.769 29.158 120.443 27.3648 119.791 25.9208C119.185 24.4769 118.277 23.3823 117.066 22.6371C115.902 21.8452 114.434 21.4493 112.664 21.4493C110.708 21.4493 109.031 21.9151 107.634 22.8467C106.283 23.7316 105.235 25.0126 104.49 26.6894C103.791 28.3196 103.442 30.2759 103.442 32.5582V33.0473C103.442 36.8667 104.327 39.7313 106.097 41.641C107.913 43.5041 110.568 44.4357 114.062 44.4357C115.273 44.4357 116.624 44.296 118.114 44.0165C119.651 43.6905 121.095 43.1548 122.446 42.4095C123.424 41.8506 124.286 41.6177 125.031 41.7109C125.776 41.7575 126.358 42.0136 126.778 42.4794C127.243 42.9452 127.523 43.5274 127.616 44.2261C127.709 44.8782 127.569 45.5536 127.197 46.2523C126.871 46.9509 126.289 47.5565 125.45 48.0688C123.82 49.0935 121.933 49.8621 119.791 50.3744C117.695 50.8402 115.739 51.0731 113.922 51.0731Z" fill="url(#paint2_linear_47_906)"/>
<path d="M74.7558 50.9334C73.5913 50.9334 72.5666 50.6306 71.6816 50.0251C70.8432 49.4196 70.1445 48.488 69.5856 47.2304L58.4767 21.4493C58.0575 20.4246 57.8944 19.4697 57.9876 18.5847C58.1273 17.6998 58.5465 17.0011 59.2452 16.4887C59.9905 15.9298 60.9919 15.6503 62.2495 15.6503C63.3208 15.6503 64.1825 15.9065 64.8346 16.4189C65.4867 16.8846 66.0689 17.7929 66.5813 19.1437L76.0134 42.689H73.9174L83.629 19.0738C84.1413 17.7696 84.7235 16.8846 85.3756 16.4189C86.0743 15.9065 87.0059 15.6503 88.1703 15.6503C89.1951 15.6503 90.0102 15.9298 90.6157 16.4887C91.2212 17.0011 91.5939 17.6998 91.7336 18.5847C91.8733 19.4232 91.7103 20.3547 91.2445 21.3794L79.926 47.2304C79.4136 48.488 78.7149 49.4196 77.83 50.0251C76.9915 50.6306 75.9668 50.9334 74.7558 50.9334Z" fill="url(#paint3_linear_47_906)"/>
<path d="M47.4458 50.8635C46.0485 50.8635 44.9772 50.4443 44.2319 49.6059C43.4866 48.7675 43.114 47.603 43.114 46.1125V20.4712C43.114 18.9341 43.4866 17.7696 44.2319 16.9778C44.9772 16.1394 46.0485 15.7202 47.4458 15.7202C48.8432 15.7202 49.9145 16.1394 50.6597 16.9778C51.4515 17.7696 51.8475 18.9341 51.8475 20.4712V46.1125C51.8475 47.603 51.4748 48.7675 50.7296 49.6059C49.9843 50.4443 48.8897 50.8635 47.4458 50.8635ZM47.4458 9.2225C45.8156 9.2225 44.5347 8.82659 43.6031 8.03476C42.7181 7.19635 42.2756 6.05518 42.2756 4.61125C42.2756 3.12074 42.7181 1.97958 43.6031 1.18774C44.5347 0.395915 45.8156 0 47.4458 0C49.1226 0 50.4035 0.395915 51.2885 1.18774C52.1735 1.97958 52.616 3.12074 52.616 4.61125C52.616 6.05518 52.1735 7.19635 51.2885 8.03476C50.4035 8.82659 49.1226 9.2225 47.4458 9.2225Z" fill="url(#paint4_linear_47_906)"/>
<path d="M240.787 50.9334C242.23 50.9334 243.348 50.5375 244.14 49.7456C244.885 48.9072 245.258 47.7661 245.258 46.3221V5.17019C245.258 3.67969 244.885 2.53852 244.14 1.74668C243.348 0.954853 242.23 0.558937 240.787 0.558937C239.343 0.558937 238.248 0.954853 237.503 1.74668C236.711 2.53852 236.315 3.67969 236.315 5.17019V46.3221C236.315 47.7661 236.688 48.9072 237.433 49.7456C238.178 50.5375 239.296 50.9334 240.787 50.9334Z" fill="url(#paint5_linear_47_906)"/>
<path d="M10.2647 30.4855C8.63443 30.4855 7.35353 30.0896 6.42196 29.2978C5.53697 28.4593 5.09448 27.3182 5.09448 25.8742C5.09448 24.3837 5.53697 23.2426 6.42196 22.4507C7.35353 21.6589 8.63443 21.263 10.2647 21.263C11.9415 21.263 13.2224 21.6589 14.1074 22.4507C14.9924 23.2426 15.4349 24.3837 15.4349 25.8742C15.4349 27.3182 14.9924 28.4593 14.1074 29.2978C13.2224 30.0896 11.9415 30.4855 10.2647 30.4855Z" fill="url(#paint6_linear_47_906)"/>
<path fill-rule="evenodd" clip-rule="evenodd" d="M2.18336 50.1416C0.97752 50.1416 0 49.164 0 47.9582V44.919C0 43.7131 0.977523 42.7356 2.18336 42.7356H8.8033C11.6912 42.7356 14.1831 42.3863 16.2791 41.6876C18.4217 40.9423 20.1917 39.871 21.589 38.4737C23.033 37.0298 24.1043 35.2365 24.8029 33.0939C25.5016 30.9047 25.851 28.3662 25.851 25.4783C25.851 19.7026 24.4303 15.3941 21.589 12.5529C18.7478 9.71158 14.4859 8.29094 8.8033 8.29094H2.18336C0.977523 8.29094 0 7.31342 0 6.10758V3.06835C0 1.86251 0.977523 0.884989 2.18336 0.884989H9.36224C17.6066 0.884989 23.9645 3.0043 28.4361 7.24293C32.9542 11.4816 35.2132 17.56 35.2132 25.4783C35.2132 29.4375 34.631 32.9542 33.4665 36.0283C32.3486 39.0559 30.6718 41.6177 28.4361 43.7137C26.2469 45.8098 23.5453 47.4167 20.3314 48.5346C17.1641 49.6059 13.5077 50.1416 9.36224 50.1416H2.18336Z" fill="url(#paint7_linear_47_906)"/>
<path fill-rule="evenodd" clip-rule="evenodd" d="M228.804 50.1416C230.01 50.1416 230.988 49.164 230.988 47.9582V44.919C230.988 43.7131 230.01 42.7356 228.804 42.7356H222.184C219.296 42.7356 216.805 42.3863 214.708 41.6876C212.566 40.9423 210.796 39.871 209.399 38.4737C207.955 37.0298 206.883 35.2365 206.185 33.0939C205.486 30.9047 205.137 28.3662 205.137 25.4783C205.137 19.7026 206.557 15.3941 209.399 12.5529C212.24 9.71158 216.502 8.29094 222.184 8.29094H228.804C230.01 8.29094 230.988 7.31342 230.988 6.10758V3.06835C230.988 1.86251 230.01 0.884989 228.804 0.884989H221.625C213.381 0.884989 207.023 3.0043 202.552 7.24293C198.033 11.4816 195.774 17.56 195.774 25.4783C195.774 29.4375 196.357 32.9542 197.521 36.0283C198.639 39.0559 200.316 41.6177 202.552 43.7137C204.741 45.8098 207.442 47.4167 210.656 48.5346C213.823 49.6059 217.48 50.1416 221.625 50.1416H228.804Z" fill="url(#paint8_linear_47_906)"/>
<path d="M221.451 30.4855C223.081 30.4855 224.362 30.0896 225.293 29.2978C226.178 28.4593 226.621 27.3182 226.621 25.8742C226.621 24.3837 226.178 23.2426 225.293 22.4507C224.362 21.6589 223.081 21.263 221.451 21.263C219.774 21.263 218.493 21.6589 217.608 22.4507C216.723 23.2426 216.281 24.3837 216.281 25.8742C216.281 27.3182 216.723 28.4593 217.608 29.2978C218.493 30.0896 219.774 30.4855 221.451 30.4855Z" fill="url(#paint9_linear_47_906)"/>
<path d="M0.780947 63.9451V55.9125H5.91288V57.0114H1.94679V59.265H5.2435V60.3639H1.94679V62.8462H5.91288V63.9451H0.780947ZM14.8612 63.9451L14.8668 60.1909C14.8668 59.7558 14.7552 59.4174 14.5321 59.1757C14.3089 58.9303 14.0151 58.8076 13.6507 58.8076C13.4276 58.8076 13.223 58.8596 13.0371 58.9637C12.8549 59.0642 12.7061 59.2166 12.5909 59.4212C12.4793 59.622 12.4235 59.8748 12.4235 60.1798L11.8601 59.8953C11.8527 59.4714 11.9419 59.0995 12.1279 58.7797C12.3175 58.4598 12.5741 58.2125 12.8977 58.0378C13.2212 57.8593 13.5838 57.77 13.9854 57.77C14.6362 57.77 15.1401 57.9652 15.4971 58.3557C15.8541 58.7462 16.0326 59.265 16.0326 59.912L16.027 63.9451H14.8612ZM7.63742 63.9451V57.9206H8.67496V59.661H8.80884V63.9451H7.63742ZM11.2521 63.9451L11.2577 60.2133C11.2577 59.7744 11.1461 59.4305 10.923 59.1813C10.7036 58.9321 10.4079 58.8076 10.036 58.8076C9.66788 58.8076 9.37037 58.934 9.14353 59.1869C8.9204 59.4397 8.80884 59.7707 8.80884 60.1798L8.25102 59.8228C8.25102 59.4286 8.34585 59.0772 8.5355 58.7685C8.72516 58.4598 8.98176 58.2163 9.3053 58.0378C9.62883 57.8593 9.99513 57.77 10.4042 57.77C10.8319 57.77 11.1963 57.8611 11.4975 58.0433C11.7987 58.2218 12.0275 58.4729 12.1836 58.7964C12.3436 59.1199 12.4235 59.4955 12.4235 59.9232L12.4179 63.9451H11.2521ZM20.6997 64.1124C20.1233 64.1124 19.6399 63.973 19.2494 63.694C18.8589 63.4114 18.5633 63.0302 18.3624 62.5505C18.1616 62.0708 18.0612 61.5297 18.0612 60.9273C18.0612 60.3248 18.1598 59.7837 18.3569 59.304C18.5577 58.8243 18.8515 58.4468 19.2382 58.1716C19.6287 57.8927 20.1084 57.7533 20.6774 57.7533C21.2427 57.7533 21.7298 57.8927 22.1389 58.1716C22.5517 58.4468 22.8696 58.8243 23.0928 59.304C23.3159 59.78 23.4274 60.3211 23.4274 60.9273C23.4274 61.5297 23.3159 62.0727 23.0928 62.5561C22.8733 63.0358 22.5591 63.4151 22.15 63.694C21.7447 63.973 21.2612 64.1124 20.6997 64.1124ZM17.866 66.6226V57.9206H18.9035V62.2549H19.0374V66.6226H17.866ZM20.5379 63.0581C20.9098 63.0581 21.2166 62.9633 21.4583 62.7736C21.7038 62.584 21.886 62.3293 22.005 62.0094C22.1277 61.6859 22.1891 61.3252 22.1891 60.9273C22.1891 60.5331 22.1277 60.1761 22.005 59.8563C21.886 59.5364 21.7019 59.2817 21.4528 59.092C21.2036 58.9024 20.8856 58.8076 20.4989 58.8076C20.1345 58.8076 19.8332 58.8968 19.5952 59.0753C19.3609 59.2538 19.1862 59.503 19.0709 59.8228C18.9593 60.1426 18.9035 60.5108 18.9035 60.9273C18.9035 61.3438 18.9593 61.7119 19.0709 62.0317C19.1824 62.3516 19.3591 62.6026 19.6008 62.7848C19.8425 62.967 20.1549 63.0581 20.5379 63.0581ZM27.6657 64.1124C27.0633 64.1124 26.5408 63.9767 26.0983 63.7052C25.6557 63.4337 25.3136 63.06 25.0719 62.584C24.8339 62.1043 24.7149 61.552 24.7149 60.9273C24.7149 60.2988 24.8376 59.7465 25.083 59.2705C25.3285 58.7908 25.6725 58.4189 26.115 58.1549C26.5575 57.8872 27.0745 57.7533 27.6657 57.7533C28.2682 57.7533 28.7907 57.889 29.2332 58.1605C29.6757 58.432 30.0179 58.8057 30.2596 59.2817C30.5013 59.7577 30.6222 60.3062 30.6222 60.9273C30.6222 61.5557 30.4995 62.1098 30.254 62.5896C30.0123 63.0656 29.6702 63.4393 29.2276 63.7108C28.7851 63.9785 28.2645 64.1124 27.6657 64.1124ZM27.6657 63.0135C28.2422 63.0135 28.6717 62.8201 28.9543 62.4334C29.2406 62.0429 29.3838 61.5409 29.3838 60.9273C29.3838 60.2988 29.2388 59.7968 28.9487 59.4212C28.6624 59.0418 28.2347 58.8522 27.6657 58.8522C27.2753 58.8522 26.9536 58.9414 26.7007 59.1199C26.4478 59.2947 26.26 59.5383 26.1373 59.8507C26.0146 60.1593 25.9532 60.5182 25.9532 60.9273C25.9532 61.5595 26.0983 62.0652 26.3883 62.4445C26.6784 62.8239 27.1042 63.0135 27.6657 63.0135ZM33.3035 63.9451L31.4627 57.915L32.6174 57.9206L33.8781 62.0541L35.1499 57.9206H36.154L37.4258 62.0541L38.6865 57.9206H39.8356L37.9948 63.9451H37.0577L35.652 59.5829L34.2407 63.9451H33.3035ZM43.6791 64.1124C43.0803 64.1124 42.5541 63.9823 42.1004 63.7219C41.6505 63.4579 41.299 63.0916 41.0462 62.623C40.797 62.1507 40.6724 61.6041 40.6724 60.983C40.6724 60.3248 40.7951 59.754 41.0406 59.2705C41.2897 58.7871 41.6356 58.4134 42.0781 58.1493C42.5207 57.8853 43.0357 57.7533 43.6233 57.7533C44.2369 57.7533 44.7594 57.8964 45.1908 58.1828C45.6221 58.4654 45.9438 58.8689 46.1558 59.3933C46.3715 59.9176 46.457 60.5405 46.4124 61.262H45.2465V60.838C45.2391 60.1389 45.1052 59.622 44.8449 59.2873C44.5883 58.9526 44.196 58.7852 43.6679 58.7852C43.0841 58.7852 42.6452 58.9693 42.3515 59.3375C42.0577 59.7056 41.9108 60.2374 41.9108 60.9328C41.9108 61.5948 42.0577 62.108 42.3515 62.4724C42.6452 62.8331 43.0692 63.0135 43.6233 63.0135C43.9877 63.0135 44.302 62.9317 44.566 62.7681C44.8338 62.6007 45.042 62.3627 45.1908 62.0541L46.3343 62.4166C46.1 62.9559 45.7449 63.3742 45.2689 63.6717C44.7928 63.9655 44.2629 64.1124 43.6791 64.1124ZM41.5315 61.262V60.3527H45.8323V61.262H41.5315ZM48.0544 63.9451V57.9206H49.0919V59.3821L48.9469 59.1924C49.0213 58.9991 49.118 58.8224 49.237 58.6625C49.356 58.4989 49.4936 58.365 49.6497 58.2609C49.8022 58.1493 49.9714 58.0638 50.1574 58.0043C50.347 57.9411 50.5404 57.9039 50.7375 57.8927C50.9346 57.8779 51.1242 57.8872 51.3065 57.9206V59.0139C51.1094 58.9619 50.89 58.947 50.6482 58.9693C50.4102 58.9916 50.1908 59.0679 49.99 59.198C49.8004 59.3207 49.6497 59.4695 49.5382 59.6443C49.4303 59.8191 49.3522 60.0143 49.3039 60.23C49.2555 60.442 49.2314 60.667 49.2314 60.905V63.9451H48.0544ZM52.8708 56.9333V55.8009H54.0366V56.9333H52.8708ZM52.8708 63.9451V57.9206H54.0366V63.9451H52.8708ZM60.3305 63.9451V60.983C60.3305 60.7488 60.31 60.5089 60.2691 60.2635C60.2319 60.0143 60.1576 59.7837 60.046 59.5718C59.9382 59.3598 59.7838 59.1887 59.583 59.0586C59.3859 58.9284 59.1275 58.8633 58.8077 58.8633C58.5994 58.8633 58.4023 58.8987 58.2164 58.9693C58.0304 59.0363 57.8668 59.146 57.7255 59.2984C57.5879 59.4509 57.4782 59.6517 57.3964 59.9009C57.3183 60.15 57.2792 60.4531 57.2792 60.8101L56.5541 60.5368C56.5541 59.9901 56.6563 59.5085 56.8609 59.092C57.0654 58.6718 57.3592 58.3446 57.7422 58.1103C58.1253 57.876 58.5882 57.7589 59.1312 57.7589C59.5477 57.7589 59.8973 57.8258 60.1799 57.9597C60.4625 58.0935 60.6912 58.2702 60.866 58.4896C61.0445 58.7053 61.1802 58.9414 61.2732 59.198C61.3662 59.4546 61.4294 59.7056 61.4629 59.9511C61.4963 60.1965 61.5131 60.4122 61.5131 60.5982V63.9451H60.3305ZM56.0967 63.9451V57.9206H57.1398V59.661H57.2792V63.9451H56.0967ZM65.8388 66.7899C65.5152 66.7899 65.201 66.7397 64.8961 66.6393C64.5948 66.5389 64.3197 66.3902 64.0705 66.1931C63.8213 65.9997 63.6149 65.7598 63.4513 65.4735L64.5279 64.9268C64.6581 65.1834 64.844 65.3712 65.0857 65.4902C65.3275 65.6092 65.5822 65.6687 65.8499 65.6687C66.1809 65.6687 66.4635 65.6092 66.6978 65.4902C66.9321 65.3749 67.1088 65.2002 67.2278 64.9659C67.3505 64.7316 67.41 64.4415 67.4063 64.0957V62.4111H67.5457V57.9206H68.5777V64.1068C68.5777 64.2667 68.5721 64.4192 68.5609 64.5642C68.5498 64.7093 68.5293 64.8543 68.4996 64.9993C68.4141 65.4047 68.2504 65.7394 68.0087 66.0034C67.7707 66.2675 67.4658 66.4646 67.0939 66.5947C66.7257 66.7249 66.3074 66.7899 65.8388 66.7899ZM65.7495 64.1124C65.188 64.1124 64.7027 63.973 64.2936 63.694C63.8883 63.4151 63.574 63.0358 63.3509 62.5561C63.1315 62.0727 63.0218 61.5297 63.0218 60.9273C63.0218 60.3211 63.1334 59.78 63.3565 59.304C63.5796 58.8243 63.8957 58.4468 64.3048 58.1716C64.7176 57.8927 65.2066 57.7533 65.7718 57.7533C66.3408 57.7533 66.8187 57.8927 67.2054 58.1716C67.5959 58.4468 67.8897 58.8243 68.0868 59.304C68.2876 59.7837 68.388 60.3248 68.388 60.9273C68.388 61.5297 68.2876 62.0708 68.0868 62.5505C67.886 63.0302 67.5903 63.4114 67.1999 63.694C66.8094 63.973 66.3259 64.1124 65.7495 64.1124ZM65.9113 63.0581C66.2943 63.0581 66.6067 62.967 66.8484 62.7848C67.0902 62.6026 67.2668 62.3516 67.3784 62.0317C67.4899 61.7119 67.5457 61.3438 67.5457 60.9273C67.5457 60.5108 67.4881 60.1426 67.3728 59.8228C67.2612 59.503 67.0864 59.2538 66.8484 59.0753C66.6142 58.8968 66.3148 58.8076 65.9503 58.8076C65.5636 58.8076 65.2456 58.9024 64.9965 59.092C64.7473 59.2817 64.5614 59.5364 64.4387 59.8563C64.3197 60.1761 64.2602 60.5331 64.2602 60.9273C64.2602 61.3252 64.3197 61.6859 64.4387 62.0094C64.5614 62.3293 64.7436 62.584 64.9853 62.7736C65.2308 62.9633 65.5394 63.0581 65.9113 63.0581ZM73.27 63.9451V55.9125H74.4358V63.9451H73.27ZM78.8945 64.1124C78.3329 64.1124 77.8476 63.973 77.4385 63.694C77.0332 63.4151 76.719 63.0358 76.4958 62.5561C76.2764 62.0727 76.1667 61.5297 76.1667 60.9273C76.1667 60.3211 76.2783 59.78 76.5014 59.304C76.7245 58.8243 77.0406 58.4468 77.4497 58.1716C77.8625 57.8927 78.3515 57.7533 78.9168 57.7533C79.4857 57.7533 79.9636 57.8927 80.3504 58.1716C80.7408 58.4468 81.0346 58.8243 81.2317 59.304C81.4325 59.7837 81.5329 60.3248 81.5329 60.9273C81.5329 61.5297 81.4325 62.0708 81.2317 62.5505C81.0309 63.0302 80.7353 63.4114 80.3448 63.694C79.9543 63.973 79.4709 64.1124 78.8945 64.1124ZM79.0562 63.0581C79.4393 63.0581 79.7516 62.967 79.9934 62.7848C80.2351 62.6026 80.4117 62.3516 80.5233 62.0317C80.6349 61.7119 80.6906 61.3438 80.6906 60.9273C80.6906 60.5108 80.633 60.1426 80.5177 59.8228C80.4061 59.503 80.2314 59.2538 79.9934 59.0753C79.7591 58.8968 79.4597 58.8076 79.0953 58.8076C78.7085 58.8076 78.3906 58.9024 78.1414 59.092C77.8922 59.2817 77.7063 59.5364 77.5836 59.8563C77.4646 60.1761 77.4051 60.5331 77.4051 60.9273C77.4051 61.3252 77.4646 61.6859 77.5836 62.0094C77.7063 62.3293 77.8885 62.584 78.1302 62.7736C78.3757 62.9633 78.6843 63.0581 79.0562 63.0581ZM80.6906 63.9451V59.6108H80.5568V55.9125H81.7282V63.9451H80.6906ZM86.3514 64.1124C85.7526 64.1124 85.2264 63.9823 84.7727 63.7219C84.3228 63.4579 83.9713 63.0916 83.7185 62.623C83.4693 62.1507 83.3447 61.6041 83.3447 60.983C83.3447 60.3248 83.4674 59.754 83.7129 59.2705C83.962 58.7871 84.3079 58.4134 84.7504 58.1493C85.193 57.8853 85.708 57.7533 86.2956 57.7533C86.9092 57.7533 87.4317 57.8964 87.8631 58.1828C88.2944 58.4654 88.6161 58.8689 88.8281 59.3933C89.0438 59.9176 89.1293 60.5405 89.0847 61.262H87.9188V60.838C87.9114 60.1389 87.7775 59.622 87.5172 59.2873C87.2606 58.9526 86.8683 58.7852 86.3402 58.7852C85.7564 58.7852 85.3175 58.9693 85.0238 59.3375C84.73 59.7056 84.5831 60.2374 84.5831 60.9328C84.5831 61.5948 84.73 62.108 85.0238 62.4724C85.3175 62.8331 85.7415 63.0135 86.2956 63.0135C86.66 63.0135 86.9743 62.9317 87.2383 62.7681C87.5061 62.6007 87.7143 62.3627 87.8631 62.0541L89.0066 62.4166C88.7723 62.9559 88.4172 63.3742 87.9412 63.6717C87.4651 63.9655 86.9352 64.1124 86.3514 64.1124ZM84.2038 61.262V60.3527H88.5046V61.262H84.2038ZM94.7915 63.9451V60.983C94.7915 60.7488 94.7711 60.5089 94.7302 60.2635C94.693 60.0143 94.6186 59.7837 94.507 59.5718C94.3992 59.3598 94.2449 59.1887 94.044 59.0586C93.8469 58.9284 93.5885 58.8633 93.2687 58.8633C93.0604 58.8633 92.8633 58.8987 92.6774 58.9693C92.4914 59.0363 92.3278 59.146 92.1865 59.2984C92.0489 59.4509 91.9392 59.6517 91.8574 59.9009C91.7793 60.15 91.7402 60.4531 91.7402 60.8101L91.0151 60.5368C91.0151 59.9901 91.1174 59.5085 91.3219 59.092C91.5264 58.6718 91.8202 58.3446 92.2032 58.1103C92.5863 57.876 93.0493 57.7589 93.5922 57.7589C94.0087 57.7589 94.3583 57.8258 94.6409 57.9597C94.9235 58.0935 95.1522 58.2702 95.327 58.4896C95.5055 58.7053 95.6413 58.9414 95.7342 59.198C95.8272 59.4546 95.8904 59.7056 95.9239 59.9511C95.9574 60.1965 95.9741 60.4122 95.9741 60.5982V63.9451H94.7915ZM90.5577 63.9451V57.9206H91.6008V59.661H91.7402V63.9451H90.5577ZM101.265 63.9451C100.886 64.0194 100.514 64.0511 100.149 64.0399C99.7848 64.0287 99.4594 63.9581 99.173 63.8279C98.8867 63.6978 98.671 63.4932 98.5259 63.2143C98.3958 62.9652 98.3251 62.7123 98.314 62.4557C98.3065 62.1954 98.3028 61.9016 98.3028 61.5743V56.2472H99.4742V61.5186C99.4742 61.7603 99.4761 61.9704 99.4798 62.1489C99.4873 62.3274 99.5263 62.478 99.597 62.6007C99.7308 62.8313 99.9428 62.9633 100.233 62.9968C100.527 63.0265 100.871 63.0135 101.265 62.9577V63.9451ZM97.1481 58.8578V57.9206H101.265V58.8578H97.1481ZM103.037 56.9333V55.8009H104.203V56.9333H103.037ZM103.037 63.9451V57.9206H104.203V63.9451H103.037ZM109.716 63.9451C109.336 64.0194 108.965 64.0511 108.6 64.0399C108.236 64.0287 107.91 63.9581 107.624 63.8279C107.338 63.6978 107.122 63.4932 106.977 63.2143C106.847 62.9652 106.776 62.7123 106.765 62.4557C106.757 62.1954 106.754 61.9016 106.754 61.5743V56.2472H107.925V61.5186C107.925 61.7603 107.927 61.9704 107.931 62.1489C107.938 62.3274 107.977 62.478 108.048 62.6007C108.182 62.8313 108.394 62.9633 108.684 62.9968C108.978 63.0265 109.322 63.0135 109.716 62.9577V63.9451ZM105.599 58.8578V57.9206H109.716V58.8578H105.599ZM111.488 56.9333V55.8009H112.654V56.9333H111.488ZM111.488 63.9451V57.9206H112.654V63.9451H111.488ZM117.391 64.1124C116.793 64.1124 116.266 63.9823 115.813 63.7219C115.363 63.4579 115.011 63.0916 114.758 62.623C114.509 62.1507 114.385 61.6041 114.385 60.983C114.385 60.3248 114.507 59.754 114.753 59.2705C115.002 58.7871 115.348 58.4134 115.79 58.1493C116.233 57.8853 116.748 57.7533 117.336 57.7533C117.949 57.7533 118.472 57.8964 118.903 58.1828C119.334 58.4654 119.656 58.8689 119.868 59.3933C120.084 59.9176 120.169 60.5405 120.125 61.262H118.959V60.838C118.951 60.1389 118.818 59.622 118.557 59.2873C118.301 58.9526 117.908 58.7852 117.38 58.7852C116.796 58.7852 116.358 58.9693 116.064 59.3375C115.77 59.7056 115.623 60.2374 115.623 60.9328C115.623 61.5948 115.77 62.108 116.064 62.4724C116.358 62.8331 116.782 63.0135 117.336 63.0135C117.7 63.0135 118.014 62.9317 118.278 62.7681C118.546 62.6007 118.754 62.3627 118.903 62.0541L120.047 62.4166C119.812 62.9559 119.457 63.3742 118.981 63.6717C118.505 63.9655 117.975 64.1124 117.391 64.1124ZM115.244 61.262V60.3527H119.545V61.262H115.244ZM124.07 64.1068C123.338 64.1068 122.741 63.9451 122.28 63.6215C121.819 63.298 121.536 62.8424 121.432 62.2549L122.626 62.0708C122.7 62.3832 122.871 62.6305 123.139 62.8127C123.41 62.9912 123.747 63.0804 124.149 63.0804C124.513 63.0804 124.798 63.0061 125.002 62.8573C125.21 62.7086 125.314 62.504 125.314 62.2437C125.314 62.0912 125.277 61.9685 125.203 61.8756C125.132 61.7789 124.982 61.6878 124.751 61.6022C124.52 61.5167 124.169 61.4107 123.697 61.2843C123.18 61.1504 122.769 61.0072 122.464 60.8548C122.163 60.6986 121.947 60.5182 121.817 60.3137C121.69 60.1054 121.627 59.8544 121.627 59.5606C121.627 59.1962 121.724 58.8782 121.917 58.6067C122.111 58.3353 122.382 58.1252 122.732 57.9764C123.085 57.8277 123.498 57.7533 123.97 57.7533C124.431 57.7533 124.842 57.8258 125.203 57.9708C125.564 58.1159 125.856 58.3223 126.079 58.59C126.302 58.854 126.436 59.1646 126.48 59.5216L125.287 59.7391C125.246 59.449 125.11 59.2203 124.879 59.053C124.649 58.8856 124.349 58.7945 123.981 58.7797C123.628 58.7648 123.342 58.8243 123.122 58.9582C122.903 59.0883 122.793 59.2687 122.793 59.4992C122.793 59.6331 122.834 59.7465 122.916 59.8395C123.001 59.9325 123.165 60.0217 123.407 60.1073C123.648 60.1928 124.005 60.2951 124.478 60.4141C124.983 60.5442 125.385 60.6893 125.683 60.8492C125.98 61.0054 126.192 61.1932 126.318 61.4126C126.449 61.6283 126.514 61.8904 126.514 62.1991C126.514 62.7941 126.296 63.2608 125.861 63.5992C125.43 63.9376 124.833 64.1068 124.07 64.1068ZM128.027 65.2783L128.099 64.7595C128.259 64.7706 128.384 64.7409 128.473 64.6702C128.562 64.5996 128.622 64.501 128.652 64.3746C128.681 64.2482 128.687 64.105 128.668 63.9451H128.027V62.6007H129.26V64.0566C129.26 64.4954 129.154 64.8264 128.942 65.0496C128.733 65.2727 128.429 65.3489 128.027 65.2783ZM134.389 63.9451V55.9125H139.521V57.0114H135.555V59.265H138.851V60.3639H135.555V62.8462H139.521V63.9451H134.389ZM148.469 63.9451L148.474 60.1909C148.474 59.7558 148.363 59.4174 148.14 59.1757C147.917 58.9303 147.623 58.8076 147.258 58.8076C147.035 58.8076 146.831 58.8596 146.645 58.9637C146.463 59.0642 146.314 59.2166 146.199 59.4212C146.087 59.622 146.031 59.8748 146.031 60.1798L145.468 59.8953C145.46 59.4714 145.55 59.0995 145.736 58.7797C145.925 58.4598 146.182 58.2125 146.505 58.0378C146.829 57.8593 147.191 57.77 147.593 57.77C148.244 57.77 148.748 57.9652 149.105 58.3557C149.462 58.7462 149.64 59.265 149.64 59.912L149.635 63.9451H148.469ZM141.245 63.9451V57.9206H142.283V59.661H142.417V63.9451H141.245ZM144.86 63.9451L144.865 60.2133C144.865 59.7744 144.754 59.4305 144.531 59.1813C144.311 58.9321 144.016 58.8076 143.644 58.8076C143.276 58.8076 142.978 58.934 142.751 59.1869C142.528 59.4397 142.417 59.7707 142.417 60.1798L141.859 59.8228C141.859 59.4286 141.954 59.0772 142.143 58.7685C142.333 58.4598 142.589 58.2163 142.913 58.0378C143.237 57.8593 143.603 57.77 144.012 57.77C144.44 57.77 144.804 57.8611 145.105 58.0433C145.406 58.2218 145.635 58.4729 145.791 58.7964C145.951 59.1199 146.031 59.4955 146.031 59.9232L146.026 63.9451H144.86ZM154.307 64.1124C153.731 64.1124 153.248 63.973 152.857 63.694C152.467 63.4114 152.171 63.0302 151.97 62.5505C151.769 62.0708 151.669 61.5297 151.669 60.9273C151.669 60.3248 151.767 59.7837 151.965 59.304C152.165 58.8243 152.459 58.4468 152.846 58.1716C153.236 57.8927 153.716 57.7533 154.285 57.7533C154.85 57.7533 155.338 57.8927 155.747 58.1716C156.159 58.4468 156.477 58.8243 156.7 59.304C156.924 59.78 157.035 60.3211 157.035 60.9273C157.035 61.5297 156.924 62.0727 156.7 62.5561C156.481 63.0358 156.167 63.4151 155.758 63.694C155.352 63.973 154.869 64.1124 154.307 64.1124ZM151.474 63.9451V55.9125H152.645V59.6108H152.511V63.9451H151.474ZM154.146 63.0581C154.518 63.0581 154.824 62.9633 155.066 62.7736C155.311 62.584 155.494 62.3293 155.613 62.0094C155.735 61.6859 155.797 61.3252 155.797 60.9273C155.797 60.5331 155.735 60.1761 155.613 59.8563C155.494 59.5364 155.31 59.2817 155.06 59.092C154.811 58.9024 154.493 58.8076 154.107 58.8076C153.742 58.8076 153.441 58.8968 153.203 59.0753C152.969 59.2538 152.794 59.503 152.679 59.8228C152.567 60.1426 152.511 60.5108 152.511 60.9273C152.511 61.3438 152.567 61.7119 152.679 62.0317C152.79 62.3516 152.967 62.6026 153.209 62.7848C153.45 62.967 153.763 63.0581 154.146 63.0581ZM158.657 63.9451V57.9206H159.695V59.3821L159.55 59.1924C159.624 58.9991 159.721 58.8224 159.84 58.6625C159.959 58.4989 160.096 58.365 160.253 58.2609C160.405 58.1493 160.574 58.0638 160.76 58.0043C160.95 57.9411 161.143 57.9039 161.34 57.8927C161.537 57.8779 161.727 57.8872 161.909 57.9206V59.0139C161.712 58.9619 161.493 58.947 161.251 58.9693C161.013 58.9916 160.794 59.0679 160.593 59.198C160.403 59.3207 160.253 59.4695 160.141 59.6443C160.033 59.8191 159.955 60.0143 159.907 60.23C159.858 60.442 159.834 60.667 159.834 60.905V63.9451H158.657ZM164.889 64.1124C164.443 64.1124 164.069 64.0306 163.768 63.867C163.467 63.6996 163.238 63.4802 163.082 63.2087C162.929 62.9336 162.853 62.6323 162.853 62.3051C162.853 62.0001 162.907 61.7324 163.015 61.5018C163.123 61.2713 163.283 61.076 163.495 60.9161C163.707 60.7525 163.967 60.6205 164.276 60.5201C164.543 60.442 164.846 60.3732 165.185 60.3137C165.523 60.2542 165.878 60.1984 166.25 60.1463C166.626 60.0943 166.998 60.0422 167.366 59.9901L166.942 60.2244C166.949 59.7521 166.849 59.4026 166.641 59.1757C166.436 58.9451 166.083 58.8299 165.581 58.8299C165.265 58.8299 164.975 58.9042 164.711 59.053C164.447 59.198 164.263 59.4397 164.158 59.7782L163.071 59.4435C163.219 58.9266 163.502 58.5156 163.919 58.2107C164.339 57.9057 164.897 57.7533 165.592 57.7533C166.131 57.7533 166.6 57.8462 166.998 58.0322C167.399 58.2144 167.693 58.5045 167.879 58.9024C167.976 59.0995 168.035 59.3077 168.058 59.5271C168.08 59.7465 168.091 59.9827 168.091 60.2356V63.9451H167.059V62.5673L167.26 62.7458C167.011 63.2069 166.693 63.5509 166.306 63.7777C165.923 64.0009 165.451 64.1124 164.889 64.1124ZM165.096 63.1585C165.427 63.1585 165.711 63.1009 165.949 62.9856C166.187 62.8666 166.379 62.716 166.524 62.5338C166.669 62.3516 166.763 62.1619 166.808 61.9648C166.871 61.7863 166.907 61.5855 166.914 61.3624C166.925 61.1392 166.931 60.9607 166.931 60.8269L167.31 60.9663C166.942 61.0221 166.607 61.0723 166.306 61.1169C166.005 61.1616 165.731 61.2062 165.486 61.2508C165.244 61.2917 165.029 61.3419 164.839 61.4014C164.679 61.4572 164.536 61.5241 164.409 61.6022C164.287 61.6803 164.188 61.7752 164.114 61.8867C164.043 61.9983 164.008 62.134 164.008 62.2939C164.008 62.4501 164.047 62.5951 164.125 62.729C164.203 62.8592 164.322 62.9633 164.482 63.0414C164.642 63.1195 164.846 63.1585 165.096 63.1585ZM172.507 64.1124C171.89 64.1124 171.365 63.9748 170.934 63.6996C170.503 63.4244 170.172 63.047 169.941 62.5673C169.714 62.0875 169.599 61.5427 169.595 60.9328C169.599 60.3118 169.718 59.7633 169.952 59.2873C170.187 58.8076 170.521 58.432 170.956 58.1605C171.392 57.889 171.914 57.7533 172.524 57.7533C173.182 57.7533 173.744 57.9169 174.208 58.2442C174.677 58.5714 174.986 59.0195 175.134 59.5885L173.974 59.9232C173.859 59.5848 173.669 59.3226 173.405 59.1367C173.145 58.947 172.846 58.8522 172.507 58.8522C172.124 58.8522 171.81 58.9433 171.564 59.1255C171.319 59.304 171.137 59.5495 171.018 59.8618C170.899 60.1742 170.837 60.5312 170.834 60.9328C170.837 61.5539 170.979 62.0559 171.258 62.439C171.54 62.822 171.957 63.0135 172.507 63.0135C172.883 63.0135 173.186 62.928 173.416 62.7569C173.651 62.5821 173.829 62.333 173.952 62.0094L175.134 62.2883C174.937 62.8759 174.612 63.3277 174.158 63.6438C173.705 63.9562 173.154 64.1124 172.507 64.1124ZM176.609 56.9333V55.8009H177.775V56.9333H176.609ZM176.609 63.9451V57.9206H177.775V63.9451H176.609ZM184.069 63.9451V60.983C184.069 60.7488 184.049 60.5089 184.008 60.2635C183.971 60.0143 183.896 59.7837 183.785 59.5718C183.677 59.3598 183.523 59.1887 183.322 59.0586C183.125 58.9284 182.866 58.8633 182.546 58.8633C182.338 58.8633 182.141 58.8987 181.955 58.9693C181.769 59.0363 181.605 59.146 181.464 59.2984C181.327 59.4509 181.217 59.6517 181.135 59.9009C181.057 60.15 181.018 60.4531 181.018 60.8101L180.293 60.5368C180.293 59.9901 180.395 59.5085 180.6 59.092C180.804 58.6718 181.098 58.3446 181.481 58.1103C181.864 57.876 182.327 57.7589 182.87 57.7589C183.286 57.7589 183.636 57.8258 183.919 57.9597C184.201 58.0935 184.43 58.2702 184.605 58.4896C184.783 58.7053 184.919 58.9414 185.012 59.198C185.105 59.4546 185.168 59.7056 185.202 59.9511C185.235 60.1965 185.252 60.4122 185.252 60.5982V63.9451H184.069ZM179.835 63.9451V57.9206H180.878V59.661H181.018V63.9451H179.835ZM189.577 66.7899C189.254 66.7899 188.94 66.7397 188.635 66.6393C188.334 66.5389 188.058 66.3902 187.809 66.1931C187.56 65.9997 187.354 65.7598 187.19 65.4735L188.267 64.9268C188.397 65.1834 188.583 65.3712 188.824 65.4902C189.066 65.6092 189.321 65.6687 189.589 65.6687C189.92 65.6687 190.202 65.6092 190.436 65.4902C190.671 65.3749 190.847 65.2002 190.966 64.9659C191.089 64.7316 191.149 64.4415 191.145 64.0957V62.4111H191.284V57.9206H192.316V64.1068C192.316 64.2667 192.311 64.4192 192.3 64.5642C192.288 64.7093 192.268 64.8543 192.238 64.9993C192.153 65.4047 191.989 65.7394 191.747 66.0034C191.509 66.2675 191.204 66.4646 190.833 66.5947C190.464 66.7249 190.046 66.7899 189.577 66.7899ZM189.488 64.1124C188.927 64.1124 188.441 63.973 188.032 63.694C187.627 63.4151 187.313 63.0358 187.09 62.5561C186.87 62.0727 186.76 61.5297 186.76 60.9273C186.76 60.3211 186.872 59.78 187.095 59.304C187.318 58.8243 187.634 58.4468 188.043 58.1716C188.456 57.8927 188.945 57.7533 189.511 57.7533C190.079 57.7533 190.557 57.8927 190.944 58.1716C191.335 58.4468 191.628 58.8243 191.825 59.304C192.026 59.7837 192.127 60.3248 192.127 60.9273C192.127 61.5297 192.026 62.0708 191.825 62.5505C191.625 63.0302 191.329 63.4114 190.939 63.694C190.548 63.973 190.065 64.1124 189.488 64.1124ZM189.65 63.0581C190.033 63.0581 190.345 62.967 190.587 62.7848C190.829 62.6026 191.005 62.3516 191.117 62.0317C191.229 61.7119 191.284 61.3438 191.284 60.9273C191.284 60.5108 191.227 60.1426 191.111 59.8228C191 59.503 190.825 59.2538 190.587 59.0753C190.353 58.8968 190.053 58.8076 189.689 58.8076C189.302 58.8076 188.984 58.9024 188.735 59.092C188.486 59.2817 188.3 59.5364 188.177 59.8563C188.058 60.1761 187.999 60.5331 187.999 60.9273C187.999 61.3252 188.058 61.6859 188.177 62.0094C188.3 62.3293 188.482 62.584 188.724 62.7736C188.969 62.9633 189.278 63.0581 189.65 63.0581ZM196.897 63.9451V55.9125H199.413C199.487 55.9125 199.625 55.9143 199.826 55.9181C200.03 55.9218 200.225 55.9366 200.411 55.9627C201.04 56.0408 201.568 56.2658 201.996 56.6376C202.427 57.0095 202.752 57.4818 202.972 58.0545C203.191 58.6235 203.301 59.2482 203.301 59.9288C203.301 60.613 203.191 61.2415 202.972 61.8142C202.752 62.3832 202.427 62.8536 201.996 63.2255C201.568 63.5936 201.04 63.8168 200.411 63.8949C200.225 63.9209 200.03 63.9358 199.826 63.9395C199.625 63.9432 199.487 63.9451 199.413 63.9451H196.897ZM198.091 62.835H199.413C199.539 62.835 199.69 62.8313 199.865 62.8239C200.039 62.8164 200.194 62.8015 200.328 62.7792C200.737 62.7011 201.068 62.5245 201.321 62.2493C201.577 61.9704 201.765 61.6283 201.884 61.2229C202.003 60.8176 202.063 60.3862 202.063 59.9288C202.063 59.4565 202.001 59.0195 201.878 58.6179C201.756 58.2125 201.566 57.8741 201.309 57.6027C201.057 57.3275 200.729 57.1527 200.328 57.0783C200.194 57.0523 200.038 57.0374 199.859 57.0337C199.684 57.0263 199.536 57.0225 199.413 57.0225H198.091V62.835ZM205.102 56.9333V55.8009H206.268V56.9333H205.102ZM205.102 63.9451V57.9206H206.268V63.9451H205.102ZM209.962 63.9451L207.775 57.9206H208.952L210.553 62.4836L212.154 57.9206H213.331L211.145 63.9451H209.962ZM217.181 64.1124C216.582 64.1124 216.056 63.9823 215.602 63.7219C215.152 63.4579 214.801 63.0916 214.548 62.623C214.299 62.1507 214.174 61.6041 214.174 60.983C214.174 60.3248 214.297 59.754 214.542 59.2705C214.792 58.7871 215.137 58.4134 215.58 58.1493C216.022 57.8853 216.538 57.7533 217.125 57.7533C217.739 57.7533 218.261 57.8964 218.693 58.1828C219.124 58.4654 219.446 58.8689 219.658 59.3933C219.873 59.9176 219.959 60.5405 219.914 61.262H218.748V60.838C218.741 60.1389 218.607 59.622 218.347 59.2873C218.09 58.9526 217.698 58.7852 217.17 58.7852C216.586 58.7852 216.147 58.9693 215.853 59.3375C215.559 59.7056 215.413 60.2374 215.413 60.9328C215.413 61.5948 215.559 62.108 215.853 62.4724C216.147 62.8331 216.571 63.0135 217.125 63.0135C217.49 63.0135 217.804 62.9317 218.068 62.7681C218.336 62.6007 218.544 62.3627 218.693 62.0541L219.836 62.4166C219.602 62.9559 219.247 63.3742 218.771 63.6717C218.295 63.9655 217.765 64.1124 217.181 64.1124ZM215.033 61.262V60.3527H219.334V61.262H215.033ZM221.556 63.9451V57.9206H222.594V59.3821L222.449 59.1924C222.523 58.9991 222.62 58.8224 222.739 58.6625C222.858 58.4989 222.995 58.365 223.152 58.2609C223.304 58.1493 223.473 58.0638 223.659 58.0043C223.849 57.9411 224.042 57.9039 224.239 57.8927C224.436 57.8779 224.626 57.8872 224.808 57.9206V59.0139C224.611 58.9619 224.392 58.947 224.15 58.9693C223.912 58.9916 223.693 59.0679 223.492 59.198C223.302 59.3207 223.152 59.4695 223.04 59.6443C222.932 59.8191 222.854 60.0143 222.806 60.23C222.757 60.442 222.733 60.667 222.733 60.905V63.9451H221.556ZM228.347 64.1068C227.614 64.1068 227.017 63.9451 226.556 63.6215C226.095 63.298 225.813 62.8424 225.708 62.2549L226.902 62.0708C226.977 62.3832 227.148 62.6305 227.415 62.8127C227.687 62.9912 228.023 63.0804 228.425 63.0804C228.789 63.0804 229.074 63.0061 229.278 62.8573C229.487 62.7086 229.591 62.504 229.591 62.2437C229.591 62.0912 229.554 61.9685 229.479 61.8756C229.409 61.7789 229.258 61.6878 229.027 61.6022C228.797 61.5167 228.445 61.4107 227.973 61.2843C227.456 61.1504 227.045 61.0072 226.74 60.8548C226.439 60.6986 226.224 60.5182 226.093 60.3137C225.967 60.1054 225.904 59.8544 225.904 59.5606C225.904 59.1962 226 58.8782 226.194 58.6067C226.387 58.3353 226.659 58.1252 227.008 57.9764C227.361 57.8277 227.774 57.7533 228.247 57.7533C228.708 57.7533 229.119 57.8258 229.479 57.9708C229.84 58.1159 230.132 58.3223 230.355 58.59C230.578 58.854 230.712 59.1646 230.757 59.5216L229.563 59.7391C229.522 59.449 229.386 59.2203 229.156 59.053C228.925 58.8856 228.626 58.7945 228.258 58.7797C227.904 58.7648 227.618 58.8243 227.399 58.9582C227.179 59.0883 227.07 59.2687 227.07 59.4992C227.07 59.6331 227.11 59.7465 227.192 59.8395C227.278 59.9325 227.441 60.0217 227.683 60.1073C227.925 60.1928 228.282 60.2951 228.754 60.4141C229.26 60.5442 229.662 60.6893 229.959 60.8492C230.257 61.0054 230.469 61.1932 230.595 61.4126C230.725 61.6283 230.79 61.8904 230.79 62.1991C230.79 62.7941 230.573 63.2608 230.138 63.5992C229.706 63.9376 229.109 64.1068 228.347 64.1068ZM232.526 56.9333V55.8009H233.692V56.9333H232.526ZM232.526 63.9451V57.9206H233.692V63.9451H232.526ZM239.205 63.9451C238.826 64.0194 238.454 64.0511 238.09 64.0399C237.725 64.0287 237.4 63.9581 237.113 63.8279C236.827 63.6978 236.611 63.4932 236.466 63.2143C236.336 62.9652 236.266 62.7123 236.254 62.4557C236.247 62.1954 236.243 61.9016 236.243 61.5743V56.2472H237.415V61.5186C237.415 61.7603 237.416 61.9704 237.42 62.1489C237.428 62.3274 237.467 62.478 237.537 62.6007C237.671 62.8313 237.883 62.9633 238.173 62.9968C238.467 63.0265 238.811 63.0135 239.205 62.9577V63.9451ZM235.089 58.8578V57.9206H239.205V58.8578H235.089ZM241.517 66.6226L242.683 63.4486L242.699 64.3857L240.072 57.9206H241.288L243.252 62.9131H242.895L244.769 57.9206H245.952L242.627 66.6226H241.517Z" fill="url(#paint10_linear_47_906)"/>
<defs>
<linearGradient id="paint0_linear_47_906" x1="0" y1="0" x2="0" y2="51.0731" gradientUnits="userSpaceOnUse">
<stop stop-color="#06BEB6"/>
<stop offset="1" stop-color="#48B1BF"/>
</linearGradient>
<linearGradient id="paint1_linear_47_906" x1="0" y1="0" x2="0" y2="51.0731" gradientUnits="userSpaceOnUse">
<stop stop-color="#06BEB6"/>
<stop offset="1" stop-color="#48B1BF"/>
</linearGradient>
<linearGradient id="paint2_linear_47_906" x1="0" y1="0" x2="0" y2="51.0731" gradientUnits="userSpaceOnUse">
<stop stop-color="#06BEB6"/>
<stop offset="1" stop-color="#48B1BF"/>
</linearGradient>
<linearGradient id="paint3_linear_47_906" x1="0" y1="0" x2="0" y2="51.0731" gradientUnits="userSpaceOnUse">
<stop stop-color="#06BEB6"/>
<stop offset="1" stop-color="#48B1BF"/>
</linearGradient>
<linearGradient id="paint4_linear_47_906" x1="0" y1="0" x2="0" y2="51.0731" gradientUnits="userSpaceOnUse">
<stop stop-color="#06BEB6"/>
<stop offset="1" stop-color="#48B1BF"/>
</linearGradient>
<linearGradient id="paint5_linear_47_906" x1="0" y1="0" x2="0" y2="51.0731" gradientUnits="userSpaceOnUse">
<stop stop-color="#06BEB6"/>
<stop offset="1" stop-color="#48B1BF"/>
</linearGradient>
<linearGradient id="paint6_linear_47_906" x1="0" y1="0" x2="0" y2="51.0731" gradientUnits="userSpaceOnUse">
<stop stop-color="#06BEB6"/>
<stop offset="1" stop-color="#48B1BF"/>
</linearGradient>
<linearGradient id="paint7_linear_47_906" x1="0" y1="0" x2="0" y2="51.0731" gradientUnits="userSpaceOnUse">
<stop stop-color="#06BEB6"/>
<stop offset="1" stop-color="#48B1BF"/>
</linearGradient>
<linearGradient id="paint8_linear_47_906" x1="0" y1="0" x2="0" y2="51.0731" gradientUnits="userSpaceOnUse">
<stop stop-color="#06BEB6"/>
<stop offset="1" stop-color="#48B1BF"/>
</linearGradient>
<linearGradient id="paint9_linear_47_906" x1="0" y1="0" x2="0" y2="51.0731" gradientUnits="userSpaceOnUse">
<stop stop-color="#06BEB6"/>
<stop offset="1" stop-color="#48B1BF"/>
</linearGradient>
<linearGradient id="paint10_linear_47_906" x1="0" y1="50.9451" x2="0" y2="67.9451" gradientUnits="userSpaceOnUse">
<stop stop-color="#06BEB6"/>
<stop offset="1" stop-color="#48B1BF"/>
</linearGradient>
</defs>
</svg>
