<svg width="269" height="323" viewBox="0 0 269 323" fill="none" xmlns="http://www.w3.org/2000/svg">
<path d="M150.55 296.786C158.503 297.336 159.49 285.323 151.562 284.505L75.541 274.025C74.7333 273.853 73.8993 273.844 73.0881 273.999C72.2769 274.154 71.505 274.47 70.8176 274.928C70.1293 275.385 69.5394 275.975 69.0825 276.663C68.6256 277.352 68.3111 278.124 68.1573 278.936C68.0036 279.748 68.0138 280.582 68.1873 281.39C68.3609 282.197 68.6942 282.962 69.1677 283.639C69.6401 284.317 70.2436 284.893 70.9424 285.334C71.6413 285.775 72.4214 286.071 73.2367 286.205C72.3881 286.158 71.5388 286.284 70.7401 286.575C69.9414 286.865 69.2098 287.314 68.5894 287.895C67.9691 288.476 67.4729 289.177 67.1307 289.955C66.7885 290.733 66.6075 291.572 66.5985 292.422C66.5988 293.935 67.1542 295.395 68.1594 296.526C69.1647 297.657 70.5498 298.379 72.0524 298.557C70.8178 298.428 69.5728 298.672 68.4784 299.257C67.384 299.843 66.4906 300.744 65.9136 301.843C65.3383 302.943 65.1062 304.19 65.2472 305.424C65.3883 306.657 65.896 307.82 66.7048 308.761C67.2415 309.387 67.898 309.899 68.6356 310.268C69.3732 310.636 70.177 310.853 70.9998 310.905L146.946 321.393C155.604 322.358 156.698 310.625 149.308 309.188C156.978 309.364 157.888 298.005 150.55 296.786Z" fill="#80D7D8"/>
<path fill-rule="evenodd" clip-rule="evenodd" d="M47.2856 115.712C66.7434 111.908 86.492 109.782 106.314 109.357C105.011 117.83 104.52 126.407 104.846 134.974L102.687 134.947H102.677H102.665C85.4039 134.722 68.0165 134.498 48.8882 137.698C45.6901 130.81 45.1201 122.991 47.2856 115.712ZM55.3357 119.497C55.6364 119.197 55.8053 118.789 55.8053 118.364C55.8053 117.939 55.6364 117.531 55.3357 117.23C55.0351 116.93 54.6273 116.761 54.2021 116.761C53.7769 116.761 53.3691 116.93 53.0685 117.23C52.9196 117.379 52.8015 117.556 52.7209 117.75C52.6404 117.945 52.5989 118.153 52.5989 118.364C52.5989 118.789 52.7678 119.197 53.0685 119.497C53.3691 119.798 53.7769 119.967 54.2021 119.967C54.6273 119.967 55.0351 119.798 55.3357 119.497ZM77.7266 129.516C77.7266 129.941 77.5577 130.349 77.2572 130.649C76.9567 130.95 76.549 131.119 76.124 131.119C75.6989 131.119 75.2913 130.95 74.9908 130.649C74.6902 130.349 74.5214 129.941 74.5214 129.516C74.5214 129.091 74.6902 128.684 74.9908 128.383C75.2913 128.082 75.6989 127.914 76.124 127.914C76.549 127.914 76.9567 128.082 77.2572 128.383C77.5577 128.684 77.7266 129.091 77.7266 129.516ZM101.229 115.779C101.378 115.631 101.496 115.454 101.577 115.259C101.657 115.065 101.699 114.856 101.699 114.646C101.699 114.435 101.657 114.227 101.577 114.032C101.496 113.838 101.378 113.661 101.229 113.512C101.08 113.363 100.904 113.245 100.709 113.165C100.515 113.084 100.306 113.043 100.096 113.043C99.885 113.043 99.6765 113.084 99.482 113.165C99.2875 113.245 99.1108 113.363 98.9619 113.512C98.6613 113.813 98.4923 114.221 98.4923 114.646C98.4923 115.071 98.6613 115.479 98.9619 115.779C99.2626 116.08 99.6703 116.249 100.096 116.249C100.521 116.249 100.929 116.08 101.229 115.779Z" fill="#80D7D8"/>
<path fill-rule="evenodd" clip-rule="evenodd" d="M135.51 106.954C135.51 108.556 136.473 109.486 139.068 109.55C141.451 109.599 143.834 109.685 146.215 109.808C141.184 117.315 137.185 125.464 134.326 134.036L112.436 133.555C111.619 126.903 112.691 115.523 113.365 109.293L121.537 109.486C122.571 109.545 123.604 109.347 124.543 108.911C125.482 108.475 126.299 107.814 126.922 106.986V106.954H135.51ZM124.923 129.048C125.223 128.747 125.392 128.339 125.392 127.914C125.392 127.489 125.223 127.081 124.923 126.78C124.622 126.48 124.214 126.311 123.789 126.311C123.364 126.311 122.956 126.48 122.655 126.78C122.355 127.081 122.186 127.489 122.186 127.914C122.186 128.339 122.355 128.747 122.655 129.048C122.956 129.348 123.364 129.517 123.789 129.517C124.214 129.517 124.622 129.348 124.923 129.048Z" fill="#80D7D8"/>
<path fill-rule="evenodd" clip-rule="evenodd" d="M152.657 110.164C167.337 111.125 203.136 114.394 217.621 120.098C219.291 127.671 218.622 135.571 215.698 142.754C188.265 137.118 169.356 134.997 144.966 135.093L142.723 142.853C137.626 139.103 147.659 118.367 152.657 110.164ZM161.193 117.382C161.342 117.233 161.46 117.056 161.54 116.862C161.621 116.667 161.662 116.458 161.662 116.248C161.662 116.037 161.621 115.829 161.54 115.634C161.459 115.44 161.341 115.263 161.192 115.114C161.043 114.965 160.866 114.847 160.672 114.766C160.477 114.686 160.268 114.645 160.058 114.645C159.847 114.645 159.639 114.686 159.444 114.767C159.25 114.848 159.073 114.966 158.924 115.115C158.623 115.416 158.454 115.824 158.455 116.249C158.455 116.674 158.624 117.082 158.925 117.383C159.226 117.684 159.634 117.852 160.059 117.852C160.484 117.852 160.892 117.683 161.193 117.382ZM185.348 132.369C185.348 132.794 185.179 133.202 184.879 133.503C184.578 133.803 184.17 133.972 183.745 133.972C183.32 133.972 182.912 133.803 182.611 133.503C182.31 133.202 182.141 132.794 182.141 132.369C182.141 131.944 182.31 131.536 182.611 131.235C182.912 130.934 183.32 130.765 183.745 130.765C184.17 130.765 184.578 130.934 184.879 131.235C185.179 131.536 185.348 131.944 185.348 132.369ZM211.992 124.688C212.141 124.539 212.259 124.362 212.339 124.168C212.42 123.973 212.461 123.765 212.461 123.554C212.461 123.343 212.42 123.135 212.339 122.94C212.258 122.746 212.14 122.569 211.991 122.42C211.842 122.271 211.665 122.153 211.471 122.073C211.276 121.992 211.068 121.951 210.857 121.951C210.646 121.951 210.438 121.992 210.243 122.073C210.049 122.154 209.872 122.272 209.723 122.421C209.422 122.722 209.254 123.13 209.254 123.555C209.254 123.981 209.423 124.388 209.724 124.689C210.025 124.99 210.433 125.159 210.858 125.158C211.283 125.158 211.691 124.989 211.992 124.688Z" fill="#80D7D8"/>
<path d="M132.914 101.761L128.202 104.774C128.648 103.809 128.992 102.799 129.228 101.761C130.456 101.832 131.686 101.832 132.914 101.761Z" fill="#20B9BA"/>
<path d="M179.642 91.0255C189.802 67.9817 152.399 87.3142 152.399 87.3142C158.361 76.0336 141.76 78.5977 134.58 84.0449C141.888 79.0785 143.17 86.2885 141.151 90.3912C140.798 91.2566 141.215 91.6733 142.978 91.2245C146.664 90.295 146.763 96.1167 140.478 96.2246C139.96 96.4656 139.509 96.8286 139.164 97.2824C137.24 101.479 135.478 104.845 135.478 106.992C135.478 108.627 136.439 109.557 139.035 109.589C160.242 110.244 181.374 112.418 202.269 116.095C205.251 115.026 207.968 113.328 210.235 111.116C212.502 108.904 214.267 106.229 215.409 103.274C227.971 73.3024 179.642 91.0255 179.642 91.0255Z" fill="#20B9BA"/>
<path d="M108.107 234.926C104.352 239.352 99.3112 242.5 93.6855 243.932C95.9612 248.033 97.0831 255.213 98.0716 259.893C99.7543 268.957 102.386 277.819 105.923 286.332C112.974 270.475 113.807 256.88 116.115 247.456C113.808 243.059 111.129 238.867 108.107 234.926Z" fill="#20B9BA"/>
<path d="M210.569 179.256C205.861 181.76 201.379 184.666 197.173 187.942C201.245 191.946 204.186 196.954 205.699 202.46C215.399 197.61 231.86 197.634 249.316 190.09C233.549 182.878 219.96 181.692 210.569 179.256Z" fill="#20B9BA"/>
<path d="M166.95 199.095L152.561 211.048L147.721 206.819C154.396 204.962 160.845 202.371 166.95 199.095Z" fill="#20B9BA"/>
<path d="M106.474 195.28C106.922 197.172 107.467 199.095 108.108 201.016C116.846 199.509 125.377 196.98 133.524 193.48C125.222 196.814 115.269 196.672 106.474 195.28Z" fill="#20B9BA"/>
<path d="M108.949 278.631L151.54 284.446C159.721 285.291 158.254 297.734 150.19 296.722C158.245 297.648 156.793 309.88 148.819 309.107C156.894 310.128 155.374 322.291 147.489 321.495L70.7635 310.887C69.5411 310.761 68.3839 310.275 67.439 309.489C66.4942 308.704 65.8046 307.655 65.458 306.476C65.2278 305.693 65.1549 304.872 65.2437 304.061C65.3325 303.249 65.5812 302.464 65.9753 301.749C66.3695 301.034 66.9014 300.405 67.5402 299.897C68.1791 299.389 68.9122 299.013 69.6973 298.79C70.482 298.567 71.3029 298.501 72.113 298.596C71.0893 298.494 70.1067 298.14 69.2534 297.566C68.4001 296.991 67.7027 296.214 67.2237 295.303C66.7448 294.393 66.4992 293.378 66.509 292.349C66.5188 291.32 66.7837 290.31 67.2799 289.409C67.6763 288.689 68.2118 288.055 68.8552 287.544C69.4987 287.033 70.2374 286.654 71.0283 286.431C71.8191 286.207 72.6466 286.142 73.4626 286.241C72.6324 286.143 71.8307 285.878 71.1061 285.461C70.3815 285.044 69.749 284.484 69.2471 283.816C68.7452 283.147 68.3843 282.384 68.1862 281.572C67.9881 280.76 67.957 279.916 68.0947 279.091C68.2312 278.267 68.5338 277.479 68.9841 276.774C69.4345 276.07 70.0232 275.465 70.7146 274.996C71.4053 274.525 72.1845 274.199 73.0049 274.039C73.8253 273.879 74.6698 273.887 75.4869 274.063L102.547 277.757" stroke="#127358" stroke-width="1.69543" stroke-linecap="round" stroke-linejoin="round"/>
<path d="M208.613 86.0576C203.703 71.2922 194.752 58.1988 182.776 48.2632C170.801 38.3275 156.28 31.9474 140.862 29.8468C96.8919 23.8142 57.5168 53.7576 52.7916 96.6989C52.1477 102.656 52.1908 108.667 52.9199 114.614" stroke="#127358" stroke-width="1.69543" stroke-linecap="round" stroke-linejoin="round"/>
<path d="M212.01 118.3C212.361 115.026 212.499 111.733 212.425 108.44" stroke="#127358" stroke-width="1.69543" stroke-linecap="round" stroke-linejoin="round"/>
<path d="M206.027 140.848C205.597 141.857 205.082 142.827 204.488 143.749C190.453 166.861 182.342 180.356 176.637 193.683" stroke="#127358" stroke-width="1.69543" stroke-linecap="round" stroke-linejoin="round"/>
<path d="M113.824 259.272L160.123 265.604C161.437 258.491 164.509 237.05 165.668 231.44" stroke="#127358" stroke-width="1.69543" stroke-linecap="round" stroke-linejoin="round"/>
<path d="M73.2654 223.773C73.2013 228.186 71.1904 248.082 71.0234 253.386L97.463 256.88" stroke="#127358" stroke-width="1.69543" stroke-linecap="round" stroke-linejoin="round"/>
<path d="M58.9443 136.28C62.4684 146.983 65.2248 155.411 67.3082 162.847" stroke="#127358" stroke-width="1.69543" stroke-linecap="round" stroke-linejoin="round"/>
<path d="M125.414 93.2049L106.505 90.6087C104.1 90.2299 101.642 90.3411 99.2807 90.9356C96.9191 91.5301 94.7019 92.5956 92.7623 94.0683C90.8227 95.5409 89.2006 97.3903 87.9934 99.5053C86.7863 101.62 86.0189 103.958 85.7375 106.377C85.6025 107.719 85.6092 109.072 85.7628 110.413" stroke="#127358" stroke-width="1.69543" stroke-linecap="round" stroke-linejoin="round"/>
<path d="M115.576 259.508L119.934 221.978" stroke="#127358" stroke-width="1.69543" stroke-linecap="round" stroke-linejoin="round"/>
<path d="M106.312 109.326C106.312 109.326 101.926 134.902 107.85 154.355C106.916 156.687 106.25 159.116 105.863 161.597" stroke="#127358" stroke-width="1.69543" stroke-linecap="round" stroke-linejoin="round"/>
<path d="M104.774 134.965C86.794 134.741 68.7825 134.356 48.8158 137.688C45.6352 130.798 45.0768 122.984 47.2452 115.712C71.6819 110.909 96.5763 108.834 121.471 109.526C124.74 109.663 126.884 107.601 128.202 104.782C128.647 103.816 128.991 102.807 129.228 101.769C124.673 101.385 118.431 98.8898 131.375 86.6747C132.379 85.7228 133.45 84.8444 134.58 84.0464" stroke="#127358" stroke-width="1.69543" stroke-linecap="round" stroke-linejoin="round"/>
<path d="M217.619 120.125C203.209 114.508 168.156 111.185 152.623 110.191C147.624 118.396 137.592 139.132 142.688 142.881L144.964 135.092C169.354 134.996 188.263 137.116 215.696 142.752C218.658 135.59 219.33 127.685 217.619 120.125Z" stroke="#127358" stroke-width="1.69543" stroke-linecap="round" stroke-linejoin="round"/>
<path d="M141.218 90.2392C143.14 86.1146 141.804 79.1239 134.58 84.0346C141.76 78.5875 158.366 76.0233 152.399 87.3039C152.399 87.3039 189.801 67.9782 179.642 91.0152C232.275 71.725 220.248 109.511 202.269 116.078C181.376 112.379 160.243 110.194 139.035 109.54C136.439 109.504 135.478 108.578 135.478 106.943C135.478 104.796 137.293 101.454 139.164 97.2333C139.511 96.7812 139.961 96.4185 140.478 96.1756C146.763 96.0626 146.662 90.2426 142.978 91.1755C141.238 91.6259 140.861 91.0118 141.218 90.2392Z" stroke="#127358" stroke-width="1.69543" stroke-linecap="round" stroke-linejoin="round"/>
<path d="M232.521 127.433C235.149 128.357 237.728 129.416 240.246 130.606C255.26 137.847 245.341 136.151 241.047 134.486" stroke="#127358" stroke-width="1.69543" stroke-linecap="round" stroke-linejoin="round"/>
<path d="M238.932 141.406C240.742 142.615 242.436 143.988 243.993 145.509C247.679 149.195 245.597 149.706 242.039 147.945C239.123 146.501 235.663 145.087 232.007 143.714C227.123 141.703 221.99 140.357 216.747 139.712" stroke="#127358" stroke-width="1.69543" stroke-linecap="round" stroke-linejoin="round"/>
<path d="M239.124 143.938C239.045 139.503 237.45 135.228 234.604 131.824" stroke="#127358" stroke-width="1.69543" stroke-linecap="round" stroke-linejoin="round"/>
<path d="M241.304 143.137C242.746 143.874 244.572 144.709 246.463 145.605C249.923 147.243 251.397 146.728 248.097 143.749C244.982 140.941 241.446 138.638 237.618 136.924" stroke="#127358" stroke-width="1.69543" stroke-linecap="round" stroke-linejoin="round"/>
<path d="M243.162 139.932C255.693 146.439 257.638 144.499 247.327 137.908C243.298 135.472 239.036 133.443 234.604 131.852" stroke="#127358" stroke-width="1.69543" stroke-linecap="round" stroke-linejoin="round"/>
<path d="M223.261 133.972C224.953 134.358 226.728 134.129 228.267 133.325C229.805 132.521 231.007 131.196 231.657 129.586C232.868 127.243 231.977 126.124 233.324 124.489C235.407 121.959 234.999 120.726 232.009 122.021C230.059 122.865 225.503 125.163 222.011 124.137C220.547 123.729 219.076 123.336 218.175 123.106" stroke="#127358" stroke-width="1.69543" stroke-linecap="round" stroke-linejoin="round"/>
<path d="M32.1552 122.074C29.4409 122.881 26.7761 123.847 24.1743 124.965C8.88545 131.6 18.8536 130.286 23.2127 128.811" stroke="#127358" stroke-width="1.69543" stroke-linecap="round" stroke-linejoin="round"/>
<path d="M25.0066 135.799C23.1493 136.936 21.4024 138.245 19.7889 139.707C15.973 143.265 17.9923 143.841 21.6158 142.238C24.595 140.922 28.1241 139.684 31.8067 138.456C42.7718 134.8 47.8327 135.06 47.8327 135.06" stroke="#127358" stroke-width="1.69543" stroke-linecap="round" stroke-linejoin="round"/>
<path d="M24.7168 138.329C24.9855 133.899 26.7577 129.694 29.7405 126.407" stroke="#127358" stroke-width="1.69543" stroke-linecap="round" stroke-linejoin="round"/>
<path d="M22.6009 137.432C21.1265 138.107 19.2675 138.874 17.3443 139.675C13.8186 141.148 12.3729 140.602 15.7738 137.752C18.9896 135.061 22.6248 132.916 26.5348 131.401" stroke="#127358" stroke-width="1.69543" stroke-linecap="round" stroke-linejoin="round"/>
<path d="M20.8391 134.132C8.01824 140.092 6.18453 138.029 16.7684 131.92C20.903 129.665 25.2478 127.819 29.7411 126.407" stroke="#127358" stroke-width="1.69543" stroke-linecap="round" stroke-linejoin="round"/>
<path d="M46.476 118.941C42.9199 119.805 34.6859 117.652 32.7914 116.729C29.8798 115.309 29.399 116.5 31.3811 119.132C32.6345 120.797 31.7708 121.758 32.4709 123.811C33.1811 125.893 35.0013 129.1 39.2018 128.299" stroke="#127358" stroke-width="1.69543" stroke-linecap="round" stroke-linejoin="round"/>
<path d="M108.106 234.894L109.998 237.458" stroke="#127358" stroke-width="1.69543" stroke-linecap="round" stroke-linejoin="round"/>
<path d="M110 237.458C112.295 240.628 114.342 243.971 116.122 247.456C113.814 256.88 112.981 270.468 105.93 286.332C102.393 277.818 99.7619 268.956 98.0784 259.892C96.9566 254.663 96.1233 248.706 93.6924 243.964" stroke="#127358" stroke-width="1.69543" stroke-linecap="round" stroke-linejoin="round"/>
<path d="M197.172 187.974C201.382 184.703 205.864 181.797 210.568 179.288C219.959 181.692 233.548 182.878 249.315 190.085C240.771 193.537 231.888 196.081 222.812 197.676C215.615 199.137 211.847 199.383 205.681 202.459" stroke="#127358" stroke-width="1.69543" stroke-linecap="round" stroke-linejoin="round"/>
<path d="M49.072 234.252L28.1758 200.761" stroke="#127358" stroke-width="1.69543" stroke-linecap="round" stroke-linejoin="round"/>
<path d="M25.7715 211.048L28.1754 200.761L38.4641 203.165" stroke="#127358" stroke-width="1.69543" stroke-linecap="round" stroke-linejoin="round"/>
<path d="M268 112.563C268.002 113.584 267.701 114.584 267.134 115.434C266.567 116.284 265.761 116.947 264.817 117.338C263.873 117.729 262.834 117.83 261.833 117.63C260.831 117.429 259.911 116.936 259.19 116.211C258.65 115.672 258.237 115.02 257.98 114.301C257.722 113.583 257.628 112.816 257.703 112.057C257.777 111.297 258.02 110.564 258.413 109.91C258.805 109.255 259.338 108.696 259.973 108.273C260.75 107.753 261.653 107.454 262.587 107.408C263.52 107.362 264.448 107.571 265.272 108.011C266.097 108.452 266.786 109.108 267.266 109.909C267.746 110.711 268 111.628 268 112.563Z" stroke="#127358" stroke-width="1.69543" stroke-linecap="round" stroke-linejoin="round"/>
<path d="M187.365 297.71C187.364 298.382 187.165 299.039 186.792 299.598C186.418 300.156 185.888 300.592 185.268 300.85C184.647 301.106 183.964 301.172 183.306 301.04C182.647 300.909 182.042 300.585 181.567 300.11C181.093 299.635 180.769 299.03 180.637 298.372C180.506 297.713 180.572 297.031 180.828 296.41C181.086 295.789 181.521 295.259 182.08 294.886C182.639 294.513 183.295 294.313 183.967 294.313C184.414 294.309 184.858 294.394 185.271 294.564C185.685 294.734 186.061 294.985 186.376 295.301C186.693 295.617 186.944 295.992 187.113 296.406C187.283 296.82 187.369 297.263 187.365 297.71Z" stroke="#127358" stroke-width="1.69543" stroke-linecap="round" stroke-linejoin="round"/>
<path d="M44.5527 47.5344L56.0594 54.2974" stroke="#127358" stroke-width="1.69543" stroke-linecap="round" stroke-linejoin="round"/>
<path d="M103.748 0.999756L107.755 13.6266" stroke="#127358" stroke-width="1.69543" stroke-linecap="round" stroke-linejoin="round"/>
<path d="M176.948 17.665L183.327 6.09595" stroke="#127358" stroke-width="1.69543" stroke-linecap="round" stroke-linejoin="round"/>
<path d="M226.239 64.0087L238.227 58.2073" stroke="#127358" stroke-width="1.69543" stroke-linecap="round" stroke-linejoin="round"/>
<path d="M7.85719 76.187L6.5127 88.5254" stroke="#127358" stroke-width="1.69543" stroke-linecap="round" stroke-linejoin="round"/>
<path d="M13.3383 83.0447L1 81.7002" stroke="#127358" stroke-width="1.69543" stroke-linecap="round" stroke-linejoin="round"/>
<path d="M146.18 109.808C141.15 117.315 137.151 125.465 134.291 134.037L112.433 133.555C111.407 125.35 113.33 109.293 113.33 109.293" stroke="#127358" stroke-width="1.69543" stroke-linecap="round" stroke-linejoin="round"/>
<path d="M113.14 139.131L114.358 151.951L121.984 157.27L130.061 151.823L132.914 139.419L113.14 139.131Z" stroke="#127358" stroke-width="1.69543" stroke-linecap="round" stroke-linejoin="round"/>
<path d="M126.856 106.986H135.445" stroke="#127358" stroke-width="1.69543" stroke-linecap="round" stroke-linejoin="round"/>
<path d="M166.951 199.095L152.562 211.049L147.747 206.813" stroke="#127358" stroke-width="1.69543" stroke-linecap="round" stroke-linejoin="round"/>
<path d="M142.689 142.88L139.579 153.586C139.579 153.586 158.455 180.213 137.049 191.879C131.96 194.655 124.709 196.541 115.119 196.154C105.924 195.649 96.8664 193.699 88.2777 190.378C95.3037 203.805 103.216 216.749 111.962 229.124C109.535 234.006 105.753 238.085 101.068 240.874C96.8427 243.256 92.151 244.695 87.3161 245.091C75.2393 227.591 64.1826 209.409 54.2013 190.635C52.7204 187.875 51.9403 184.793 51.9298 181.661C51.9193 178.529 52.6786 175.442 54.141 172.672C55.6034 169.902 57.724 167.534 60.3164 165.776C62.9087 164.018 65.8933 162.924 69.0077 162.591C85.2564 160.856 104.005 160.539 118.267 162.975" stroke="#127358" stroke-width="1.69543" stroke-linecap="round" stroke-linejoin="round"/>
<path d="M88.2775 190.378C86.4826 187.077 85.0723 183.936 85.0723 183.936" stroke="#127358" stroke-width="1.69543" stroke-linecap="round" stroke-linejoin="round"/>
<path d="M106.474 195.281C109.833 209.894 118.3 222.828 130.351 231.752C133.633 234.243 137.466 235.907 141.527 236.604C145.587 237.302 149.756 237.012 153.681 235.759C172.832 229.595 190.831 220.303 206.948 208.262C205.285 197.782 201.187 190.351 192.365 183.936C178.979 192.413 162.937 202.875 147.747 206.813C143.415 202.436 139.876 197.34 137.287 191.753" stroke="#127358" stroke-width="1.69543" stroke-linecap="round" stroke-linejoin="round"/>
<path d="M133.522 193.48C125.375 196.978 116.844 199.507 108.106 201.012" stroke="#127358" stroke-width="1.69543" stroke-linecap="round" stroke-linejoin="round"/>
<path d="M129.23 101.761C130.458 101.832 131.688 101.832 132.916 101.761L128.204 104.774" stroke="#127358" stroke-width="1.69543" stroke-linecap="round" stroke-linejoin="round"/>
</svg>
