<svg width="330" height="329" viewBox="0 0 330 329" fill="none" xmlns="http://www.w3.org/2000/svg">
<path d="M119.933 231.076L105.633 240.05C101.13 242.883 92.2376 247.962 87.7168 252.509H146.137L147.119 251.778L140.244 240.006C133.353 237.311 126.577 234.332 119.933 231.076Z" fill="#80D7D8"/>
<path d="M242.461 252.509C237.94 247.962 229.047 242.883 224.545 240.05C218.847 236.464 212.297 232.357 212.297 232.357L199.189 224.149L183.061 251.774L184.043 252.506L242.461 252.509Z" fill="#80D7D8"/>
<path fill-rule="evenodd" clip-rule="evenodd" d="M252.783 151.172C255.43 138.178 255.154 124.759 251.975 111.886C248.795 99.0124 242.791 87.0076 234.399 76.7411C221.746 61.2621 204.27 50.4701 184.764 46.0888C165.257 41.7074 144.845 43.9896 126.788 52.5706C108.731 61.1517 94.0701 75.5366 85.1478 93.4277C76.2255 111.319 73.5563 131.684 77.5665 151.27L119.239 127.321C128.981 122.001 138.883 118.731 148.382 118.251C130.842 111.704 130.405 95.9944 148.152 89.0856C148.282 86.4172 149.036 83.8164 150.355 81.493C151.674 79.1695 153.52 77.1884 155.744 75.7093C157.969 74.2302 160.51 73.2945 163.163 72.9776C165.816 72.6607 168.506 72.9715 171.017 73.8849C174.161 75.0582 176.894 77.1233 178.882 79.8271C180.87 82.5309 182.026 85.7559 182.209 89.1069C199.107 95.6769 200.297 111.32 181.809 118.253L181.677 118.292C191.884 118.765 202.089 122.363 210.887 127.321L252.783 151.172Z" fill="#80D7D8"/>
<path d="M182.208 89.1064C182.025 85.7554 180.869 82.5305 178.881 79.8268C176.893 77.123 174.16 75.0579 171.015 73.8844C168.505 72.971 165.815 72.6602 163.162 72.9771C160.509 73.294 157.968 74.2297 155.743 75.7088C153.519 77.1879 151.672 79.169 150.354 81.4924C149.035 83.8159 148.281 86.4166 148.151 89.0851C130.404 95.9939 130.841 111.704 148.382 118.251C154.942 113.629 159.425 106.662 160.542 94.4717C160.144 94.0407 159.794 93.5688 159.496 93.0641C158.307 90.9955 157.736 88.6296 157.849 86.2464C157.963 83.8632 158.757 81.5624 160.137 79.6164C160.813 78.5684 161.798 77.7567 162.956 77.2936C164.114 76.8306 165.387 76.7391 166.599 77.0319C169.709 77.8781 171.914 81.0731 172.359 85.3713C172.582 87.0272 172.456 88.7114 171.989 90.3158C171.523 91.9202 170.726 93.4093 169.65 94.6878C169.965 99.8125 170.59 105.014 173.327 109.543C175.449 113.058 178.351 116.037 181.808 118.252C200.296 111.319 199.106 95.6764 182.208 89.1064Z" fill="#20B9BA"/>
<path d="M135.993 146.865C135.246 149.286 133.12 155.758 132.251 156.643C132.196 156.699 132.163 156.774 132.159 156.852C132.154 156.931 132.178 157.008 132.226 157.071C132.274 157.133 132.343 157.176 132.42 157.192C132.497 157.208 132.577 157.195 132.645 157.157L136.466 154.992C136.516 154.963 136.557 154.921 136.586 154.871C136.614 154.821 136.63 154.764 136.629 154.707V146.962C136.627 146.885 136.598 146.812 136.547 146.754C136.496 146.697 136.427 146.659 136.351 146.648C136.275 146.637 136.198 146.652 136.133 146.692C136.067 146.731 136.018 146.793 135.993 146.865Z" fill="#20B9BA"/>
<path d="M197.908 156.617C197.039 155.732 194.913 149.252 194.166 146.839C194.143 146.764 194.094 146.7 194.028 146.659C193.961 146.617 193.882 146.601 193.805 146.613C193.727 146.624 193.657 146.663 193.606 146.723C193.555 146.782 193.526 146.857 193.526 146.936V154.679C193.526 154.737 193.541 154.794 193.571 154.843C193.598 154.894 193.64 154.935 193.69 154.964L197.512 157.13C197.58 157.168 197.66 157.18 197.737 157.164C197.814 157.149 197.883 157.106 197.931 157.044C197.979 156.982 198.003 156.905 197.998 156.827C197.994 156.748 197.962 156.674 197.908 156.617Z" fill="#20B9BA"/>
<path d="M113.724 234.971L120.26 230.879C113.642 227.936 107.488 224.046 101.99 219.332C101.929 219.275 101.849 219.245 101.766 219.246C101.704 219.247 101.644 219.265 101.593 219.298C101.541 219.332 101.5 219.379 101.473 219.435C101.447 219.49 101.437 219.552 101.445 219.613C101.452 219.674 101.477 219.732 101.516 219.78L113.724 234.971Z" fill="#20B9BA"/>
<path d="M216.451 234.971L209.915 230.879C216.533 227.936 222.687 224.046 228.185 219.332C228.246 219.275 228.326 219.245 228.409 219.246C228.491 219.246 228.571 219.277 228.63 219.335C228.69 219.392 228.727 219.47 228.733 219.552C228.738 219.635 228.712 219.716 228.659 219.78L216.451 234.971Z" fill="#20B9BA"/>
<path d="M82.7583 178.452C82.8076 178.396 82.8362 178.325 82.8395 178.25C82.8428 178.176 82.8206 178.102 82.7765 178.042C82.7323 177.982 82.669 177.939 82.597 177.919C82.5249 177.9 82.4485 177.906 82.3802 177.936C75.8724 180.796 71.2207 187.888 71.1192 192.464C71.1178 192.522 71.1319 192.58 71.1601 192.631C71.1883 192.681 71.2295 192.724 71.2795 192.754C71.3295 192.783 71.3865 192.799 71.4446 192.799C71.5027 192.8 71.5599 192.785 71.6103 192.755C73.1252 191.91 74.637 191.059 76.1458 190.202C76.2187 190.161 76.2732 190.094 76.298 190.014C77.5992 185.742 79.8023 181.799 82.7583 178.452Z" fill="#20B9BA"/>
<path d="M259.039 192.181C258.757 187.598 254.165 180.738 247.789 177.941C247.721 177.911 247.645 177.905 247.573 177.924C247.501 177.943 247.437 177.987 247.393 178.047C247.349 178.107 247.326 178.18 247.329 178.255C247.333 178.329 247.362 178.4 247.411 178.456C250.139 181.543 252.229 185.139 253.559 189.038C255.464 190.128 257.299 191.179 259.039 192.181Z" fill="#20B9BA"/>
<path d="M182.21 89.1066C182.027 85.7557 180.871 82.5308 178.883 79.827C176.895 77.1233 174.161 75.0581 171.017 73.8846C168.507 72.9712 165.817 72.6604 163.164 72.9773C160.511 73.2942 157.97 74.2299 155.745 75.709C153.521 77.1881 151.674 79.1693 150.356 81.4927C149.037 83.8161 148.283 86.4169 148.153 89.0853C130.406 95.9942 130.843 111.704 148.384 118.251C154.944 113.629 159.427 106.663 160.544 94.472C160.147 94.0408 159.796 93.569 159.498 93.0643C158.309 90.9957 157.738 88.6298 157.851 86.2466C157.965 83.8634 158.759 81.5627 160.139 79.6166C160.815 78.5687 161.8 77.7569 162.958 77.2939C164.116 76.8308 165.389 76.7393 166.601 77.0321C169.711 77.8783 171.916 81.0733 172.361 85.3715C172.584 87.0274 172.458 88.7116 171.991 90.316C171.525 91.9204 170.728 93.4096 169.652 94.688C169.967 99.8128 170.592 105.014 173.329 109.543C175.451 113.058 178.353 116.038 181.81 118.253C200.298 111.319 199.108 95.6766 182.21 89.1066Z" stroke="#30846D" stroke-width="1.645" stroke-linecap="round" stroke-linejoin="round"/>
<path d="M172.36 85.378C171.915 81.0799 169.709 77.8849 166.601 77.0387C165.388 76.746 164.115 76.8377 162.957 77.3011C161.799 77.7645 160.814 78.5766 160.139 79.6248C158.759 81.5707 157.965 83.8711 157.851 86.254C157.737 88.6368 158.309 91.0024 159.497 93.0709C161.217 95.9696 164.584 97.7357 167.699 96.1496C171.488 94.215 172.771 89.3472 172.36 85.3797V85.378Z" stroke="#30846D" stroke-width="1.645" stroke-miterlimit="10"/>
<path d="M109.715 170.181C118.868 164.757 127.62 159.6 136.306 154.707C136.347 157.393 136.643 175.079 137.35 177.725C141.677 179.856 146.158 181.659 150.755 183.117C162.108 186.77 168.716 187.138 183.193 181.909C186.603 180.714 189.937 179.313 193.177 177.714C193.164 176.514 193.614 167.022 193.847 154.681C198.318 157.223 208.561 163.122 220.727 170.132" stroke="#30846D" stroke-width="1.645" stroke-linecap="round" stroke-linejoin="round"/>
<path d="M253.989 189.281C265.271 195.764 273.977 200.738 275.611 201.586L275.892 201.733L291.916 173.214C291.916 173.214 236.215 141.939 223.99 134.858C212.351 128.119 207.04 125.037 202.465 123.185C195.867 120.511 188.903 118.851 181.809 118.26C170.932 121.689 159.263 121.689 148.386 118.26C138.774 119.074 129.431 121.844 120.927 126.398C119.186 127.337 115.732 129.344 110.504 132.369C80.841 149.555 65.493 158.135 38.2783 173.214L54.3023 201.733C61.6973 197.889 68.8696 193.951 75.9831 189.919" stroke="#30846D" stroke-width="1.645" stroke-linecap="round" stroke-linejoin="round"/>
<path d="M252.783 151.172C255.43 138.178 255.154 124.759 251.975 111.886C248.795 99.0124 242.791 87.0076 234.399 76.7411C221.746 61.2621 204.27 50.4701 184.764 46.0888C165.257 41.7074 144.845 43.9896 126.788 52.5706C108.731 61.1517 94.0701 75.5366 85.1478 93.4277C76.2255 111.319 73.5563 131.684 77.5665 151.27" stroke="#30846D" stroke-width="1.645" stroke-linecap="round" stroke-linejoin="round"/>
<path d="M80.3034 217.839C75.3437 217.105 70.2775 217.773 65.6782 219.769C61.0789 221.765 57.1301 225.009 54.2787 229.133C51.7847 232.728 50.1935 236.871 49.6398 241.212C49.0862 245.552 49.5863 249.962 51.0979 254.068C52.6095 258.175 55.0881 261.856 58.3239 264.802C61.5597 267.747 65.4574 269.87 69.6873 270.99C75.3505 272.488 81.3427 272.121 86.7801 269.944C87.9357 275.239 90.4218 280.152 94.0036 284.219C97.5855 288.286 102.145 291.373 107.251 293.188C112.358 295.004 117.843 295.487 123.188 294.593C128.534 293.698 133.563 291.455 137.8 288.076C137.832 288.055 137.868 288.04 137.906 288.034C140.449 293.636 144.548 298.389 149.717 301.726C154.885 305.063 160.904 306.844 167.056 306.857C171.117 306.855 175.14 306.074 178.906 304.555C183.616 302.638 187.803 299.628 191.121 295.773C194.438 291.919 196.792 287.331 197.988 282.388C198.01 282.384 198.034 282.387 198.055 282.395C198.077 282.403 198.096 282.418 198.11 282.436C201.767 287.226 206.703 290.884 212.35 292.988C217.997 295.092 224.123 295.555 230.022 294.325C235.922 293.097 241.354 290.225 245.691 286.042C250.028 281.858 253.093 276.533 254.533 270.682C259.199 272.12 264.169 272.264 268.91 271.097C273.651 269.931 277.987 267.499 281.453 264.06C285.323 260.288 287.98 255.447 289.084 250.157C290.187 244.866 289.687 239.367 287.648 234.362C285.609 229.358 282.122 225.076 277.634 222.064C273.147 219.053 267.863 217.449 262.458 217.458C257.329 217.495 250.161 220.273 246.929 221.549" stroke="#30846D" stroke-width="1.645" stroke-linecap="round" stroke-linejoin="round"/>
<path d="M263.311 169.112L287.137 181.717" stroke="#30846D" stroke-width="1.645" stroke-linecap="round" stroke-linejoin="round"/>
<path d="M66.7752 169.026L43.0469 181.699" stroke="#30846D" stroke-width="1.645" stroke-linecap="round" stroke-linejoin="round"/>
<path d="M173.327 109.55C170.591 105.021 169.965 99.8192 169.651 94.6945C169.085 95.2837 168.425 95.7764 167.698 96.1512C166.491 96.7157 165.13 96.858 163.832 96.5552C162.535 96.2524 161.376 95.5221 160.544 94.4817C159.426 106.671 154.943 113.632 148.383 118.257C159.26 121.687 170.93 121.687 181.807 118.257C178.35 116.043 175.449 113.064 173.327 109.55Z" stroke="#30846D" stroke-width="1.645" stroke-linecap="round" stroke-linejoin="round"/>
<path d="M143.242 159.724C146.557 162.431 150.545 164.188 154.78 164.807" stroke="#30846D" stroke-width="1.645" stroke-linecap="round" stroke-linejoin="round"/>
<path d="M186.935 159.724C183.62 162.431 179.632 164.188 175.397 164.807" stroke="#30846D" stroke-width="1.645" stroke-linecap="round" stroke-linejoin="round"/>
<path d="M164.364 199.967C149.087 189.561 135.885 180.573 126.228 175.81C118.166 171.838 98.0145 163.873 85.0168 175.692C72.5659 187.014 69.8685 207.243 84.8286 223.365C91.2561 230.023 98.9772 235.297 107.518 238.862L119.928 231.076C139.579 240.759 160.782 247.732 181.827 253.881L199.689 223.285C187.638 215.816 176.126 207.979 164.364 199.967Z" stroke="#30846D" stroke-width="1.645" stroke-linecap="round" stroke-linejoin="round"/>
<path d="M119.934 231.076C105.515 224.09 98.8044 218.261 92.5225 208.305" stroke="#30846D" stroke-width="1.645" stroke-linecap="round" stroke-linejoin="round"/>
<path d="M87.7168 252.509H146.137" stroke="#30846D" stroke-width="1.645" stroke-linecap="round" stroke-linejoin="round"/>
<path d="M119.933 231.076L117.88 232.361C117.88 232.361 111.333 236.464 105.632 240.053C99.9315 243.643 87.2023 250.822 85.2021 255.971H141.496L147.116 251.781L140.242 240.009C133.335 237.289 126.55 234.335 119.933 231.076Z" stroke="#30846D" stroke-width="1.645" stroke-linecap="round" stroke-linejoin="round"/>
<path d="M165.089 200.46L165.812 199.969C181.09 189.562 194.292 180.575 203.949 175.811C212.01 171.839 232.162 163.874 245.16 175.694C257.611 187.015 260.308 207.244 245.348 223.366C238.921 230.025 231.2 235.298 222.659 238.863" stroke="#30846D" stroke-width="1.645" stroke-linecap="round" stroke-linejoin="round"/>
<path d="M210.243 231.076C224.662 224.09 231.372 218.261 237.654 208.305" stroke="#30846D" stroke-width="1.645" stroke-linecap="round" stroke-linejoin="round"/>
<path d="M224.545 240.05C218.847 236.464 212.297 232.358 212.297 232.358L199.189 224.149L183.061 251.775L188.681 255.965H244.975C242.975 250.819 230.242 243.637 224.545 240.05Z" stroke="#30846D" stroke-width="1.645" stroke-linecap="round" stroke-linejoin="round"/>
<path d="M242.46 252.509H184.04" stroke="#30846D" stroke-width="1.645" stroke-linecap="round" stroke-linejoin="round"/>
<path d="M165.088 248.78C159.53 250.557 153.948 252.257 148.344 253.881L140.243 240.006" stroke="#30846D" stroke-width="1.645" stroke-linecap="round" stroke-linejoin="round"/>
<path d="M181.85 189.135V182.385" stroke="#30846D" stroke-width="1.645" stroke-linecap="round" stroke-linejoin="round"/>
<path d="M148.328 182.303V189.135" stroke="#30846D" stroke-width="1.645" stroke-linecap="round" stroke-linejoin="round"/>
<path d="M40.3238 176.852C32.6768 177.252 30.9287 176.689 23.3259 182.316C20.505 184.155 18.185 186.667 16.5742 189.624C15.1388 192.696 16.4253 193.516 18.211 192.871C19.0248 192.534 19.7921 192.094 20.4943 191.562L27.7305 186.923L27.8074 186.969C27.683 190.243 24.177 193.703 20.4665 197.371C17.6733 199.937 15.1624 202.794 12.9766 205.894C11.5731 207.995 10.5857 210.347 10.068 212.82C10.0223 213.023 10.017 213.232 10.0526 213.436C10.0881 213.64 10.1638 213.835 10.2752 214.01C10.3866 214.185 10.5316 214.335 10.7016 214.454C10.8717 214.572 11.0636 214.656 11.2661 214.699C11.4601 214.753 11.6656 214.749 11.8574 214.688C12.0492 214.627 12.2191 214.512 12.3464 214.356C12.6901 214.05 13.0601 213.714 13.3596 213.423C13.065 213.966 12.8309 214.541 12.664 215.135C12.4779 215.521 12.4046 215.951 12.4524 216.377C12.5001 216.802 12.6671 217.206 12.934 217.541C13.294 217.885 13.7581 218.099 14.2533 218.15C14.7485 218.201 15.2466 218.086 15.6691 217.822C16.3813 217.41 17.0311 216.899 17.5988 216.303C17.2878 216.867 17.034 217.459 16.841 218.073C16.7267 218.311 16.6673 218.571 16.6673 218.835C16.6673 219.099 16.7267 219.359 16.841 219.597C16.9715 219.83 17.1479 220.034 17.3594 220.197C17.5709 220.36 17.8133 220.479 18.0719 220.546C18.8134 220.677 19.5768 220.592 20.2716 220.302C20.9665 220.012 21.5635 219.528 21.9919 218.909C22.2129 218.723 22.4568 218.564 22.717 218.438C22.3938 218.749 22.1588 219.14 22.036 219.571C21.9133 220.002 21.9071 220.459 22.0181 220.893C22.1401 221.258 22.3841 221.57 22.7091 221.776C23.034 221.982 23.4201 222.069 23.8022 222.024C24.3342 222.004 24.8628 221.936 25.3817 221.819C25.5683 221.783 25.7532 221.747 25.9366 221.716C33.8553 220.371 38.3286 214.992 43.0671 209.298C45.9484 205.573 49.2381 202.183 52.8746 199.191L40.3238 176.852Z" stroke="#30846D" stroke-width="1.645" stroke-linecap="round" stroke-linejoin="round"/>
<path d="M38.1584 204.91C35.4358 209.834 31.2501 213.79 26.1805 216.23C24.9824 216.892 23.8252 217.628 22.7188 218.433" stroke="#30846D" stroke-width="1.645" stroke-linecap="round" stroke-linejoin="round"/>
<path d="M34.1459 198.987C30.8017 204.285 26.5072 208.919 21.4789 212.656C20.185 213.595 18.9797 214.651 17.878 215.81C17.4278 216.512 17.0759 217.271 16.8271 218.068" stroke="#30846D" stroke-width="1.645" stroke-linecap="round" stroke-linejoin="round"/>
<path d="M29.589 196.385C26.6577 200.818 22.9891 204.715 18.7421 207.908C15.8122 210.277 13.5044 212.148 12.6631 215.13" stroke="#30846D" stroke-width="1.645" stroke-linecap="round" stroke-linejoin="round"/>
<path d="M289.853 176.852C297.5 177.252 299.248 176.689 306.85 182.316C309.671 184.156 311.991 186.667 313.602 189.624C315.038 192.696 313.751 193.516 311.965 192.871C311.152 192.534 310.384 192.094 309.682 191.562L302.446 186.923L302.369 186.969C302.493 190.243 305.999 193.703 309.71 197.371C312.503 199.936 315.014 202.794 317.2 205.894C318.604 207.995 319.591 210.347 320.108 212.82C320.155 213.023 320.16 213.232 320.124 213.436C320.089 213.641 320.013 213.836 319.9 214.01C319.789 214.185 319.644 214.336 319.474 214.454C319.304 214.572 319.113 214.656 318.91 214.699C318.716 214.753 318.511 214.749 318.319 214.688C318.127 214.627 317.957 214.512 317.83 214.356C317.486 214.05 317.116 213.714 316.817 213.423C317.111 213.966 317.345 214.541 317.512 215.135C317.698 215.521 317.772 215.951 317.724 216.377C317.676 216.802 317.509 217.206 317.242 217.541C316.882 217.885 316.418 218.099 315.923 218.15C315.428 218.201 314.93 218.086 314.507 217.822C313.795 217.41 313.145 216.899 312.578 216.303C312.889 216.867 313.142 217.459 313.335 218.073C313.45 218.31 313.51 218.571 313.51 218.835C313.51 219.099 313.45 219.359 313.335 219.597C313.205 219.83 313.028 220.034 312.817 220.197C312.605 220.36 312.363 220.479 312.105 220.546C311.363 220.676 310.6 220.591 309.905 220.301C309.21 220.011 308.613 219.528 308.184 218.909C307.963 218.722 307.72 218.564 307.459 218.438C307.783 218.749 308.018 219.14 308.141 219.571C308.263 220.002 308.269 220.459 308.158 220.893C308.037 221.258 307.793 221.57 307.468 221.777C307.143 221.983 306.756 222.07 306.374 222.024C305.843 222.004 305.314 221.936 304.795 221.819C304.608 221.783 304.423 221.747 304.24 221.716C296.321 220.371 291.848 214.992 287.109 209.298C284.228 205.573 280.938 202.183 277.302 199.191L289.853 176.852Z" stroke="#30846D" stroke-width="1.645" stroke-linecap="round" stroke-linejoin="round"/>
<path d="M292.018 204.91C294.74 209.834 298.926 213.79 303.995 216.23C305.194 216.892 306.351 217.628 307.457 218.433" stroke="#30846D" stroke-width="1.645" stroke-linecap="round" stroke-linejoin="round"/>
<path d="M296.029 198.987C299.373 204.285 303.668 208.919 308.696 212.656C309.99 213.595 311.195 214.651 312.297 215.81C312.747 216.512 313.101 217.271 313.348 218.068" stroke="#30846D" stroke-width="1.645" stroke-linecap="round" stroke-linejoin="round"/>
<path d="M300.587 196.385C303.518 200.818 307.187 204.715 311.434 207.908C314.364 210.277 316.671 212.148 317.513 215.13" stroke="#30846D" stroke-width="1.645" stroke-linecap="round" stroke-linejoin="round"/>
<path d="M27.0859 157.154V176.026" stroke="#30846D" stroke-width="1.645" stroke-linecap="round" stroke-linejoin="round"/>
<path d="M36.5224 166.59H17.6504" stroke="#30846D" stroke-width="1.645" stroke-linecap="round" stroke-linejoin="round"/>
<path d="M43.5879 104.874V115.765" stroke="#30846D" stroke-width="1.645" stroke-linecap="round" stroke-linejoin="round"/>
<path d="M49.0317 110.32H38.1406" stroke="#30846D" stroke-width="1.645" stroke-linecap="round" stroke-linejoin="round"/>
<path d="M75.7119 52.6885V66.5438" stroke="#30846D" stroke-width="1.645" stroke-linecap="round" stroke-linejoin="round"/>
<path d="M82.6375 59.6167H68.7822" stroke="#30846D" stroke-width="1.645" stroke-linecap="round" stroke-linejoin="round"/>
<path d="M115.694 73.2578V86.9118" stroke="#30846D" stroke-width="1.645" stroke-linecap="round" stroke-linejoin="round"/>
<path d="M122.521 80.0852H108.867" stroke="#30846D" stroke-width="1.645" stroke-linecap="round" stroke-linejoin="round"/>
<path d="M254.646 22.0547V52.777" stroke="#30846D" stroke-width="1.645" stroke-linecap="round" stroke-linejoin="round"/>
<path d="M270.008 37.4158H239.284" stroke="#30846D" stroke-width="1.645" stroke-linecap="round" stroke-linejoin="round"/>
<path d="M276.867 76.7756H295.682" stroke="#30846D" stroke-width="1.645" stroke-linecap="round" stroke-linejoin="round"/>
<path d="M286.274 86.182V67.3689" stroke="#30846D" stroke-width="1.645" stroke-linecap="round" stroke-linejoin="round"/>
<path d="M269.098 131.571V141.048" stroke="#30846D" stroke-width="1.645" stroke-linecap="round" stroke-linejoin="round"/>
<path d="M273.836 136.31H264.359" stroke="#30846D" stroke-width="1.645" stroke-linecap="round" stroke-linejoin="round"/>
<path d="M293.626 157.794L311.103 175.27" stroke="#30846D" stroke-width="1.645" stroke-linecap="round" stroke-linejoin="round"/>
<path d="M293.626 175.27L311.103 157.794" stroke="#30846D" stroke-width="1.645" stroke-linecap="round" stroke-linejoin="round"/>
<path d="M304.716 250.314L311.931 257.531" stroke="#30846D" stroke-width="1.645" stroke-linecap="round" stroke-linejoin="round"/>
<path d="M304.716 257.531L311.931 250.314" stroke="#30846D" stroke-width="1.645" stroke-linecap="round" stroke-linejoin="round"/>
<path d="M71.0186 278.143L78.3235 285.448" stroke="#30846D" stroke-width="1.645" stroke-linecap="round" stroke-linejoin="round"/>
<path d="M71.0186 285.448L78.3235 278.143" stroke="#30846D" stroke-width="1.645" stroke-linecap="round" stroke-linejoin="round"/>
</svg>
