<svg width="299" height="308" viewBox="0 0 299 308" fill="none" xmlns="http://www.w3.org/2000/svg">
<path d="M206.358 72.2917C195.406 70.8229 182.705 69.3235 182.705 69.3235C185.182 69.6601 186.467 74.8928 185.641 80.9823C184.815 87.0718 182.122 91.7521 179.645 91.4155C178.054 91.2013 176.952 88.9369 176.585 85.7238C175.055 86.0604 173.494 86.3374 171.903 86.6128C171.903 86.6128 179.584 98.4537 172.576 101.116C166.487 103.411 152.563 91.6603 152.563 91.6603C135.688 100.092 102.982 106.639 85.4932 110.069C89.9447 109.335 94.6846 130.779 90.3248 131.868C110.703 128.196 132.919 122.933 151.951 114.55C155.256 119.475 161.713 125.289 162.447 131.348C170.893 133.28 181.083 133.031 186.314 129.542C188.73 113.57 187.844 106.189 185.916 101.697C192.728 100.732 199.378 98.8478 205.684 96.0974C222.395 89.0383 218.382 73.9377 206.358 72.2917Z" fill="#80D7D8"/>
<path d="M174.075 177.832L171.382 177.557L170.372 180.158L168.016 179.675L158.56 199.135C156.961 202.434 154.146 204.986 150.705 206.252C147.264 207.519 143.467 207.403 140.11 205.928L115.17 193.902L102.962 200.787C101.096 215.078 112.019 242.403 130.257 251.185L171.076 228.296C174.014 217.556 178.084 202.47 178.573 200.451C175.553 185.316 175.112 183.147 174.075 177.832Z" fill="#80D7D8"/>
<path d="M176.555 85.449C177.32 93.0379 181.634 93.4051 184.295 86.3074C181.686 86.4196 179.076 86.1301 176.555 85.449Z" fill="#20B9BA"/>
<path d="M181.601 69.4414L181.448 71.4916C181.754 72.073 183.898 72.5626 185.304 72.5932C184.661 70.3642 183.384 68.6812 181.601 69.4414Z" fill="#20B9BA"/>
<path d="M208.806 72.9043C215.169 75.2911 222.115 83.5533 211.713 92.4259C208.931 94.6261 205.781 96.3164 202.41 97.4186C204.56 107.254 207.578 116.879 211.429 126.182C225.81 118.501 240.682 114.83 253.563 115.069C236.039 89.5736 218.596 72.9655 208.806 72.9043Z" fill="#20B9BA"/>
<path d="M197.362 211.549C197.056 212.375 196.75 213.202 196.413 214.058L199.29 212.467C198.635 212.186 197.992 211.88 197.362 211.549Z" fill="#20B9BA"/>
<path d="M282.518 166.476C276.062 177.589 265.198 188.417 251.154 196.74C258.751 206.871 281.94 235.233 292.89 229.084C301.642 224.155 296.838 198.269 282.518 166.476Z" fill="#20B9BA"/>
<path d="M83.8994 112.745C85.154 112.316 87.5103 111.456 87.6633 111.429C85.8273 109.134 84.389 109.899 83.8994 112.745Z" fill="#20B9BA"/>
<path d="M144.249 49.802C140.937 49.799 137.691 50.7284 134.883 52.4837C132.074 54.2391 129.817 56.7495 128.369 59.7279C127.21 58.5525 125.737 57.7353 124.126 57.3738C122.516 57.0123 120.835 57.1218 119.285 57.6892C117.735 58.2566 116.381 59.2579 115.384 60.5737C114.387 61.8895 113.79 63.4643 113.664 65.1101C113.538 66.756 113.887 68.4034 114.672 69.8559C115.456 71.3084 116.641 72.5047 118.087 73.302C119.532 74.0993 121.176 74.464 122.823 74.3526C124.47 74.2411 126.05 73.6583 127.375 72.6735C128.221 75.4155 129.724 77.9095 131.752 79.9393C133.781 81.9692 136.274 83.4736 139.015 84.3222C141.756 85.1707 144.663 85.3378 147.484 84.8089C150.304 84.2799 152.953 83.071 155.201 81.2868C154.903 80.6419 154.511 80.0448 154.038 79.5152C153.848 79.2608 153.594 79.0604 153.303 78.9338C147.428 78.2896 147.887 72.9361 151.284 74.0683C152.905 74.6191 153.303 74.2825 153.055 73.4241C151.219 68.8952 153.269 58.2156 161.899 68.0078C161.97 65.6444 161.566 63.2909 160.711 61.0864C159.856 58.8819 158.568 56.8714 156.922 55.1738C155.277 53.4762 153.307 52.1261 151.13 51.2034C148.953 50.2807 146.613 49.8042 144.249 49.802Z" fill="#20B9BA"/>
<path d="M21.2622 147.597C18.8153 147.195 16.3111 147.316 13.9146 147.954C11.5182 148.591 9.28412 149.729 7.35983 151.292C5.43555 152.856 3.86482 154.811 2.75131 157.026C1.6378 159.242 1.00683 161.668 0.900056 164.146C0.793278 166.623 1.21311 169.095 2.13186 171.398C3.0506 173.701 4.44736 175.783 6.22994 177.507C8.01253 179.231 10.1404 180.557 12.4731 181.398C14.8059 182.238 17.2904 182.575 19.7628 182.385C17.4692 170.836 17.9834 158.905 21.2622 147.597Z" fill="#20B9BA"/>
<path d="M91.8244 129.354C90.6616 129.752 89.4086 130.15 88.0605 130.517C89.866 132.756 91.3042 132.144 91.8244 129.354Z" fill="#20B9BA"/>
<path d="M60.4992 182.297C71.2566 175.634 82.8399 170.408 94.9539 166.752C93.6411 166.033 92.3921 165.204 91.2206 164.273C76.7028 166.634 62.8697 172.115 50.6748 180.338C53.9132 181.162 57.1924 181.816 60.4992 182.297Z" fill="#20B9BA"/>
<path d="M163.671 249.584C162.324 252.277 161.255 254.175 161.284 254.328C163.968 268.583 169.115 282.263 176.492 294.753C177.468 291.95 178.266 289.088 178.879 286.184C174.473 277.674 166.578 257.265 163.671 249.584Z" fill="#20B9BA"/>
<path d="M157.827 111.8L155.716 119.385C154.339 117.702 152.992 116.08 151.982 114.554C153.944 113.664 155.892 112.746 157.827 111.8Z" fill="#20B9BA"/>
<path d="M159.785 82.1452L164.778 84.8687C164.071 83.8923 163.486 82.834 163.034 81.7168C161.98 82.0286 160.884 82.1732 159.785 82.1452Z" fill="#20B9BA"/>
<path fill-rule="evenodd" clip-rule="evenodd" d="M197.787 45.2121C202.051 43.8361 205.811 41.2265 208.592 37.7134C210.441 35.3816 211.813 32.7082 212.628 29.8459C213.443 26.9837 213.685 23.9889 213.342 21.0328C212.998 18.0769 212.074 15.2179 210.623 12.6196C209.172 10.0212 207.223 7.73448 204.888 5.89035C201.819 3.46201 198.174 1.87007 194.307 1.26967C190.44 0.669271 186.483 1.08089 182.823 2.46441C179.162 3.84793 175.922 6.15617 173.419 9.16417C170.916 12.1722 169.235 15.7774 168.539 19.6284C167.844 23.4794 168.158 27.4449 169.451 31.1384C170.744 34.832 172.972 38.1275 175.917 40.704C178.863 43.2805 182.425 45.05 186.258 45.84C190.091 46.6301 194.063 46.4138 197.787 45.2121ZM193.016 19.936L190.874 15.2541L202.931 19.8764L198.525 32.0539L196.23 27.0048C196.23 27.0048 183.746 33.5227 178.728 20.8234C181.359 27.4944 193.016 19.936 193.016 19.936Z" fill="#20B9BA"/>
<path d="M258.834 262.742C258.835 265.772 258.05 268.75 256.557 271.386C255.064 274.023 252.913 276.227 250.314 277.785C247.716 279.343 244.758 280.201 241.729 280.275C238.7 280.349 235.703 279.638 233.031 278.209C230.359 276.781 228.103 274.685 226.482 272.125C224.862 269.565 223.932 266.629 223.784 263.602C223.635 260.576 224.274 257.563 225.637 254.857C226.999 252.151 229.04 249.844 231.559 248.162C234.443 246.236 237.834 245.208 241.302 245.208C245.95 245.215 250.406 247.064 253.692 250.351C256.979 253.638 258.828 258.094 258.834 262.742Z" fill="#20B9BA"/>
<path d="M144.249 49.8023C140.937 49.7993 137.691 50.7286 134.883 52.484C132.074 54.2393 129.817 56.7498 128.369 59.7281C127.21 58.5527 125.737 57.7355 124.126 57.3741C122.516 57.0126 120.835 57.1221 119.285 57.6894C117.735 58.2568 116.381 59.2581 115.384 60.5739C114.387 61.8898 113.79 63.4645 113.664 65.1104C113.538 66.7562 113.887 68.4036 114.672 69.8562C115.456 71.3087 116.641 72.5049 118.087 73.3022C119.532 74.0996 121.176 74.4642 122.823 74.3528C124.47 74.2414 126.05 73.6585 127.375 72.6738C128.221 75.4157 129.724 77.9097 131.752 79.9396C133.781 81.9694 136.274 83.4739 139.015 84.3224C141.756 85.171 144.663 85.338 147.484 84.8091C150.304 84.2802 152.953 83.0712 155.2 81.2871C154.903 80.6421 154.511 80.045 154.038 79.5154C153.848 79.261 153.594 79.0606 153.303 78.934C147.428 78.2898 147.887 72.9363 151.284 74.0685C152.905 74.6193 153.303 74.2827 153.055 73.4243C151.219 68.8954 153.269 58.2158 161.899 68.008C161.97 65.6447 161.566 63.2911 160.711 61.0867C159.856 58.8822 158.568 56.8716 156.922 55.1741C155.277 53.4765 153.307 52.1264 151.13 51.2037C148.953 50.281 146.613 49.8044 144.249 49.8023Z" stroke="#30846D" stroke-width="1.61865" stroke-linejoin="round"/>
<path d="M199.289 212.467C198.645 212.191 198.001 211.885 197.356 211.549" stroke="#30846D" stroke-width="1.61865" stroke-linecap="round" stroke-linejoin="round"/>
<path d="M171.045 228.288L130.256 251.176C112.018 242.393 101.065 215.068 102.932 200.778L115.14 193.893" stroke="#30846D" stroke-width="1.61865" stroke-linecap="round" stroke-linejoin="round"/>
<path d="M145.098 117.395C150.374 122.932 154.752 129.261 158.072 136.152" stroke="#30846D" stroke-width="1.61865" stroke-linecap="round" stroke-linejoin="round"/>
<path d="M88.0301 241.413C68.8726 240.424 50.8614 231.983 37.8438 217.892C24.8263 203.802 17.8344 185.18 18.3618 166.004C18.8892 146.829 26.8939 128.619 40.6662 115.266C54.4385 101.912 72.8864 94.4736 92.0694 94.5385C102.932 94.5652 113.653 96.9998 123.462 101.667" stroke="#30846D" stroke-width="1.61865" stroke-linecap="round" stroke-linejoin="round"/>
<path d="M182.458 247.527L204.307 286.825C205.179 288.393 205.436 290.23 205.029 291.977C204.622 293.725 203.579 295.259 202.104 296.28C196.392 300.244 190.303 303.636 183.927 306.408C182.282 307.118 180.432 307.192 178.736 306.615C177.039 306.038 175.618 304.852 174.747 303.286L142.093 244.596" stroke="#30846D" stroke-width="1.61865" stroke-linecap="round" stroke-linejoin="round"/>
<path d="M209.167 72.9138C219.053 73.3712 236.282 89.9197 253.572 115.04" stroke="#30846D" stroke-width="1.61865" stroke-linecap="round" stroke-linejoin="round"/>
<path d="M282.521 166.445C296.84 198.238 301.611 224.149 292.893 229.053C281.812 235.286 253.273 205.548 229.124 162.651C215.206 137.926 205.771 114.213 202.381 97.3831" stroke="#30846D" stroke-width="1.61865" stroke-linecap="round" stroke-linejoin="round"/>
<path d="M211.409 126.176C242.1 109.776 275.11 111.646 285.857 130.736C296.605 149.826 281.114 178.991 251.158 196.769" stroke="#30846D" stroke-width="1.61865" stroke-linecap="round" stroke-linejoin="round"/>
<path d="M286.712 229.48L199.29 212.467L196.413 214.059" stroke="#30846D" stroke-width="1.61865" stroke-linecap="round" stroke-linejoin="round"/>
<path d="M130.257 251.175L124.381 254.449C91.3038 269.197 67.9571 220.454 99.4178 202.736L102.937 200.778" stroke="#30846D" stroke-width="1.61865" stroke-linecap="round" stroke-linejoin="round"/>
<path d="M193.994 100.076L187.66 117.304" stroke="#30846D" stroke-width="1.61865" stroke-linecap="round" stroke-linejoin="round"/>
<path d="M163.028 81.717C163.028 81.717 165.013 87.7196 169.516 87.0093C171.931 86.6292 174.289 86.1847 176.615 85.7209" stroke="#30846D" stroke-width="1.61865" stroke-linecap="round" stroke-linejoin="round"/>
<path d="M152.563 91.6666C152.563 91.6666 166.487 103.416 172.576 101.092C179.552 98.4293 171.903 86.5869 171.903 86.5869" stroke="#30846D" stroke-width="1.61865" stroke-linecap="round" stroke-linejoin="round"/>
<path d="M147.882 93.6801C154.033 98.7598 166.149 107.964 174.749 105.125C182.365 102.611 179.829 92.3336 176.157 85.7561" stroke="#30846D" stroke-width="1.61865" stroke-linecap="round" stroke-linejoin="round"/>
<path d="M83.8994 112.744C85.154 112.316 87.5103 111.456 87.6633 111.428C85.8273 109.133 84.389 109.898 83.8994 112.744Z" stroke="#30846D" stroke-width="1.61865" stroke-linecap="round" stroke-linejoin="round"/>
<path d="M181.602 69.477C184.876 68.0694 186.561 74.4343 185.641 80.9829C184.786 87.0724 182.124 91.7494 179.645 91.4161C178.024 91.2002 176.891 88.8392 176.555 85.5117" stroke="#30846D" stroke-width="1.61865" stroke-linecap="round" stroke-linejoin="round"/>
<path d="M182.704 69.293C182.704 69.293 195.428 70.8182 206.358 72.2612C218.557 73.8718 222.416 88.9531 205.685 96.0669C199.371 98.7965 192.724 100.679 185.917 101.667" stroke="#30846D" stroke-width="1.61865" stroke-linecap="round" stroke-linejoin="round"/>
<path d="M179.646 91.385H200.33" stroke="#30846D" stroke-width="1.61865" stroke-linecap="round" stroke-linejoin="round"/>
<path d="M170.954 69.3849C170.644 68.1324 170.047 66.9694 169.21 65.9882C167.607 64.2536 168.011 74.3116 169.607 80.3093C170.583 83.9814 176.676 86.5502 184.294 86.3376" stroke="#30846D" stroke-width="1.61865" stroke-linecap="round" stroke-linejoin="round"/>
<path d="M174.566 60.2356C174.964 57.9406 175.482 50.4644 173.097 57.5122C172.48 59.4135 171.999 61.3565 171.659 63.3263C171.009 66.5582 170.773 69.8593 170.955 73.1507" stroke="#30846D" stroke-width="1.61865" stroke-linecap="round" stroke-linejoin="round"/>
<path d="M181.51 71.4961C181.816 72.0775 183.897 72.5671 185.304 72.5977" stroke="#30846D" stroke-width="1.61865" stroke-linecap="round" stroke-linejoin="round"/>
<path d="M179.064 66.447C179.187 66.1716 179.982 64.4579 180.074 64.2131C182.007 60.082 182.621 61.2465 181.939 66.1716C181.48 70.1233 181.235 74.097 181.205 78.0752" stroke="#30846D" stroke-width="1.61865" stroke-linecap="round" stroke-linejoin="round"/>
<path d="M175.76 67.5487C176.341 64.6497 177.382 60.8472 177.692 59.9903C179.834 53.9926 181.566 55.0314 180.269 61.0614C179.527 64.487 178.892 66.9979 178.498 69.2929" stroke="#30846D" stroke-width="1.61865" stroke-linecap="round" stroke-linejoin="round"/>
<path d="M177.963 59.3478C178.82 49.9856 175.906 54.7561 174.719 59.6844C174.157 61.9423 173.727 64.231 173.431 66.5389" stroke="#30846D" stroke-width="1.61865" stroke-linecap="round" stroke-linejoin="round"/>
<path d="M172.576 66.5427C173.906 66.7241 175.181 67.1925 176.311 67.9156C177.442 68.6387 178.402 69.5991 179.125 70.7302" stroke="#30846D" stroke-width="1.61865" stroke-linecap="round" stroke-linejoin="round"/>
<path d="M68.3923 121.435C68.3923 121.435 65.2099 121.007 60.3138 120.395C55.1729 119.75 54.4385 117.624 60.375 117.61C61.0192 117.61 67.5355 117.47 69.4634 117.426C70.5038 117.402 73.4656 117.029 73.472 116.08C73.4865 113.418 68.394 107.705 70.2896 106.38C71.5152 105.526 75.1921 109.097 77.6015 111.704C78.2901 112.438 79.179 112.955 80.1581 113.188C81.1373 113.422 82.1635 113.364 83.1096 113.02C83.2932 112.955 87.4243 111.49 87.6079 111.429" stroke="#30846D" stroke-width="1.61865" stroke-linecap="round" stroke-linejoin="round"/>
<path d="M69.7328 121.19C69.7328 121.19 58.533 123.179 57.7986 123.3C51.9555 124.267 52.9943 126.212 58.1658 126.054C63.0925 125.906 69.1176 125.81 69.1176 125.81" stroke="#30846D" stroke-width="1.61865" stroke-linecap="round" stroke-linejoin="round"/>
<path d="M70.987 125.167C67.4886 126.373 63.9227 127.375 60.3074 128.165C54.5207 129.468 55.7173 131.169 60.8888 130.889C64.0823 130.798 67.264 130.46 70.4056 129.879" stroke="#30846D" stroke-width="1.61865" stroke-linecap="round" stroke-linejoin="round"/>
<path d="M73.4044 128.388C70.6071 129.977 67.6272 131.221 64.5302 132.092C58.7789 133.69 60.0915 135.299 65.4176 134.724C66.8559 134.563 68.1089 134.385 69.1509 134.203C72.1715 133.663 75.2008 133.174 78.2377 132.735C82.8549 131.976 87.4064 130.861 91.8517 129.401" stroke="#30846D" stroke-width="1.61865" stroke-linecap="round" stroke-linejoin="round"/>
<path d="M69.4268 119.385C70.3448 124.524 72.4868 127.645 76.1573 131.379" stroke="#30846D" stroke-width="1.61865" stroke-linecap="round" stroke-linejoin="round"/>
<path d="M73.6787 117.977C75.2046 119.946 77.1241 121.574 79.3148 122.76C81.5056 123.945 83.9194 124.66 86.4021 124.86" stroke="#30846D" stroke-width="1.61865" stroke-linecap="round" stroke-linejoin="round"/>
<path d="M151.966 114.567C155.274 119.489 161.716 125.297 162.449 131.348C170.895 133.28 181.083 133.031 186.316 129.542C190.02 105.033 185.949 100.779 182.338 96.0667" stroke="#30846D" stroke-width="1.61865" stroke-linecap="round" stroke-linejoin="round"/>
<path d="M186.316 129.515C186.316 129.515 194.207 149.742 202.412 172.507C192.611 176.647 181.959 178.368 171.354 177.526" stroke="#30846D" stroke-width="1.61865" stroke-linecap="round" stroke-linejoin="round"/>
<path d="M181.51 151.024L170.339 180.124C159.908 178.005 149.872 174.268 140.597 169.046C145.767 149.616 155.467 138.661 162.444 131.317" stroke="#30846D" stroke-width="1.61865" stroke-linecap="round" stroke-linejoin="round"/>
<path d="M143.171 170.454C142.185 176.264 141.572 182.131 141.335 188.019" stroke="#30846D" stroke-width="1.61865" stroke-linecap="round" stroke-linejoin="round"/>
<path d="M142.008 179.053C142.008 179.053 116.915 173.759 106.666 171.25C96.4162 168.74 91.2737 164.303 91.2737 164.303C76.7564 166.664 62.9238 172.145 50.7295 180.369C76.922 186.795 83.3175 179.175 96.2922 184.806L140.08 205.918C143.437 207.392 147.234 207.507 150.674 206.24C154.115 204.974 156.93 202.423 158.531 199.125L167.986 179.665" stroke="#30846D" stroke-width="1.61865" stroke-linecap="round" stroke-linejoin="round"/>
<path d="M198.923 173.85C200.571 182.302 201.198 190.921 200.79 199.523C200.695 201.027 200.428 202.516 199.994 203.96C195.967 217.369 180.687 251.573 180.687 251.573C176.923 262.864 184.143 272.655 176.499 294.749C169.184 282.229 164.041 268.561 161.291 254.324C161.239 254.063 164.863 247.881 167.163 241.806C168.757 237.598 178.33 201.368 178.549 200.468L174.082 177.795" stroke="#30846D" stroke-width="1.61865" stroke-linecap="round" stroke-linejoin="round"/>
<path d="M68.7543 249.985C68.1836 249.824 67.5869 249.777 66.9981 249.847C66.4093 249.917 65.8401 250.102 65.3229 250.392C64.8057 250.681 64.3506 251.07 63.9838 251.536C63.617 252.002 63.3455 252.535 63.185 253.106L62.726 254.667L61.1653 254.208C60.0121 253.884 58.7774 254.031 57.7326 254.617C56.6878 255.203 55.9182 256.179 55.5928 257.332C55.2682 258.486 55.415 259.721 56.001 260.766C56.5869 261.811 57.564 262.58 58.7173 262.905L68.9685 265.804L71.8675 255.554C72.1911 254.403 72.0451 253.17 71.4616 252.126C70.878 251.082 69.9045 250.312 68.7543 249.985Z" stroke="#30846D" stroke-width="1.61865" stroke-linecap="round" stroke-linejoin="round"/>
<path d="M264.403 101.491C263.595 102.112 262.574 102.387 261.563 102.255C260.552 102.123 259.636 101.595 259.014 100.787C258.393 99.9793 258.118 98.9577 258.25 97.947C258.382 96.9364 258.91 96.0196 259.718 95.3983C260.118 95.0907 260.575 94.8649 261.062 94.7338C261.55 94.6027 262.058 94.5688 262.558 94.6342C263.059 94.6995 263.541 94.8628 263.979 95.1147C264.416 95.3666 264.799 95.7021 265.107 96.1022C265.415 96.5022 265.641 96.9589 265.772 97.4463C265.903 97.9336 265.937 98.442 265.871 98.9424C265.806 99.4428 265.643 99.9254 265.391 100.363C265.139 100.8 264.803 101.183 264.403 101.491Z" stroke="#30846D" stroke-width="1.61865" stroke-linecap="round" stroke-linejoin="round"/>
<path d="M19.4575 147.392C15.9491 147.189 12.4603 148.044 9.44367 149.847C6.42699 151.65 4.02151 154.317 2.53909 157.504C1.05666 160.69 0.565671 164.248 1.12977 167.717C1.69387 171.186 3.28704 174.405 5.70272 176.958C8.11841 179.51 11.2452 181.278 14.6777 182.032C18.1102 182.786 21.6901 182.492 24.9533 181.187C28.2164 179.882 31.0123 177.627 32.9785 174.714C34.9447 171.801 35.9905 168.365 35.9802 164.851C35.9757 160.381 34.2617 156.083 31.1896 152.837C28.1174 149.591 23.9199 147.643 19.4575 147.392Z" stroke="#30846D" stroke-width="1.61865" stroke-linecap="round" stroke-linejoin="round"/>
<path d="M91.8303 129.409C90.6675 129.807 89.4144 130.205 88.0664 130.572C89.8718 132.806 91.3101 132.194 91.8303 129.409Z" stroke="#30846D" stroke-width="1.61865" stroke-linecap="round" stroke-linejoin="round"/>
<path d="M159.785 82.1753L164.742 84.8681" stroke="#30846D" stroke-width="1.61865" stroke-linecap="round" stroke-linejoin="round"/>
<path d="M159.786 82.176C159.786 82.176 174.352 82.2066 161.897 68.0385C153.455 58.3993 151.31 68.4411 152.941 73.1214C153.318 74.2037 153.139 74.732 151.279 74.0974C147.882 72.97 147.423 78.3203 153.299 78.9629C153.764 79.2254 154.162 79.591 154.461 80.0339C158.166 86.0912 157.919 89.5185 151.157 92.3337C132.92 99.8921 116.886 103.93 85.4297 110.082C87.9035 109.518 90.4047 116.856 91.0328 119.359C91.7399 122.176 93.1265 131.197 90.3258 131.899C112.848 127.829 137.572 121.863 157.828 111.826L155.684 119.385" stroke="#30846D" stroke-width="1.61865" stroke-linecap="round" stroke-linejoin="round"/>
<path d="M167.441 136.642C167.441 136.642 164.864 140.743 158.077 140.743" stroke="#30846D" stroke-width="1.61865" stroke-linecap="round" stroke-linejoin="round"/>
<path d="M58.3789 68.6499L65.2028 83.4606" stroke="#30846D" stroke-width="1.61865" stroke-linecap="round" stroke-linejoin="round"/>
<path d="M69.1824 72.6589L54.4023 79.4829" stroke="#30846D" stroke-width="1.61865" stroke-linecap="round" stroke-linejoin="round"/>
<path d="M190.874 15.2537L193.016 19.9356C193.016 19.9356 181.359 27.4939 178.728 20.823C183.746 33.5222 196.229 27.0043 196.229 27.0043L198.525 32.0534L202.931 19.876L190.874 15.2537Z" stroke="#30846D" stroke-width="1.61865" stroke-linecap="round" stroke-linejoin="round"/>
<path d="M208.591 37.7133C205.811 41.2266 202.051 43.8364 197.787 45.2127C193.523 46.589 188.947 46.6701 184.637 45.4455C180.327 44.221 176.477 41.7459 173.573 38.3333C170.67 34.9206 168.844 30.7237 168.326 26.2732C167.808 21.8227 168.621 17.3185 170.663 13.3302C172.705 9.34197 175.883 6.04873 179.797 3.86697C183.71 1.68521 188.183 0.712929 192.649 1.07307C197.115 1.43321 201.374 3.1096 204.887 5.89025C207.222 7.73487 209.171 10.0217 210.621 12.62C212.072 15.2183 212.996 18.077 213.341 21.0327C213.684 23.9888 213.441 26.9835 212.626 29.8457C211.811 32.7078 210.44 35.3813 208.591 37.7133Z" stroke="#30846D" stroke-width="1.61865" stroke-linecap="round" stroke-linejoin="round"/>
<path d="M241.516 267.086C242.028 267.046 242.54 267.159 242.987 267.411C243.435 267.662 243.797 268.041 244.03 268.498C244.262 268.956 244.353 269.472 244.292 269.982C244.231 270.492 244.02 270.972 243.686 271.361C243.352 271.751 242.91 272.033 242.416 272.171C241.921 272.31 241.397 272.298 240.909 272.139C240.422 271.979 239.992 271.678 239.675 271.275C239.358 270.871 239.168 270.382 239.129 269.871C239.087 269.187 239.312 268.514 239.758 267.994C240.204 267.474 240.834 267.149 241.516 267.086Z" stroke="#30846D" stroke-width="1.61865" stroke-linecap="round" stroke-linejoin="round"/>
<path d="M247.791 256.132C248.302 256.093 248.814 256.206 249.262 256.457C249.709 256.709 250.072 257.087 250.304 257.545C250.537 258.002 250.628 258.519 250.567 259.028C250.506 259.538 250.295 260.018 249.961 260.408C249.627 260.797 249.185 261.079 248.69 261.218C248.196 261.356 247.672 261.345 247.184 261.185C246.696 261.026 246.267 260.725 245.95 260.321C245.633 259.917 245.443 259.429 245.404 258.917C245.361 258.233 245.586 257.56 246.032 257.04C246.477 256.52 247.108 256.194 247.791 256.132Z" stroke="#30846D" stroke-width="1.61865" stroke-linecap="round" stroke-linejoin="round"/>
<path d="M234.356 255.49C234.868 255.451 235.38 255.564 235.827 255.815C236.275 256.066 236.638 256.445 236.87 256.903C237.102 257.36 237.194 257.877 237.132 258.386C237.071 258.896 236.86 259.376 236.526 259.766C236.192 260.155 235.75 260.437 235.256 260.576C234.762 260.714 234.237 260.703 233.75 260.543C233.262 260.383 232.832 260.083 232.515 259.679C232.198 259.275 232.008 258.787 231.969 258.275C231.926 257.591 232.151 256.918 232.597 256.397C233.042 255.877 233.674 255.552 234.356 255.49Z" stroke="#30846D" stroke-width="1.61865" stroke-linecap="round" stroke-linejoin="round"/>
<path d="M237.141 257.877L245.433 258.917" stroke="#30846D" stroke-width="1.61865" stroke-linecap="round" stroke-linejoin="round"/>
<path d="M242.771 267.3L246.505 260.814" stroke="#30846D" stroke-width="1.61865" stroke-linecap="round" stroke-linejoin="round"/>
<path d="M258.834 262.742C258.835 265.772 258.05 268.75 256.557 271.386C255.064 274.023 252.913 276.227 250.314 277.785C247.716 279.342 244.758 280.2 241.729 280.275C238.7 280.349 235.703 279.637 233.031 278.209C230.359 276.781 228.103 274.684 226.482 272.124C224.862 269.565 223.932 266.628 223.784 263.602C223.635 260.576 224.274 257.563 225.637 254.857C226.999 252.151 229.04 249.844 231.559 248.162C234.443 246.236 237.834 245.208 241.302 245.208C245.95 245.215 250.406 247.064 253.692 250.351C256.979 253.638 258.828 258.094 258.834 262.742Z" stroke="#30846D" stroke-width="1.61865" stroke-linecap="round" stroke-linejoin="round"/>
<path d="M60.4992 182.296C71.2566 175.633 82.8399 170.407 94.9539 166.751C93.6411 166.033 92.3921 165.204 91.2206 164.272C76.7028 166.633 62.8697 172.114 50.6748 180.338C53.9132 181.162 57.1924 181.815 60.4992 182.296Z" stroke="#30846D" stroke-width="1.61865" stroke-linecap="round" stroke-linejoin="round"/>
<path d="M163.671 249.584C162.324 252.277 161.255 254.174 161.284 254.327C163.968 268.583 169.115 282.262 176.492 294.752C177.468 291.949 178.266 289.088 178.879 286.184C174.473 277.674 166.578 257.265 163.671 249.584Z" stroke="#30846D" stroke-width="1.61865" stroke-linecap="round" stroke-linejoin="round"/>
</svg>
