<svg width="290" height="289" viewBox="0 0 290 289" fill="none" xmlns="http://www.w3.org/2000/svg">
<path d="M66.782 195.702L55.5846 196.467C56.0935 196.45 56.591 196.625 56.9778 196.959C61.7857 201.084 41.3808 235.664 34.5801 234.462C34.2269 234.33 33.8955 234.146 33.5967 233.916C37.2486 237.568 46.2664 229.552 49.901 225.016C54.5997 219.17 61.4291 216.549 68.1464 215.593C70.1334 210.171 69.4548 200.339 66.7834 195.702H66.782Z" fill="#80D7D8"/>
<path d="M232.914 278.712C227.996 274.589 220.786 269.51 214.339 267.623L211.221 261.449C206.198 264.054 200.596 265.341 194.941 265.187L196.416 267.618C195.269 270.872 194.544 274.259 194.259 277.697C194.211 278.316 194.356 278.934 194.675 279.466C194.994 279.999 195.471 280.418 196.039 280.667C196.416 280.834 196.824 280.919 197.235 280.921C208.408 280.948 218.159 281.057 232.029 281.084C232.236 281.085 232.439 281.039 232.625 280.949C232.81 280.858 232.972 280.727 233.099 280.564C233.225 280.401 233.313 280.212 233.354 280.01C233.396 279.808 233.391 279.599 233.339 279.399C233.271 279.132 233.123 278.892 232.914 278.712Z" fill="#80D7D8"/>
<path d="M96.3428 112.446C96.6312 111.834 97.1095 111.332 97.7065 111.013C98.3034 110.695 98.9872 110.577 99.6562 110.679C100.325 110.78 100.944 111.094 101.42 111.575C101.896 112.056 102.204 112.678 102.298 113.348C100.245 113.075 98.2507 112.774 96.3428 112.446Z" stroke="#4F9986" stroke-width="1.445" stroke-linecap="round" stroke-linejoin="round"/>
<path fill-rule="evenodd" clip-rule="evenodd" d="M119.06 107.802C119.061 106.79 118.863 105.788 118.476 104.853C118.089 103.918 117.522 103.068 116.806 102.353C116.09 101.637 115.241 101.07 114.305 100.683C113.37 100.297 112.368 100.099 111.356 100.1H56.3223C55.3105 100.099 54.3083 100.297 53.3732 100.684C52.4382 101.07 51.5886 101.638 50.8731 102.353C50.1576 103.069 49.5903 103.918 49.2037 104.853C48.8171 105.788 48.6188 106.79 48.6201 107.802V139.133C48.6188 140.145 48.8171 141.147 49.2037 142.082C49.5903 143.017 50.1576 143.867 50.8731 144.582C51.5886 145.298 52.4382 145.865 53.3732 146.251C54.3083 146.638 55.3105 146.836 56.3223 146.835H111.36C113.403 146.835 115.363 146.024 116.808 144.581C117.523 143.865 118.089 143.015 118.476 142.081C118.862 141.146 119.061 140.144 119.06 139.133V133.945C112.777 134.053 106.493 133.707 100.264 132.912L102.212 136.292H65.3645L76.9184 116.269C74.7442 115.598 72.5485 114.998 70.3348 114.471C66.9791 113.664 67.524 112.921 68.0675 112.804C70.0505 112.522 72.0622 112.504 74.05 112.75L73.9465 112.659C73.5713 112.334 73.1974 112.011 72.8481 111.684C69.2536 108.323 69.4981 106.94 74.9271 109.827C76.3651 110.637 77.8384 111.384 79.3425 112.064L80.1678 110.643L81.4704 112.926C84.3388 114.019 87.6298 115.008 90.6635 115.546C91.3405 114.223 92.1658 112.982 93.1236 111.845C94.2493 112.058 95.1178 112.221 96.2464 112.412C96.5341 111.799 97.0122 111.295 97.6094 110.976C98.2066 110.657 98.8909 110.539 99.5604 110.641C100.23 110.742 100.849 111.057 101.325 111.539C101.801 112.02 102.108 112.643 102.202 113.313C107.795 114.062 113.419 114.535 119.06 114.725V107.802Z" fill="#80D7D8"/>
<path fill-rule="evenodd" clip-rule="evenodd" d="M262.004 70.981C262.006 69.4568 261.556 67.9662 260.709 66.6988C259.862 65.4313 258.658 64.4441 257.249 63.8626C256.314 63.4758 255.312 63.2775 254.3 63.2788H199.267C198.255 63.2769 197.252 63.4749 196.317 63.8613C195.382 64.2477 194.532 64.8149 193.816 65.5305C193.101 66.2461 192.533 67.0959 192.147 68.0313C191.761 68.9666 191.563 69.969 191.564 70.981V106.697C196.043 107.638 199.264 108.045 199.698 107.884C208.683 104.554 216.825 98.9802 225.073 91.823C225.987 92.0383 226.866 92.3825 227.683 92.8452C230.278 90.9057 234.2 86.9331 235.074 85.0496C235.722 83.3056 236.738 81.7216 238.053 80.4056H238.485C239.36 80.952 238.348 85.4867 237.884 87.3716C240.624 85.5004 242.995 83.1387 244.877 80.4056C245.97 78.9304 247.199 77.3733 247.8 77.7285C248.647 78.2274 248.029 80.5321 247.717 81.4782C247.162 83.1356 246.342 84.6922 245.29 86.0877C246.472 87.5312 245.886 90.1091 244.772 91.4477C246.163 92.0228 245.643 94.3678 244.293 95.9609C245.536 95.9178 245.872 98.2599 244.47 99.6085L244.457 99.6172C243.809 100.092 242.595 100.983 236.115 105.564C236.302 106.642 236.357 107.613 236.328 108.682C232.136 112.222 227.706 115.344 223.104 118.192H254.306C255.318 118.193 256.32 117.994 257.254 117.607C258.189 117.22 259.038 116.652 259.753 115.937C260.468 115.221 261.035 114.372 261.421 113.437C261.807 112.502 262.005 111.5 262.004 110.488V70.981Z" fill="#80D7D8"/>
<path d="M227.313 115.457C226.234 116.187 225.141 116.898 224.035 117.588C223.916 118.129 223.96 118.693 224.163 119.209C224.365 119.724 224.716 120.168 225.171 120.484C225.626 120.8 226.165 120.973 226.719 120.983C227.273 120.992 227.817 120.836 228.282 120.535C228.747 120.233 229.112 119.799 229.329 119.289C229.547 118.779 229.607 118.215 229.503 117.671C229.399 117.126 229.136 116.624 228.745 116.23C228.355 115.836 227.857 115.567 227.313 115.457Z" fill="#20B9BA"/>
<path d="M86.615 146.835C86.6158 147.387 86.4526 147.926 86.1461 148.385C85.8397 148.844 85.4039 149.201 84.894 149.412C84.5131 149.57 84.1017 149.642 83.6896 149.622C83.2775 149.602 82.875 149.491 82.5112 149.296C82.1475 149.101 81.8316 148.828 81.5865 148.496C81.3414 148.164 81.1731 147.782 81.094 147.377C81.014 146.973 81.0247 146.555 81.1255 146.156C81.2263 145.756 81.4145 145.383 81.6767 145.065C81.9388 144.747 82.2683 144.491 82.6415 144.315C83.0146 144.14 83.422 144.049 83.8344 144.05C84.5711 144.055 85.2761 144.35 85.7967 144.871C86.3172 145.393 86.6112 146.098 86.615 146.835Z" fill="#20B9BA"/>
<path d="M100.272 132.932C96.7787 132.493 93.3064 131.901 89.8654 131.156C89.3139 129.417 88.9476 127.625 88.7727 125.809C86.1988 125.183 83.5569 124.88 80.908 124.907C75.0333 125.071 77.026 123.542 79.049 122.859C81.2876 122.121 86.7238 120.974 84.675 119.444C83.3638 118.816 82.3746 118.294 81.6154 117.862C80.0796 117.25 78.5115 116.722 76.9182 116.281L65.3643 136.292H102.212L100.272 132.932Z" fill="#20B9BA"/>
<path d="M200.928 72.5654V80.4056H244.823C245.916 78.9305 247.136 77.3863 247.746 77.7285C248.205 77.9858 248.321 78.9851 247.992 80.4056H252.607V72.5654H200.928Z" fill="#20B9BA"/>
<path d="M159.461 88.4353L159.379 88.5173L161.018 91.8241C163.859 91.1139 165.961 90.0212 166.126 87.9421C165.753 89.8285 161.33 88.917 159.461 88.4353Z" fill="#20B9BA"/>
<path d="M171.756 123.509L171.592 125.721L166.56 121.596C168.265 122.304 169.998 122.942 171.756 123.509Z" fill="#20B9BA"/>
<path d="M138.104 128.016C138.895 127.497 139.744 126.923 140.644 126.268L141.19 118.182L138.104 128.016Z" fill="#20B9BA"/>
<path d="M146.762 170.054C145.474 167.849 144.551 165.451 144.03 162.951L147.554 182.127C148.428 180.488 149.28 178.82 150.095 177.095L146.762 170.054Z" fill="#20B9BA"/>
<path d="M143.184 130.883C139.823 129.682 139.468 128.043 142.691 126.759L143.183 130.883H143.184Z" fill="#20B9BA"/>
<path d="M169.214 126.787L168.531 130.938C170.307 130.309 171.372 129.545 171.372 128.726C171.372 128.016 170.607 127.361 169.214 126.787Z" fill="#20B9BA"/>
<path d="M66.7827 195.702L61.6211 196.03C62.9597 192.889 65.0631 192.697 66.7827 195.702Z" fill="#20B9BA"/>
<path d="M68.1485 215.588C66.9192 218.865 64.8718 219.548 63.0156 216.679C64.7002 216.201 66.415 215.837 68.1485 215.588Z" fill="#20B9BA"/>
<path d="M34.6073 234.462C31.8353 233.32 32.8676 228.649 34.4952 224.397C37.3995 216.8 43.8033 206.148 49.4121 200.432C53.5888 196.175 58.0589 194.657 57.6894 199.745C57.0179 209.017 40.5755 235.511 34.6073 234.462Z" fill="#20B9BA"/>
<path d="M160.338 74.3138C160.191 73.566 159.815 72.8824 159.262 72.3585C158.709 71.8345 158.006 71.4963 157.251 71.3908C157.425 70.7754 157.435 70.125 157.278 69.5048C157.122 68.8845 156.806 68.3162 156.361 67.8567C155.915 67.3977 155.356 67.0639 154.741 66.889C154.125 66.7142 153.475 66.7043 152.854 66.8604C152.78 66.2098 152.533 65.591 152.138 65.0685C151.743 64.546 151.215 64.139 150.61 63.8899C150.004 63.6407 149.342 63.5593 148.694 63.6542C148.046 63.7491 147.435 64.0167 146.926 64.4291C146.702 63.9822 146.389 63.5861 146.006 63.2655C145.622 62.9449 145.177 62.7066 144.698 62.5654C144.218 62.4242 143.715 62.3832 143.219 62.4448C142.723 62.5065 142.245 62.6695 141.815 62.9237C141.24 63.2645 140.77 63.7576 140.456 64.3471C139.96 63.9191 139.358 63.633 138.712 63.5191C138.067 63.4052 137.403 63.4676 136.79 63.6999C136.178 63.9321 135.639 64.3255 135.232 64.8386C134.824 65.3516 134.563 65.9652 134.475 66.6145C133.859 66.4385 133.208 66.428 132.587 66.5839C131.965 66.7399 131.396 67.0568 130.936 67.5027C130.476 67.9486 130.142 68.5079 129.967 69.1241C129.793 69.7403 129.783 70.3917 129.94 71.0127C129.291 71.0893 128.675 71.3381 128.154 71.7333C127.634 72.1286 127.229 72.6558 126.981 73.2604C126.732 73.865 126.651 74.5249 126.744 75.1718C126.837 75.8186 127.101 76.4288 127.509 76.9392C126.91 77.2373 126.406 77.6946 126.05 78.2609C125.695 78.8272 125.502 79.4805 125.493 80.1491C125.485 80.8178 125.661 81.4758 126.002 82.0509C126.343 82.626 126.836 83.096 127.427 83.4091C126.993 83.9034 126.701 84.5059 126.582 85.1527C126.463 85.7996 126.522 86.4665 126.752 87.0828C126.981 87.699 127.374 88.2415 127.887 88.6526C128.4 89.0637 129.016 89.3281 129.667 89.4176C129.491 90.0335 129.481 90.6849 129.637 91.3061C129.792 91.9274 130.109 92.4966 130.555 92.9564C131.001 93.4162 131.56 93.7503 132.177 93.9252C132.793 94.1 133.444 94.1094 134.065 93.9524C134.138 94.6032 134.385 95.2225 134.78 95.7452C135.174 96.2679 135.702 96.6749 136.308 96.9235C136.914 97.1721 137.576 97.2532 138.224 97.1582C138.872 97.0632 139.483 96.7957 139.992 96.3836C140.291 96.9813 140.748 97.4852 141.314 97.8402C141.881 98.1951 142.534 98.3873 143.202 98.3958C143.87 98.4042 144.528 98.2286 145.103 97.8882C145.678 97.5477 146.148 97.0555 146.462 96.4656C146.956 96.8985 147.559 97.1896 148.205 97.308C148.852 97.4264 149.518 97.3677 150.134 97.1381C150.75 96.9085 151.292 96.5165 151.704 96.0038C152.115 95.491 152.38 94.8766 152.47 94.2255C152.991 94.3724 153.538 94.4021 154.072 94.3123C154.606 94.2226 155.113 94.0157 155.557 93.7065C156.421 89.9607 157.069 86.1683 157.497 82.3481C153.04 79.6163 155.257 75.8781 157.579 78.1685C158.917 79.507 158.671 76.7479 157.852 74.7537C158.641 74.4358 159.488 74.286 160.338 74.3138Z" fill="#20B9BA"/>
<path d="M247.309 240.28L241.436 227.714C241.338 227.52 241.185 227.359 240.997 227.25C240.809 227.142 240.593 227.09 240.376 227.103C240.159 227.115 239.95 227.19 239.775 227.319C239.6 227.448 239.467 227.626 239.391 227.829C239.289 228.102 239.298 228.404 239.414 228.67L245.287 241.237C245.348 241.373 245.435 241.497 245.544 241.6C245.652 241.703 245.78 241.783 245.92 241.836C246.06 241.889 246.21 241.913 246.359 241.906C246.509 241.9 246.656 241.863 246.791 241.799C246.927 241.736 247.049 241.645 247.148 241.534C247.248 241.422 247.324 241.291 247.371 241.149C247.419 241.007 247.439 240.858 247.428 240.708C247.418 240.559 247.377 240.414 247.309 240.28Z" fill="#20B9BA"/>
<path d="M18.2998 281.089H271.291" stroke="#4F9986" stroke-width="1.445" stroke-linecap="round" stroke-linejoin="round"/>
<path d="M176.727 158.664C178.553 158.663 180.304 157.938 181.595 156.647C182.887 155.356 183.613 153.606 183.615 151.78V126.486" stroke="#4F9986" stroke-width="1.445" stroke-linecap="round" stroke-linejoin="round"/>
<path d="M126.74 133.314V151.752C126.742 153.357 127.301 154.912 128.322 156.15" stroke="#4F9986" stroke-width="1.445" stroke-linecap="round" stroke-linejoin="round"/>
<path d="M113.274 182.7V146.589" stroke="#4F9986" stroke-width="1.445" stroke-linecap="round" stroke-linejoin="round"/>
<path d="M172.246 223.645H124.368C122.165 223.65 120.012 222.997 118.182 221.77C116.353 220.544 114.931 218.8 114.098 216.761" stroke="#4F9986" stroke-width="1.445" stroke-linecap="round" stroke-linejoin="round"/>
<path d="M197.075 128.317V212.529C197.081 213.04 197.043 213.552 196.966 214.058" stroke="#4F9986" stroke-width="1.445" stroke-linecap="round" stroke-linejoin="round"/>
<path d="M196.995 63.6064C196.632 60.9621 195.304 58.5451 193.267 56.8201C191.23 55.0951 188.628 54.1836 185.96 54.2609H124.391C122.955 54.2109 121.523 54.4496 120.18 54.9631C118.837 55.4766 117.611 56.2543 116.575 57.2502C115.538 58.2461 114.712 59.4399 114.145 60.7609C113.578 62.0819 113.282 63.5032 113.274 64.9407V100.346" stroke="#4F9986" stroke-width="1.445" stroke-linecap="round" stroke-linejoin="round"/>
<path d="M119.059 114.752V107.802C119.06 106.79 118.862 105.788 118.475 104.853C118.088 103.918 117.521 103.068 116.805 102.353C116.09 101.637 115.24 101.07 114.305 100.683C113.369 100.297 112.367 100.099 111.355 100.1H56.3213C55.3095 100.099 54.3073 100.297 53.3723 100.684C52.4372 101.07 51.5876 101.638 50.8721 102.353C50.1566 103.069 49.5893 103.918 49.2027 104.853C48.8161 105.788 48.6178 106.79 48.6191 107.802V139.133C48.6178 140.145 48.8161 141.147 49.2027 142.082C49.5893 143.017 50.1566 143.867 50.8721 144.582C51.5876 145.297 52.4372 145.865 53.3723 146.251C54.3073 146.638 55.3095 146.836 56.3213 146.835H81.0381M119.059 133.861V139.133C119.06 140.144 118.862 141.146 118.475 142.081C118.089 143.016 117.522 143.865 116.807 144.581C116.092 145.296 115.243 145.863 114.308 146.25C113.374 146.637 112.372 146.836 111.361 146.835H86.5649" stroke="#4F9986" stroke-width="1.445" stroke-linecap="round" stroke-linejoin="round"/>
<path d="M224.063 117.614C224.031 117.804 224.013 117.996 224.008 118.189C224.004 118.554 224.072 118.916 224.209 119.254C224.346 119.592 224.548 119.9 224.805 120.159C225.062 120.418 225.367 120.624 225.704 120.764C226.041 120.904 226.402 120.976 226.767 120.975C227.505 120.972 228.212 120.677 228.734 120.155C229.255 119.634 229.55 118.927 229.554 118.189C229.554 117.552 229.334 116.935 228.93 116.442C228.527 115.949 227.965 115.611 227.341 115.486" stroke="#4F9986" stroke-width="1.445" stroke-linecap="round" stroke-linejoin="round"/>
<path d="M79.376 112.009L80.1668 110.643L81.478 112.911" stroke="#4F9986" stroke-width="1.445" stroke-linecap="round" stroke-linejoin="round"/>
<path d="M96.3428 112.446C96.6312 111.834 97.1095 111.331 97.7065 111.013C98.3034 110.695 98.9872 110.577 99.6562 110.678C100.325 110.78 100.944 111.094 101.42 111.575C101.896 112.056 102.204 112.678 102.298 113.348C100.245 113.074 98.2507 112.774 96.3428 112.446Z" stroke="#4F9986" stroke-width="1.445" stroke-linecap="round" stroke-linejoin="round"/>
<path d="M100.271 132.959L102.211 136.292H65.3633L76.9172 116.27" stroke="#4F9986" stroke-width="1.445" stroke-linecap="round" stroke-linejoin="round"/>
<path d="M191.56 106.7V70.9824C191.557 69.4583 192.007 67.9678 192.854 66.7003C193.7 65.4328 194.904 64.4456 196.313 63.864C197.248 63.4769 198.25 63.278 199.262 63.2788H254.301C255.826 63.2763 257.316 63.727 258.584 64.5736C259.852 65.4202 260.839 66.6245 261.421 68.0335C261.808 68.9681 262.006 69.9702 262.005 70.9824V110.48C262.007 112.004 261.556 113.494 260.71 114.762C259.863 116.029 258.659 117.016 257.25 117.598C256.315 117.985 255.313 118.183 254.301 118.182H229.625" stroke="#4F9986" stroke-width="1.445" stroke-linecap="round" stroke-linejoin="round"/>
<path d="M203.659 63.2789C203.643 59.1449 201.991 55.1855 199.062 52.2674C196.134 49.3493 192.169 47.7103 188.035 47.7092H122.07C120.018 47.7085 117.986 48.1121 116.09 48.897C114.194 49.6819 112.471 50.8328 111.02 52.2838C109.569 53.7348 108.418 55.4575 107.633 57.3535C106.848 59.2494 106.445 61.2815 106.445 63.3335V100.1" stroke="#4F9986" stroke-width="1.445" stroke-linecap="round" stroke-linejoin="round"/>
<path d="M106.445 190.211V146.835" stroke="#4F9986" stroke-width="1.445" stroke-linecap="round" stroke-linejoin="round"/>
<path d="M175.251 229.983H122.068C118.478 229.983 114.998 228.748 112.213 226.484C109.427 224.221 107.506 221.067 106.772 217.553" stroke="#4F9986" stroke-width="1.445" stroke-linecap="round" stroke-linejoin="round"/>
<path d="M203.659 128.317V214.359C203.661 217.749 202.558 221.047 200.518 223.755" stroke="#4F9986" stroke-width="1.445" stroke-linecap="round" stroke-linejoin="round"/>
<path d="M244.849 80.4056H200.927V72.5654H252.606V80.4056H248.018" stroke="#4F9986" stroke-width="1.445" stroke-linecap="round" stroke-linejoin="round"/>
<path d="M238.485 84.6399H241.272" stroke="#4F9986" stroke-width="1.445" stroke-linecap="round" stroke-linejoin="round"/>
<path d="M200.927 107.393V84.6399H235.262" stroke="#4F9986" stroke-width="1.445" stroke-linecap="round" stroke-linejoin="round"/>
<path d="M246.243 84.6399H252.608V108.895H236.109" stroke="#4F9986" stroke-width="1.445" stroke-linecap="round" stroke-linejoin="round"/>
<path d="M226.767 120.968V149.621C226.768 152.053 226.289 154.462 225.358 156.709C224.428 158.956 223.064 160.997 221.344 162.717C219.624 164.437 217.583 165.801 215.336 166.732C213.089 167.662 210.681 168.141 208.249 168.141H180.333" stroke="#4F9986" stroke-width="1.445" stroke-linecap="round" stroke-linejoin="round"/>
<path d="M123.026 168.127H102.38C97.4671 168.123 92.7569 166.169 89.2844 162.694C85.8119 159.218 83.8613 154.507 83.8613 149.594" stroke="#4F9986" stroke-width="1.445" stroke-linecap="round" stroke-linejoin="round"/>
<path d="M83.8418 227.333V242.821" stroke="#4F9986" stroke-width="1.445" stroke-linecap="round" stroke-linejoin="round"/>
<path d="M91.5854 235.077H76.0977" stroke="#4F9986" stroke-width="1.445" stroke-linecap="round" stroke-linejoin="round"/>
<path d="M166.182 87.938C165.718 89.7683 161.725 88.9545 160.365 88.6569L159.358 88.4196C160.221 90.3549 161.041 91.8229 161.041 91.8229" stroke="#4F9986" stroke-width="1.445" stroke-linecap="round" stroke-linejoin="round"/>
<path d="M172.466 100.974C169.739 99.9811 167.1 98.7659 164.572 97.341C163.854 96.9577 163.22 96.4336 162.708 95.8C162.197 95.1664 161.818 94.4362 161.595 93.6531C161.402 93.0507 161.239 92.4224 161.047 91.82C163.517 91.2003 165.827 90.2859 166.182 87.938C166.614 85.1113 164.231 80.8311 160.42 74.3424C159.545 74.3009 158.671 74.4399 157.852 74.7507C158.644 76.7449 158.922 79.4954 157.579 78.1654C155.264 75.865 153.044 79.6133 157.497 82.345C157.278 84.6124 156.922 86.7144 156.541 88.8452C156.331 90.4878 156.003 92.1129 155.557 93.7078C155.027 94.81 154.251 95.7767 153.291 96.5341C152.33 97.2915 151.209 97.8198 150.013 98.0786C147.885 98.6957 145.853 99.6053 143.975 100.782C155.283 106.409 172.443 100.974 172.443 100.974H172.466Z" stroke="#4F9986" stroke-width="1.445" stroke-linecap="round" stroke-linejoin="round"/>
<path d="M171.591 125.721L166.559 121.569C168.249 122.285 169.972 122.923 171.722 123.481" stroke="#4F9986" stroke-width="1.445" stroke-linecap="round" stroke-linejoin="round"/>
<path d="M171.373 128.726C171.636 125.12 171.557 126.302 171.728 123.481C180.955 126.283 190.482 127.982 200.108 128.541C202.218 128.68 204.327 128.266 206.228 127.339C216.945 122.118 227.2 116.389 236.329 108.682C236.526 101.367 231.35 93.3454 225.074 91.8228C216.825 98.98 208.683 104.554 199.699 107.884C198.737 108.241 184.14 105.815 172.438 100.974" stroke="#4F9986" stroke-width="1.445" stroke-linecap="round" stroke-linejoin="round"/>
<path d="M138.104 128.016L141.189 118.182L140.643 126.268" stroke="#4F9986" stroke-width="1.445" stroke-linecap="round" stroke-linejoin="round"/>
<path d="M140.457 128.652L140.644 126.268C136.125 129.64 131.023 132.149 125.593 133.669C113.628 134.475 101.608 133.629 89.8731 131.156C87.7165 124.275 88.3692 117.525 93.1239 111.845C103.569 113.825 114.177 114.822 124.808 114.823C132.512 110.288 138.029 104.415 143.984 100.782" stroke="#4F9986" stroke-width="1.445" stroke-linecap="round" stroke-linejoin="round"/>
<path d="M143.922 137.193C143.922 137.193 130.321 145.66 124.943 165.273L108.553 189.774C95.4804 192.661 80.3421 193.633 64.1729 193.557" stroke="#4F9986" stroke-width="1.445" stroke-linecap="round" stroke-linejoin="round"/>
<path d="M147.526 182.154L144.002 162.979" stroke="#4F9986" stroke-width="1.445" stroke-linecap="round" stroke-linejoin="round"/>
<path d="M146.107 147.818C144.28 151.207 143.363 155.012 143.444 158.861C143.526 162.709 144.603 166.472 146.571 169.78C146.703 170.002 150.095 177.1 150.095 177.1" stroke="#4F9986" stroke-width="1.445" stroke-linecap="round" stroke-linejoin="round"/>
<path d="M68.1498 215.588C61.4311 216.543 54.5973 219.162 49.9044 225.011C45.3927 230.634 37.7064 236.597 33.9365 234.194" stroke="#4F9986" stroke-width="1.445" stroke-linecap="round" stroke-linejoin="round"/>
<path d="M142.72 126.759L143.922 137.193C151.655 135.198 159.768 135.198 167.501 137.193L169.238 126.787" stroke="#4F9986" stroke-width="1.445" stroke-linecap="round" stroke-linejoin="round"/>
<path d="M168.532 130.938C170.308 130.31 171.373 129.546 171.373 128.727C171.373 128.016 170.609 127.359 169.242 126.787C163.291 124.294 148.729 124.304 142.719 126.76C141.742 127.159 140.206 127.959 140.488 128.982C140.681 129.683 141.65 130.348 143.184 130.883" stroke="#4F9986" stroke-width="1.445" stroke-linecap="round" stroke-linejoin="round"/>
<path d="M242.037 89.2895C242.638 88.6885 244.414 87.1055 245.288 86.0947" stroke="#4F9986" stroke-width="1.445" stroke-linecap="round" stroke-linejoin="round"/>
<path d="M235.481 88.8726C236.356 88.3536 237.175 87.8662 237.884 87.3716" stroke="#4F9986" stroke-width="1.445" stroke-linecap="round" stroke-linejoin="round"/>
<path d="M244.77 91.4478L242.064 93.8172" stroke="#4F9986" stroke-width="1.445" stroke-linecap="round" stroke-linejoin="round"/>
<path d="M242.255 97.833C242.255 97.833 243.809 96.3664 244.291 95.9639" stroke="#4F9986" stroke-width="1.445" stroke-linecap="round" stroke-linejoin="round"/>
<path d="M167.494 137.193C188.036 182.837 195.273 215.264 214.886 259.128C207.507 264.374 200.911 265.351 191.969 265.109L150.096 177.1L147.528 182.154C142.56 190.832 136.906 199.098 130.62 206.873C128.474 209.661 125.789 211.988 122.724 213.715C119.66 215.442 116.278 216.534 112.783 216.925C97.0456 218.744 81.1858 219.267 65.3633 218.486" stroke="#4F9986" stroke-width="1.445" stroke-linecap="round" stroke-linejoin="round"/>
<path d="M211.22 261.449L214.334 267.623C220.781 269.507 228.015 274.561 232.909 278.712C233.121 278.89 233.272 279.129 233.343 279.396C233.414 279.663 233.4 279.945 233.304 280.204C233.21 280.464 233.038 280.688 232.811 280.847C232.585 281.005 232.315 281.089 232.039 281.089C218.163 281.076 208.412 280.945 197.245 280.925C196.833 280.923 196.426 280.836 196.049 280.671C195.672 280.505 195.334 280.264 195.054 279.962C194.774 279.659 194.56 279.302 194.425 278.913C194.29 278.524 194.237 278.112 194.269 277.701C194.564 274.254 195.298 270.858 196.453 267.595L194.952 265.164" stroke="#4F9986" stroke-width="1.445" stroke-linecap="round" stroke-linejoin="round"/>
<path d="M63.0143 216.676C64.0596 218.292 65.171 218.781 66.1544 218.314C68.7295 217.096 69.2959 210.694 69.2959 207.8C69.2959 203.518 67.9876 194.109 64.4219 193.573C63.3809 193.416 62.3802 194.25 61.6211 196.027" stroke="#4F9986" stroke-width="1.445" stroke-linecap="round" stroke-linejoin="round"/>
<path d="M54.246 196.897C52.4576 197.799 50.8256 198.982 49.4122 200.401C44.3135 205.704 40.1563 211.837 37.1192 218.537C34.3127 224.468 32.5528 230.264 33.1869 232.932C33.6182 234.77 35.1279 234.827 36.7928 233.926C44.9508 229.509 61.3299 200.713 56.9792 196.959C56.5873 196.665 56.1132 196.5 55.6232 196.489C55.1333 196.478 54.6522 196.621 54.2474 196.897H54.246Z" stroke="#4F9986" stroke-width="1.445" stroke-linecap="round" stroke-linejoin="round"/>
<path d="M161.021 135.991C161.021 135.991 159.928 148.856 162.746 155.303C165.564 161.75 206.095 263.579 206.095 263.579" stroke="#4F9986" stroke-width="1.445" stroke-linecap="round" stroke-linejoin="round"/>
<path d="M146.271 169.425C140.15 179.701 133.494 189.648 126.331 199.226C121.779 205.025 114.421 206.635 107.074 207.174C94.514 208.112 81.9091 208.321 69.3242 207.802" stroke="#4F9986" stroke-width="1.445" stroke-linecap="round" stroke-linejoin="round"/>
<path d="M86.614 146.835C86.6148 147.387 86.4516 147.926 86.1452 148.385C85.8387 148.844 85.4029 149.201 84.893 149.412C84.5121 149.57 84.1007 149.642 83.6886 149.622C83.2765 149.602 82.874 149.491 82.5103 149.296C82.1465 149.101 81.8306 148.828 81.5855 148.496C81.3404 148.164 81.1722 147.782 81.093 147.377C81.013 146.973 81.0238 146.556 81.1245 146.156C81.2253 145.756 81.4135 145.383 81.6757 145.065C81.9379 144.747 82.2674 144.491 82.6405 144.315C83.0136 144.14 83.421 144.049 83.8334 144.05C84.5701 144.055 85.2752 144.35 85.7957 144.872C86.3162 145.393 86.6103 146.099 86.614 146.835Z" stroke="#4F9986" stroke-width="1.445" stroke-linecap="round" stroke-linejoin="round"/>
<path d="M27.5869 123.044L32.4222 129.874L38.1028 119.985" stroke="#4F9986" stroke-width="1.445" stroke-linecap="round" stroke-linejoin="round"/>
<path d="M157.851 74.7507C158.67 76.7449 158.92 79.4954 157.577 78.1655C155.263 75.865 153.043 79.6133 157.496 82.3451C157.277 84.5851 156.92 86.7159 156.539 88.8453C156.325 90.487 155.996 92.1117 155.556 93.7078C154.946 94.1312 154.222 94.3598 153.48 94.3634C153.14 94.3597 152.802 94.3138 152.473 94.2268C152.407 94.7145 152.242 95.1836 151.99 95.6057C151.737 96.0279 151.401 96.3943 151.002 96.6827C150.603 96.9712 150.15 97.1758 149.67 97.284C149.19 97.3922 148.693 97.4018 148.209 97.3123C147.562 97.1931 146.959 96.901 146.465 96.4669C146.152 97.0577 145.682 97.5507 145.107 97.8918C144.532 98.233 143.874 98.409 143.205 98.4005C142.536 98.392 141.883 98.1994 141.317 97.8438C140.75 97.4883 140.293 96.9835 139.995 96.3849C139.486 96.796 138.875 97.0627 138.227 97.1572C137.58 97.2516 136.918 97.1704 136.313 96.922C135.707 96.6735 135.179 96.267 134.785 95.7448C134.39 95.2227 134.142 94.6041 134.068 93.9537C133.448 94.1102 132.796 94.1005 132.18 93.9255C131.564 93.7505 131.005 93.4163 130.56 92.9567C130.114 92.497 129.797 91.928 129.641 91.307C129.485 90.686 129.495 90.0348 129.67 89.4189C129.019 89.3289 128.404 89.0643 127.891 88.6532C127.378 88.242 126.986 87.6996 126.756 87.0835C126.527 86.4675 126.468 85.8007 126.587 85.154C126.705 84.5073 126.997 83.9048 127.43 83.4105C126.84 83.0969 126.347 82.6268 126.006 82.0518C125.666 81.4767 125.49 80.8189 125.498 80.1505C125.507 79.4821 125.699 78.8289 126.054 78.2627C126.41 77.6964 126.914 77.239 127.512 76.9405C127.105 76.4299 126.841 75.8197 126.749 75.1732C126.657 74.5266 126.739 73.8671 126.986 73.2629C127.234 72.6586 127.639 72.1315 128.159 71.7362C128.679 71.3408 129.295 71.0915 129.943 71.014C129.786 70.393 129.796 69.7416 129.971 69.1254C130.146 68.5092 130.48 67.95 130.939 67.504C131.399 67.0581 131.968 66.7412 132.59 66.5852C133.211 66.4293 133.862 66.4399 134.478 66.6158C134.566 65.9667 134.828 65.3535 135.236 64.8408C135.643 64.328 136.182 63.9348 136.794 63.7027C137.407 63.4705 138.07 63.4079 138.716 63.5216C139.361 63.6352 139.963 63.9209 140.459 64.3484C140.773 63.7581 141.243 63.2655 141.818 62.9247C142.393 62.5839 143.051 62.4081 143.719 62.4166C144.388 62.425 145.041 62.6174 145.607 62.9727C146.173 63.3279 146.631 63.8323 146.929 64.4304C147.439 64.0206 148.049 63.7549 148.696 63.6611C149.343 63.5672 150.003 63.6486 150.608 63.8968C151.213 64.1449 151.741 64.5507 152.135 65.0719C152.53 65.5931 152.778 66.2107 152.853 66.8602C153.474 66.7041 154.124 66.7141 154.74 66.8892C155.356 67.0643 155.914 67.3983 156.36 67.8577C156.805 68.3172 157.122 68.8858 157.278 69.5064C157.435 70.1271 157.425 70.7779 157.25 71.3935C158.005 71.4986 158.708 71.8367 159.261 72.3608C159.815 72.8848 160.191 73.5685 160.337 74.3165C159.487 74.2868 158.64 74.4347 157.851 74.7507Z" stroke="#4F9986" stroke-width="1.445" stroke-linecap="round" stroke-linejoin="round"/>
<path d="M232.259 42.2468L221.306 53.1725" stroke="#4F9986" stroke-width="1.445" stroke-linecap="round" stroke-linejoin="round"/>
<path d="M232.231 53.1998L221.333 42.2468" stroke="#4F9986" stroke-width="1.445" stroke-linecap="round" stroke-linejoin="round"/>
<path d="M247.336 240.28C247.399 240.415 247.435 240.56 247.442 240.709C247.449 240.857 247.426 241.006 247.375 241.145C247.325 241.285 247.247 241.413 247.146 241.523C247.046 241.632 246.924 241.721 246.789 241.783C246.655 241.846 246.509 241.882 246.361 241.889C246.212 241.896 246.064 241.873 245.924 241.823C245.785 241.772 245.656 241.694 245.547 241.593C245.438 241.493 245.349 241.371 245.287 241.237L239.441 228.672C239.34 228.408 239.343 228.116 239.448 227.854C239.554 227.592 239.754 227.379 240.009 227.258C240.264 227.138 240.556 227.118 240.825 227.202C241.095 227.287 241.322 227.47 241.462 227.716L247.336 240.28Z" stroke="#4F9986" stroke-width="1.445" stroke-linecap="round" stroke-linejoin="round"/>
<path d="M237.039 220.914L240.452 228.207" stroke="#4F9986" stroke-width="1.445" stroke-linecap="round" stroke-linejoin="round"/>
<path d="M228.57 202.776C227.229 203.402 226.043 204.318 225.099 205.457C224.154 206.596 223.474 207.931 223.107 209.364C222.74 210.798 222.696 212.295 222.978 213.748C223.259 215.201 223.86 216.574 224.735 217.767C225.908 219.36 227.526 220.571 229.386 221.246C231.245 221.921 233.263 222.029 235.185 221.558C237.106 221.087 238.845 220.058 240.182 218.599C241.519 217.141 242.394 215.319 242.696 213.364C242.996 211.407 242.71 209.405 241.872 207.611C240.747 205.208 238.715 203.349 236.221 202.443C233.727 201.536 230.976 201.656 228.57 202.776Z" stroke="#4F9986" stroke-width="1.445" stroke-linecap="round" stroke-linejoin="round"/>
<path d="M113.414 20.8715C112.917 20.8155 112.539 20.7565 112.336 20.2058C112.048 19.4568 111.555 18.8328 112.178 18.1771C112.768 17.5843 113.1 16.7817 113.1 15.945C113.1 15.1083 112.768 14.3057 112.178 13.7128L110.649 12.2147C110.057 11.6264 109.256 11.2963 108.421 11.2963C107.586 11.2963 106.785 11.6264 106.192 12.2147C105.568 12.8387 104.913 12.3398 104.194 12.058C103.998 11.9848 103.83 11.8525 103.712 11.6794C103.595 11.5062 103.535 11.3008 103.54 11.0918C103.541 10.6773 103.461 10.2666 103.303 9.88337C103.145 9.50014 102.913 9.15195 102.62 8.85886C102.326 8.56577 101.978 8.33357 101.595 8.17566C101.212 8.01774 100.801 7.93722 100.387 7.93874H98.2299C97.8156 7.9376 97.4052 8.01839 97.0222 8.17646C96.6392 8.33453 96.2913 8.56676 95.9984 8.85979C95.7055 9.15283 95.4734 9.50088 95.3155 9.88393C95.1576 10.267 95.077 10.6775 95.0783 11.0918C95.0783 11.9659 94.266 12.0982 93.5485 12.403C93.361 12.4851 93.1529 12.5079 92.952 12.4686C92.7511 12.4293 92.567 12.3297 92.4242 12.1831C91.8317 11.5948 91.0306 11.2647 90.1957 11.2647C89.3607 11.2647 88.5596 11.5948 87.9671 12.1831L86.3971 13.7128C85.8052 14.3049 85.4727 15.1078 85.4727 15.945C85.4727 16.7822 85.8052 17.5851 86.3971 18.1771C87.021 18.8011 86.5221 19.4568 86.2389 20.2058C86.166 20.402 86.0338 20.5706 85.8606 20.6881C85.6874 20.8056 85.4819 20.8662 85.2727 20.8615C84.8584 20.8605 84.4481 20.9414 84.0652 21.0996C83.6823 21.2577 83.3344 21.4899 83.0416 21.7829C82.7487 22.0759 82.5166 22.4239 82.3587 22.8069C82.2007 23.1898 82.12 23.6002 82.1211 24.0145L82.1527 26.1712C82.1518 26.5854 82.2327 26.9957 82.3907 27.3786C82.5487 27.7614 82.7808 28.1094 83.0736 28.4023C83.3664 28.6953 83.7142 28.9275 84.097 29.0857C84.4799 29.2439 84.8901 29.325 85.3043 29.3242C86.1785 29.3242 86.3108 30.1366 86.6156 30.854C86.7037 31.0446 86.73 31.2579 86.6908 31.4642C86.6516 31.6704 86.5489 31.8592 86.3971 32.0042C85.8067 32.5956 85.4751 33.3971 85.4751 34.2328C85.4751 35.0684 85.8067 35.8699 86.3971 36.4613L87.9268 37.9911C88.5194 38.5794 89.3205 38.9095 90.1554 38.9095C90.9903 38.9095 91.7914 38.5794 92.3839 37.9911C93.0079 37.3657 93.6636 37.8646 94.3825 38.1464C94.578 38.2206 94.7459 38.3534 94.8633 38.5266C94.9806 38.6997 95.0416 38.9049 95.0381 39.114C95.0362 39.5293 95.1165 39.9409 95.2745 40.325C95.4325 40.7091 95.6649 41.0581 95.9584 41.3519C96.252 41.6457 96.6008 41.8784 96.9847 42.0367C97.3686 42.195 97.7801 42.2758 98.1954 42.2742L100.381 42.2426C100.795 42.243 101.205 42.1617 101.587 42.0033C101.97 41.8449 102.317 41.6126 102.61 41.3197C102.902 41.0268 103.134 40.679 103.292 40.2963C103.45 39.9136 103.531 39.5035 103.53 39.0896C103.53 38.2154 104.342 38.0918 105.061 37.7783C105.252 37.6904 105.465 37.6644 105.671 37.7038C105.877 37.7432 106.066 37.8462 106.211 37.9983C106.804 38.5866 107.605 38.9167 108.44 38.9167C109.275 38.9167 110.076 38.5866 110.668 37.9983L112.166 36.4685C112.755 35.876 113.085 35.0749 113.085 34.24C113.085 33.405 112.755 32.6039 112.166 32.0114C111.542 31.3874 112.041 30.7318 112.323 29.9827C112.397 29.7871 112.53 29.6192 112.703 29.5019C112.876 29.3846 113.081 29.3235 113.291 29.3271C113.706 29.3296 114.118 29.2497 114.502 29.092C114.887 28.9344 115.236 28.7021 115.53 28.4087C115.824 28.1152 116.057 27.7664 116.216 27.3824C116.374 26.9983 116.455 26.5866 116.454 26.1712V24.0145C116.454 23.1986 116.137 22.4144 115.57 21.8279C115.003 21.2414 114.23 20.8984 113.414 20.8715Z" stroke="#4F9986" stroke-width="1.445" stroke-linecap="round" stroke-linejoin="round"/>
<path d="M99.2879 33.1285C97.6954 33.1285 96.1387 32.6563 94.8147 31.7715C93.4906 30.8868 92.4586 29.6293 91.8492 28.1581C91.2398 26.6869 91.0804 25.068 91.391 23.5062C91.7017 21.9443 92.4685 20.5097 93.5946 19.3836C94.7206 18.2576 96.1552 17.4908 97.7171 17.1801C99.2789 16.8694 100.898 17.0289 102.369 17.6383C103.84 18.2477 105.098 19.2797 105.982 20.6037C106.867 21.9278 107.339 23.4845 107.339 25.0769C107.343 26.1353 107.137 27.1839 106.734 28.1624C106.331 29.1409 105.738 30.0299 104.989 30.7783C104.241 31.5267 103.352 32.1196 102.373 32.5229C101.395 32.9263 100.346 33.1321 99.2879 33.1285Z" stroke="#4F9986" stroke-width="1.445" stroke-linecap="round" stroke-linejoin="round"/>
<path d="M247.717 81.4782C248.029 80.5321 248.647 78.2273 247.8 77.7284C247.199 77.3733 245.97 78.9304 244.877 80.4056C242.995 83.1387 240.624 85.5004 237.884 87.3716C238.348 85.4867 239.36 80.9519 238.485 80.4056H238.053C236.738 81.7216 235.722 83.3056 235.074 85.0496C234.2 86.9331 230.278 90.9056 227.683 92.8452C229.926 94.2278 231.841 96.0812 233.297 98.2772C234.753 100.473 235.715 102.959 236.115 105.564C242.637 100.953 243.825 100.082 244.47 99.6085C245.872 98.2599 245.535 95.9177 244.293 95.9609C245.643 94.3678 246.162 92.0228 244.772 91.4477C245.886 90.1091 246.471 87.5312 245.29 86.0877C246.342 84.6922 247.162 83.1356 247.717 81.4782Z" stroke="#4F9986" stroke-width="1.445" stroke-linecap="round" stroke-linejoin="round"/>
<path d="M88.7732 125.825C86.1986 125.195 83.5562 124.885 80.9057 124.902C75.0324 125.068 77.0238 123.527 79.0481 122.853C81.2839 122.107 86.723 120.968 84.6741 119.438C83.337 118.81 82.3737 118.288 81.6146 117.857C77.9235 116.509 74.1568 115.378 70.3338 114.471C66.978 113.664 67.5229 112.921 68.0664 112.804C70.0495 112.522 72.0611 112.504 74.049 112.75C73.6392 112.394 73.2295 112.041 72.847 111.684C69.2526 108.323 69.497 106.94 74.926 109.827C79.8045 112.618 85.1281 114.547 90.6625 115.529" stroke="#4F9986" stroke-width="1.445" stroke-linecap="round" stroke-linejoin="round"/>
<path d="M87.4612 120.695C86.5247 120.293 85.5958 119.874 84.6748 119.438" stroke="#4F9986" stroke-width="1.445" stroke-linecap="round" stroke-linejoin="round"/>
<path d="M74.0576 112.747C75.6392 114.041 80.8152 117.397 81.6232 117.854" stroke="#4F9986" stroke-width="1.445" stroke-linecap="round" stroke-linejoin="round"/>
<path d="M55.7168 196.476L66.7877 195.702" stroke="#4F9986" stroke-width="1.445" stroke-linecap="round" stroke-linejoin="round"/>
</svg>
