<svg width="154" height="154" viewBox="0 0 154 154" fill="none" xmlns="http://www.w3.org/2000/svg">
<path d="M96.6002 31.1511H86.2606V38.626H72.5759V31.1511H62.2363L79.411 8.85718L96.6002 31.1511Z" fill="#27C498"/>
<path d="M38.7499 45.1119C38.7548 45.3346 38.7151 45.556 38.6333 45.7631C38.5515 45.9702 38.4291 46.159 38.2734 46.3182C38.1177 46.4774 37.9317 46.604 37.7265 46.6904C37.5212 46.7768 37.3008 46.8214 37.0781 46.8215C36.8554 46.8216 36.6349 46.7772 36.4295 46.691C36.2242 46.6047 36.0381 46.4784 35.8823 46.3193C35.7264 46.1602 35.6039 45.9716 35.5219 45.7645C35.4398 45.5575 35.4 45.3361 35.4047 45.1135C35.4138 44.676 35.594 44.2596 35.9065 43.9534C36.219 43.6472 36.639 43.4757 37.0765 43.4755C37.514 43.4753 37.9342 43.6465 38.247 43.9524C38.5598 44.2583 38.7403 44.6745 38.7499 45.1119Z" fill="#20B9BA"/>
<path d="M53.3936 76.6843V81.8472H56.2153V76.6843H53.3936Z" fill="#20B9BA"/>
<path d="M57.335 76.6843V81.8472H60.156V76.6843H57.335Z" fill="#20B9BA"/>
<path d="M61.2686 76.6843V81.8472H64.0972V76.6843H61.2686Z" fill="#20B9BA"/>
<path d="M65.2021 76.6843V81.8472H68.0384V76.6843H65.2029H65.2021Z" fill="#20B9BA"/>
<path d="M69.1436 76.6843V81.8472H71.9798V76.6843H69.1436Z" fill="#20B9BA"/>
<path d="M73.085 76.6843V81.8472H75.9205V76.6843H73.085Z" fill="#20B9BA"/>
<path d="M77.0264 76.6843V81.8472H79.8619V76.6843H77.0264Z" fill="#20B9BA"/>
<path d="M80.9668 76.6843V81.8472H83.8023V76.6843H80.9668Z" fill="#20B9BA"/>
<path d="M115.127 19.5901V27.8793" stroke="#127358" stroke-width="0.769171" stroke-linecap="round" stroke-linejoin="round"/>
<path d="M119.272 23.7419H110.982" stroke="#127358" stroke-width="0.769171" stroke-linecap="round" stroke-linejoin="round"/>
<path d="M128.259 97.3207V43.1494C128.26 42.2548 127.995 41.3801 127.498 40.6361C127.001 39.892 126.295 39.3119 125.469 38.9692C124.92 38.7421 124.331 38.6256 123.737 38.6263H35.0846C34.4904 38.6254 33.9018 38.7418 33.3526 38.9688C32.8034 39.1958 32.3045 39.5289 31.8843 39.9491C31.4641 40.3693 31.131 40.8683 30.904 41.4174C30.677 41.9666 30.5606 42.5552 30.5615 43.1494V99.1712" stroke="#127358" stroke-width="0.769171" stroke-linecap="round" stroke-linejoin="round"/>
<path d="M128.259 51.5692H30.5762" stroke="#127358" stroke-width="0.769171" stroke-linecap="round" stroke-linejoin="round"/>
<path d="M38.7499 45.1122C38.7548 45.3349 38.7151 45.5563 38.6333 45.7634C38.5515 45.9706 38.4291 46.1593 38.2734 46.3185C38.1177 46.4777 37.9317 46.6043 37.7265 46.6907C37.5212 46.7771 37.3008 46.8217 37.0781 46.8218C36.8554 46.8219 36.6349 46.7775 36.4295 46.6913C36.2242 46.6051 36.0381 46.4787 35.8823 46.3196C35.7264 46.1605 35.6039 45.9719 35.5219 45.7649C35.4398 45.5578 35.4 45.3364 35.4047 45.1138C35.4176 44.679 35.5994 44.2664 35.9114 43.9634C36.2234 43.6604 36.6412 43.4908 37.0762 43.4906C37.5111 43.4904 37.929 43.6596 38.2413 43.9623C38.5536 44.265 38.7358 44.6775 38.7491 45.1122H38.7499Z" stroke="#127358" stroke-width="0.769171" stroke-linecap="round" stroke-linejoin="round"/>
<path d="M43.7956 45.1122C43.7956 45.5557 43.6195 45.981 43.3059 46.2946C42.9922 46.6082 42.5669 46.7844 42.1234 46.7844C41.6799 46.7844 41.2546 46.6082 40.941 46.2946C40.6274 45.981 40.4512 45.5557 40.4512 45.1122C40.4512 44.6687 40.6274 44.2433 40.941 43.9297C41.2546 43.6161 41.6799 43.4399 42.1234 43.4399C42.5669 43.4399 42.9922 43.6161 43.3059 43.9297C43.6195 44.2433 43.7956 44.6687 43.7956 45.1122Z" stroke="#127358" stroke-width="0.769171" stroke-linecap="round" stroke-linejoin="round"/>
<path d="M48.8718 45.1119C48.8719 45.3315 48.8288 45.549 48.7448 45.7519C48.6609 45.9548 48.5378 46.1392 48.3826 46.2946C48.2274 46.4499 48.0431 46.5732 47.8402 46.6573C47.6374 46.7414 47.4199 46.7848 47.2003 46.7849C46.9807 46.785 46.7633 46.7418 46.5603 46.6579C46.3574 46.574 46.173 46.4509 46.0177 46.2957C45.8623 46.1404 45.7391 45.9562 45.6549 45.7533C45.5708 45.5505 45.5274 45.333 45.5273 45.1134C45.5271 44.6699 45.7031 44.2445 46.0166 43.9308C46.3301 43.617 46.7553 43.4406 47.1988 43.4404C47.6423 43.4402 48.0677 43.6162 48.3815 43.9297C48.6952 44.2431 48.8716 44.6684 48.8718 45.1119Z" stroke="#127358" stroke-width="0.769171" stroke-linecap="round" stroke-linejoin="round"/>
<path d="M111.565 83.5196H51.751V75.0122H111.565V83.5196Z" stroke="#127358" stroke-width="0.769171" stroke-linecap="round" stroke-linejoin="round"/>
<path d="M53.3936 76.6843V81.8472H56.2153V76.6843H53.3936Z" stroke="#127358" stroke-width="0.769171" stroke-linecap="round" stroke-linejoin="round"/>
<path d="M57.335 76.6843V81.8472H60.156V76.6843H57.335Z" stroke="#127358" stroke-width="0.769171" stroke-linecap="round" stroke-linejoin="round"/>
<path d="M61.2686 76.6843V81.8472H64.0972V76.6843H61.2686Z" stroke="#127358" stroke-width="0.769171" stroke-linecap="round" stroke-linejoin="round"/>
<path d="M65.2031 76.6843V81.8472H68.0387V76.6843H65.2031Z" stroke="#127358" stroke-width="0.769171" stroke-linecap="round" stroke-linejoin="round"/>
<path d="M69.1436 76.6843V81.8472H71.9798V76.6843H69.1436Z" stroke="#127358" stroke-width="0.769171" stroke-linecap="round" stroke-linejoin="round"/>
<path d="M73.085 76.6843V81.8472H75.9205V76.6843H73.085Z" stroke="#127358" stroke-width="0.769171" stroke-linecap="round" stroke-linejoin="round"/>
<path d="M77.0264 76.6843V81.8472H79.8619V76.6843H77.0264Z" stroke="#127358" stroke-width="0.769171" stroke-linecap="round" stroke-linejoin="round"/>
<path d="M80.9668 76.6843V81.8472H83.8023V76.6843H80.9668Z" stroke="#127358" stroke-width="0.769171" stroke-linecap="round" stroke-linejoin="round"/>
<path d="M72.5759 38.6259V31.151H62.2363L79.411 8.84253L96.6002 31.151H86.2606V38.6259" stroke="#127358" stroke-width="0.769171" stroke-linecap="round" stroke-linejoin="round"/>
<path d="M143.049 62.6357V87.4307" stroke="#127358" stroke-width="0.769171" stroke-linecap="round" stroke-linejoin="round"/>
<path d="M139.298 69.6306L143.049 62.5919L146.802 69.6306" stroke="#127358" stroke-width="0.769171" stroke-linecap="round" stroke-linejoin="round"/>
<path d="M4.85059 72.4016H9.79535" stroke="#127358" stroke-width="0.769171" stroke-linecap="round" stroke-linejoin="round"/>
<path d="M18.5645 72.3793H23.5092" stroke="#127358" stroke-width="0.769171" stroke-linecap="round" stroke-linejoin="round"/>
<path d="M14.165 63.0573V68.002" stroke="#127358" stroke-width="0.769171" stroke-linecap="round" stroke-linejoin="round"/>
<path d="M14.1865 76.7869V81.7309" stroke="#127358" stroke-width="0.769171" stroke-linecap="round" stroke-linejoin="round"/>
<path d="M7.57031 65.8069L11.0755 69.2968" stroke="#127358" stroke-width="0.769171" stroke-linecap="round" stroke-linejoin="round"/>
<path d="M17.2852 75.4921L20.7896 78.9819" stroke="#127358" stroke-width="0.769171" stroke-linecap="round" stroke-linejoin="round"/>
<path d="M20.7604 65.7777L17.2705 69.2829" stroke="#127358" stroke-width="0.769171" stroke-linecap="round" stroke-linejoin="round"/>
<path d="M11.0746 75.5061L7.58398 78.996" stroke="#127358" stroke-width="0.769171" stroke-linecap="round" stroke-linejoin="round"/>
<path d="M32.8451 130.812C32.1627 132.1 31.2953 133.28 30.2705 134.316" stroke="#127358" stroke-width="0.769171" stroke-linecap="round" stroke-linejoin="round"/>
<path d="M59.458 112.852C61.2918 110.525 63.6226 108.638 66.2799 107.328C68.9371 106.018 71.8535 105.319 74.8158 105.282C77.778 105.244 80.7112 105.869 83.4008 107.111C86.0904 108.353 88.4685 110.18 90.3611 112.459" stroke="#127358" stroke-width="0.769171" stroke-linecap="round" stroke-linejoin="round"/>
<path d="M122.76 104.664C123.02 103.228 123.584 101.864 124.414 100.664C125.245 99.4632 126.323 98.4545 127.575 97.7052C128.828 96.9567 130.227 96.4847 131.677 96.3207C133.128 96.1578 134.597 96.3068 135.985 96.7577C137.373 97.2099 138.648 97.9537 139.724 98.9393C140.801 99.9249 141.654 101.129 142.226 102.472C142.799 103.815 143.077 105.264 143.043 106.723C143.009 108.182 142.664 109.617 142.029 110.932C143.764 111.861 145.291 113.134 146.516 114.674C147.741 116.214 148.639 117.988 149.155 119.887C149.67 121.786 149.793 123.771 149.514 125.719C149.236 127.667 148.563 129.538 147.536 131.216C146.509 132.895 145.15 134.347 143.543 135.482C141.935 136.617 140.113 137.412 138.187 137.818C136.262 138.224 134.273 138.232 132.344 137.843C130.415 137.453 128.586 136.674 126.969 135.553C124.298 138.122 120.741 139.565 117.035 139.584C113.329 139.603 109.757 138.196 107.06 135.655C106.047 136.551 104.858 137.226 103.569 137.637C102.28 138.047 100.92 138.185 99.575 138.041C98.2301 137.897 96.9299 137.474 95.7574 136.8C94.5849 136.125 93.5658 135.214 92.7651 134.124C91.1956 137.21 88.8472 139.833 85.9524 141.733C83.0577 143.633 79.7169 144.744 76.2608 144.956C72.8047 145.168 69.3532 144.474 66.248 142.942C63.1428 141.41 60.4915 139.093 58.5566 136.222C57.1765 137.232 55.5547 137.86 53.8544 138.044C52.1542 138.228 50.4355 137.96 48.8714 137.269C47.9758 138.392 46.8658 139.326 45.6061 140.017C44.3463 140.708 42.9618 141.141 41.5331 141.293C40.1044 141.444 38.6598 141.309 37.2834 140.898C35.907 140.486 34.6261 139.805 33.5152 138.893C32.0303 137.675 30.8956 136.085 30.2274 134.284C27.6354 136.921 24.1705 138.522 20.4823 138.787C16.7941 139.053 13.1358 137.963 10.1934 135.724C8.24441 134.239 6.68331 132.305 5.6432 130.086C4.6031 127.868 4.11485 125.431 4.22008 122.983C4.37998 119.289 5.88212 115.78 8.44479 113.114C11.0075 110.448 14.4546 108.809 18.1398 108.503C17.6327 106.862 17.5182 105.124 17.8056 103.43C18.0929 101.736 18.7741 100.134 19.7943 98.7513C20.8144 97.3689 22.1449 96.2454 23.6788 95.4714C25.2126 94.6973 26.9067 94.2944 28.6248 94.2949C29.2783 94.2942 29.9304 94.3523 30.5733 94.4694" stroke="#127358" stroke-width="0.769171" stroke-linecap="round" stroke-linejoin="round"/>
<path d="M95.0301 111.397C94.8295 109.897 94.9393 108.371 95.3525 106.915C95.7657 105.459 96.4737 104.103 97.4324 102.932C98.8769 101.168 100.831 99.8931 103.028 99.2827C105.225 98.6723 107.557 98.7558 109.704 99.5218C111.852 100.288 113.71 101.699 115.024 103.562C116.339 105.425 117.046 107.648 117.048 109.928" stroke="#127358" stroke-width="0.769171" stroke-linecap="round" stroke-linejoin="round"/>
<path d="M116.393 106.162C118.119 105.274 120.015 104.765 121.953 104.669C123.892 104.574 125.829 104.895 127.634 105.609" stroke="#127358" stroke-width="0.769171" stroke-linecap="round" stroke-linejoin="round"/>
<path d="M27.959 100.432C31.2064 98.4544 35.0741 97.7579 38.8073 98.4783C42.5406 99.1987 45.8714 101.284 48.1498 104.328C49.6587 106.345 50.6459 108.703 51.0236 111.193" stroke="#127358" stroke-width="0.769171" stroke-linecap="round" stroke-linejoin="round"/>
<path d="M48.9001 137.283C47.6399 136.723 46.5104 135.906 45.584 134.884" stroke="#127358" stroke-width="0.769171" stroke-linecap="round" stroke-linejoin="round"/>
<path d="M61.1451 133.444C60.4772 134.534 59.6029 135.482 58.5713 136.237" stroke="#127358" stroke-width="0.769171" stroke-linecap="round" stroke-linejoin="round"/>
<path d="M92.8634 134.244C92.2611 133.455 91.785 132.577 91.4521 131.641" stroke="#127358" stroke-width="0.769171" stroke-linecap="round" stroke-linejoin="round"/>
<path d="M109.63 132.091C109.063 133.464 108.187 134.689 107.07 135.669" stroke="#127358" stroke-width="0.769171" stroke-linecap="round" stroke-linejoin="round"/>
<path d="M49.3799 106.017C50.4678 105.522 51.6495 105.266 52.8449 105.267C54.0403 105.268 55.2215 105.526 56.3084 106.024C57.3952 106.522 58.3622 107.248 59.144 108.152C59.9257 109.057 60.5038 110.119 60.8391 111.266" stroke="#127358" stroke-width="0.769171" stroke-linecap="round" stroke-linejoin="round"/>
<path d="M88.6309 110.626C89.4937 109.852 90.5082 109.266 91.6099 108.906C92.7116 108.545 93.8762 108.418 95.0297 108.532" stroke="#127358" stroke-width="0.769171" stroke-linecap="round" stroke-linejoin="round"/>
<path d="M103.479 116.706C104.31 116.873 105.092 117.231 105.761 117.753" stroke="#127358" stroke-width="0.769171" stroke-linecap="round" stroke-linejoin="round"/>
<path d="M105.035 118.785C105.881 117.367 107.148 116.248 108.66 115.583C110.172 114.918 111.853 114.742 113.47 115.077" stroke="#127358" stroke-width="0.769171" stroke-linecap="round" stroke-linejoin="round"/>
<path d="M126.529 121.708C126.817 120.475 127.548 119.391 128.583 118.662C129.619 117.933 130.886 117.611 132.144 117.756C133.402 117.902 134.562 118.505 135.404 119.451C136.246 120.397 136.71 121.62 136.708 122.886" stroke="#127358" stroke-width="0.769171" stroke-linecap="round" stroke-linejoin="round"/>
<path d="M121.816 120.269C122.254 119.584 122.911 119.067 123.679 118.802C124.447 118.536 125.283 118.538 126.05 118.807C126.559 118.985 127.021 119.276 127.403 119.657" stroke="#127358" stroke-width="0.769171" stroke-linecap="round" stroke-linejoin="round"/>
<path d="M26.7109 113.986C27.4532 113.491 28.2975 113.17 29.1809 113.047C30.0644 112.923 30.9644 113 31.814 113.272C32.6635 113.544 33.4409 114.004 34.0882 114.618C34.7354 115.232 35.236 115.984 35.5527 116.818" stroke="#127358" stroke-width="0.769171" stroke-linecap="round" stroke-linejoin="round"/>
<path d="M34.0811 114.626C34.6014 114.076 35.2652 113.682 35.9976 113.489C36.7299 113.296 37.5015 113.312 38.2253 113.535" stroke="#127358" stroke-width="0.769171" stroke-linecap="round" stroke-linejoin="round"/>
<path d="M64.3154 127.424C65.0372 126.163 66.1501 125.172 67.4857 124.599C68.8213 124.027 70.3069 123.906 71.7177 124.253" stroke="#127358" stroke-width="0.769171" stroke-linecap="round" stroke-linejoin="round"/>
<path d="M61.5234 124.704C62.2213 124.647 62.9233 124.737 63.5845 124.967C64.2457 125.198 64.8515 125.564 65.3631 126.042" stroke="#127358" stroke-width="0.769171" stroke-linecap="round" stroke-linejoin="round"/>
<path d="M43.9414 14.7909C43.9414 15.1239 44.0402 15.4494 44.2252 15.7263C44.4102 16.0032 44.6731 16.219 44.9808 16.3464C45.2885 16.4739 45.627 16.5072 45.9536 16.4423C46.2802 16.3773 46.5802 16.2169 46.8157 15.9815C47.0512 15.746 47.2115 15.446 47.2765 15.1194C47.3415 14.7928 47.3081 14.4542 47.1807 14.1466C47.0532 13.8389 46.8374 13.5759 46.5605 13.3909C46.2837 13.2059 45.9581 13.1072 45.6251 13.1072C45.1789 13.1084 44.7514 13.2862 44.4359 13.6017C44.1204 13.9172 43.9426 14.3447 43.9414 14.7909Z" stroke="#127358" stroke-width="0.769171" stroke-linejoin="round"/>
</svg>
