<svg xmlns="http://www.w3.org/2000/svg" version="1.1" xmlns:xlink="http://www.w3.org/1999/xlink" width="512" height="512" x="0" y="0" viewBox="0 0 270.454 270.454" style="enable-background:new 0 0 512 512" xml:space="preserve" class=""><g><path d="M135.224 0c-13.998 0-25.347 11.361-25.347 25.359v84.515H25.356c-13.998 0-25.353 11.349-25.353 25.353s11.355 25.359 25.353 25.359h84.521v84.521c0 13.986 11.349 25.347 25.347 25.347 14.01 0 25.359-11.355 25.359-25.347v-84.521h84.515c14.004 0 25.353-11.349 25.353-25.359 0-14.004-11.349-25.353-25.353-25.353h-84.515V25.359C160.583 11.361 149.234 0 135.224 0z" style="" fill="#010002" data-original="#010002"></path></g></svg>