<svg xmlns="http://www.w3.org/2000/svg" version="1.1" xmlns:xlink="http://www.w3.org/1999/xlink" width="512" height="512" x="0" y="0" viewBox="0 0 24 24" style="enable-background:new 0 0 512 512" xml:space="preserve" class=""><g><path d="M19 6.25H5A2.752 2.752 0 0 0 2.25 9v6A2.752 2.752 0 0 0 5 17.75h14A2.752 2.752 0 0 0 21.75 15V9A2.752 2.752 0 0 0 19 6.25zM8.5 12.5h-.293l.207.207a.5.5 0 0 1-.708.707l-.207-.207v.293a.5.5 0 0 1-1 0v-.293l-.207.207a.498.498 0 0 1-.708 0 .5.5 0 0 1 0-.707l.207-.207h-.293a.5.5 0 0 1 0-1h.293l-.207-.207a.5.5 0 0 1 .707-.707l.207.207V10.5a.5.5 0 0 1 1 0v.293l.207-.207a.5.5 0 0 1 .707.707l-.207.207h.293a.5.5 0 0 1 0 1zm5 0h-.293l.207.207a.5.5 0 0 1-.708.707l-.207-.207v.293a.5.5 0 0 1-1 0v-.293l-.207.207a.498.498 0 0 1-.708 0 .5.5 0 0 1 0-.707l.207-.207h-.293a.5.5 0 0 1 0-1h.293l-.207-.207a.5.5 0 0 1 .707-.707l.207.207V10.5a.5.5 0 0 1 1 0v.293l.207-.207a.5.5 0 0 1 .707.707l-.207.207h.293a.5.5 0 0 1 0 1zm5 0h-.293l.207.207a.5.5 0 0 1-.708.707l-.207-.207v.293a.5.5 0 0 1-1 0v-.293l-.207.207a.498.498 0 0 1-.708 0 .5.5 0 0 1 0-.707l.207-.207h-.293a.5.5 0 0 1 0-1h.293l-.207-.207a.5.5 0 0 1 .707-.707l.207.207V10.5a.5.5 0 0 1 1 0v.293l.207-.207a.5.5 0 0 1 .707.707l-.207.207h.293a.5.5 0 0 1 0 1z" fill="#000000" opacity="1" data-original="#000000" class=""></path></g></svg>