<svg xmlns="http://www.w3.org/2000/svg" version="1.1" xmlns:xlink="http://www.w3.org/1999/xlink" width="512" height="512" x="0" y="0" viewBox="0 0 32 32" style="enable-background:new 0 0 512 512" xml:space="preserve" fill-rule="evenodd" class=""><g><path d="M16.255 2c-3.863 0-7 3.137-7 7s3.137 7 7 7 7-3.137 7-7-3.137-7-7-7zm0 2c2.76 0 5 2.24 5 5s-2.24 5-5 5-5-2.24-5-5 2.24-5 5-5zM4.255 28h12a1 1 0 0 1 0 2h-13a1 1 0 0 1-1-1v-2a9 9 0 0 1 9-9H16a1 1 0 0 1 0 2h-4.745a7 7 0 0 0-7 7zM25 18.292c-3.311 0-6 2.688-6 6 0 3.311 2.689 6 6 6s6-2.689 6-6c0-3.312-2.689-6-6-6zm0 2c2.208 0 4 1.792 4 4 0 2.207-1.792 4-4 4s-4-1.793-4-4c0-2.208 1.792-4 4-4z" fill="#000000" opacity="1" data-original="#000000" class=""></path><path d="M26 26.507v-2.042a1 1 0 0 0-2 0v2.042a1 1 0 0 0 2 0z" fill="#000000" opacity="1" data-original="#000000" class=""></path><circle cx="25" cy="22.206" r="1" fill="#000000" opacity="1" data-original="#000000" class=""></circle></g></svg>