<svg xmlns="http://www.w3.org/2000/svg" version="1.1" xmlns:xlink="http://www.w3.org/1999/xlink" width="512" height="512" x="0" y="0" viewBox="0 0 32 32" style="enable-background:new 0 0 512 512" xml:space="preserve" class=""><g><path d="M16 2a1 1 0 0 0-1 1v26a1 1 0 0 0 2 0V3a1 1 0 0 0-1-1zM20 9a1 1 0 0 0-1 1v13a1 1 0 0 0 2 0V10a1 1 0 0 0-1-1zM24 6a1 1 0 0 0-1 1v19a1 1 0 0 0 2 0V7a1 1 0 0 0-1-1zM28 12a1 1 0 0 0-1 1v7a1 1 0 0 0 2 0v-7a1 1 0 0 0-1-1zM12 9a1 1 0 0 0-1 1v13a1 1 0 0 0 2 0V10a1 1 0 0 0-1-1zM8 6a1 1 0 0 0-1 1v19a1 1 0 0 0 2 0V7a1 1 0 0 0-1-1zM4 12a1 1 0 0 0-1 1v7a1 1 0 0 0 2 0v-7a1 1 0 0 0-1-1z" fill="#000000" opacity="1" data-original="#000000" class=""></path></g></svg>